<svg width="1024" height="1024" viewBox="0 0 1024 1024" fill="none" xmlns="http://www.w3.org/2000/svg">
<rect width="1024" height="1024" fill="white"/>
<path d="M333.056 654.999C330.686 646.488 328.316 637.978 325.836 628.68C324.996 622.275 324.267 616.658 323.539 611.041C323.713 603.267 323.986 595.494 323.977 587.72C323.975 586.164 322.928 584.596 322.304 583.057C321.189 580.306 320.029 577.574 319.052 574.12C320.205 572.302 321.032 570.491 322.213 570.219C326.513 569.23 326.779 565.895 327.817 562.552C332.689 546.874 337.777 531.262 342.925 515.671C343.738 513.207 344.183 511.415 342.51 508.846C336.77 500.03 342.127 490.383 352.682 489.583C354.373 489.455 356.491 488.144 357.48 486.728C362.143 480.058 366.064 472.838 371.035 466.422C378.253 457.107 386.145 448.315 393.75 439.299C396.459 437.727 397.602 435.747 396.749 432.365C396.332 430.712 397.533 428.65 398.335 426.356C398.917 425.753 399.057 425.507 399.089 425.198C399.975 424.776 400.861 424.353 402.402 423.759C405.629 423.787 408.908 425.105 410.655 424C420.055 418.06 429.086 411.533 438.202 405.149C438.833 404.707 439.07 403.74 439.585 403.093C449.205 391.013 458.719 378.845 468.567 366.954C470.613 364.484 471.51 362.83 470.224 359.61C468.285 354.753 470.261 349.285 474.229 346.172C478.171 343.08 483.688 342.77 488.299 345.424C489.432 346.076 490.499 346.845 490.967 347.15C502.244 340.776 513.034 334.564 523.955 328.594C526.252 327.339 527.791 326.467 528.25 323.387C529.177 317.173 536.002 314.411 540.771 318.269C543.146 320.191 544.974 319.955 547.507 319.352C558.974 316.624 570.487 314.092 581.984 311.49C593.381 311.623 604.778 311.756 616.985 311.97C621.196 312.68 624.598 313.31 628 313.939C629.679 314.468 631.358 314.997 633.413 315.583C635.131 315.08 636.786 314.842 637.761 313.901C641.992 309.82 646.329 308.666 650.861 310.765C655.936 313.115 657.838 317.193 657.289 323.513C657.158 325.019 657.74 327.221 658.814 328.102C687.147 351.346 697.01 382.792 698.892 417.809C699.07 421.13 698.936 424.47 698.879 427.801C698.798 432.612 697.449 437.452 703.583 440.522C705.404 441.433 706.13 446.535 705.7 449.474C705.035 454.017 701.36 456.351 697.07 456.545C693.45 468.434 690.395 480.167 686.263 491.508C682.857 500.858 678.02 509.677 674.155 518.873C673.003 521.614 672.531 524.836 672.543 527.835C672.585 538.629 672.967 549.422 673.158 560.94C673.366 562.184 673.636 562.703 673.907 563.221C673.994 563.615 674.08 564.009 674.059 564.997C673.654 565.714 673.346 565.964 673.064 565.938C668.532 565.509 665.239 567.569 665.308 571.104C665.376 574.619 667.593 576.908 670.934 576.75C674.921 576.561 677.199 574.238 676.327 569.748C676.224 569.215 677.46 568.423 678.076 567.752C678.108 567.966 678.141 568.18 678.184 568.954C678.362 569.846 678.633 570.002 679.005 569.981C679.058 570.441 679.11 570.901 678.859 571.804C678.457 572.835 678.359 573.424 678.262 574.012C677.673 578.205 674.559 579.404 671.069 579.487C667.27 579.578 664.26 577.78 663.013 573.977C661.856 570.446 662.573 566.793 665.828 565.192C670.552 562.868 670.78 559.04 670.721 554.881C670.604 546.649 670.338 538.42 670.134 530.189C669.597 530.079 669.06 529.97 668.523 529.86C667.562 531.119 666.498 532.314 665.657 533.648C651.447 556.186 634.356 576.214 614.874 594.436C608.066 600.804 603.386 609.466 597.894 617.195C597.351 617.959 598.05 619.529 597.971 620.712C597.761 623.846 598.514 627.857 596.865 629.853C595.195 631.876 591.121 631.949 588.075 632.785C586.522 633.211 584.324 632.88 583.419 633.837C568.031 650.137 551.124 664.618 532.778 676.571C532.778 679.829 533.36 682.727 532.668 685.28C530.724 692.441 522.115 695.103 515.64 690.521C513.308 688.871 511.599 688.549 508.953 689.662C486.56 699.081 463.453 705.751 439.07 707.444C437.724 707.538 436.073 708.696 435.244 709.848C431.114 715.59 427.935 716.622 420.845 713.886C417.261 708.138 412.202 706.303 405.499 706.956C405.016 706.98 405.146 706.885 405.146 706.885C403.016 706.178 400.886 705.47 397.997 704.867C394.185 703.883 391.132 702.794 387.806 701.482C385.354 700.513 383.175 699.768 380.865 698.924C380.735 698.825 380.411 698.864 380.221 698.499C381.03 697.551 382.177 696.314 382.999 696.501C386.019 697.189 388.93 698.351 392.192 699.548C398.333 700.969 404.164 702.175 410.336 703.533C412.437 703.728 414.195 703.772 416.286 703.752C421.91 694.9 427.198 693.861 434.52 700.585C435.471 703.816 437.247 704.724 440.188 704.261C446.809 703.217 453.467 702.409 460.524 701.474C466.624 699.973 472.312 698.502 478.386 697.031C482.59 695.85 486.408 694.671 490.603 693.425C496.547 691.222 502.1 689.046 507.689 686.967C510.232 686.021 511.439 684.801 511.512 681.621C511.701 673.31 520.009 668.456 527.102 672.527C530.02 674.201 531.841 673.883 534.086 671.995C535.724 670.617 537.491 669.391 539.519 667.999C542.63 665.752 545.425 663.604 548.535 661.312C554.244 656.448 559.638 651.728 565.342 646.888C568.845 643.668 572.038 640.569 575.528 637.295C579.602 633.551 583.721 630.575 582.938 624.042C582.435 619.845 586.121 616.864 590.332 616.923C593.792 616.971 595.398 615.402 596.99 612.991C598.447 610.782 600.002 608.638 601.659 606.242C601.375 605.79 600.946 605.562 600.198 605.469C591.45 610.444 583.021 615.282 574.287 620.129C573.056 620.672 572.13 621.205 570.77 621.746C568.842 624.012 567.348 626.27 565.559 628.73C562.491 630.211 559.717 631.49 556.763 632.654C556.581 632.539 556.154 632.584 555.878 632.418C553.757 631.159 551.913 630.065 549.961 628.638C547.902 628.222 545.951 628.139 543.599 628.023C540.798 628.396 538.398 628.801 535.66 629.158C534.214 629.335 533.105 629.56 531.529 629.742C518.112 630.553 505.321 629.573 493.03 626.236C494.725 625.4 496.11 624.717 497.816 624.32C513.158 627.659 528.188 627.957 543.259 624.889C546.173 624.296 548.093 623.501 549.13 620.082C550.977 613.99 559.2 611.289 563.229 615.867C567.235 620.42 570.313 618.447 574.017 616.81C576.907 615.533 579.973 614.446 582.529 612.658C592.162 605.921 603.275 600.356 610.734 591.686C620.67 580.139 626.006 565.301 630.604 550.601C631.352 548.211 631.141 546.547 628.914 544.594C623.006 539.415 624.637 531.132 631.85 527.963C633.176 527.38 634.57 526.953 635.956 526.445C640.326 498.186 635.284 471.582 623.942 445.925C623.683 445.339 622.747 445.052 622.112 444.273C621.46 442.893 620.823 441.865 620.012 440.624C619.258 439.709 618.678 439.007 618.218 438.001C618.713 436.481 619.09 435.266 619.525 434.41C621.661 436.909 623.589 439.224 625.841 441.16C643.112 456.01 655.82 474.075 663.977 495.302C666.646 502.249 668.827 509.384 671.277 516.566C671.588 516.18 671.925 515.872 672.129 515.492C681.649 497.791 688.44 479.079 692.48 459.408C692.798 457.864 691.5 455.522 690.258 454.207C685.468 449.134 685.922 441.478 691.971 438.543C695.032 437.058 695.857 435.11 695.683 432.355C694.857 419.266 694.996 405.995 692.763 393.142C688.578 369.044 677.767 348.127 658.731 332.043C656.398 330.072 654.655 328.684 651.051 330.811C644.66 334.583 636.653 330.511 635.397 323.064C634.84 319.76 633.413 318.69 630.6 317.925C602.234 310.209 574.522 313.613 547.184 322.843C545.825 323.302 544.495 325.032 543.942 326.473C541.908 331.776 537.499 334.121 532.452 331.389C529.226 329.643 526.807 330.255 524.146 331.808C514.81 337.258 505.467 342.698 496.216 348.288C494.994 349.027 494.286 350.613 493.34 351.807C494.885 352.73 496.325 354.119 497.994 354.495C505.765 356.247 513.878 356.901 521.352 359.456C537.483 364.971 552.532 372.742 565.216 384.72C564.865 385.391 564.53 385.793 563.853 386.065C551.455 376.978 538.87 368.761 524.648 363.825C514.873 360.433 504.576 358.546 494.736 356.044C489.756 367.896 486.745 369.31 475.319 366.661C474.229 366.408 472.382 367.143 471.635 368.042C462.734 378.758 453.974 389.592 444.981 400.591C444.742 401.193 444.701 401.6 444.659 402.006C445.249 401.83 445.838 401.653 446.774 401.379C452.639 398.991 458.077 396.477 463.69 394.446C491.088 384.532 518.845 383.679 546.454 391.641C545.302 392.292 544.587 392.801 543.449 393.299C542.041 393.119 541.046 392.997 540.073 392.778C505.904 385.1 473.62 390.421 443.025 406.992C441.109 408.03 439.085 409.758 438.205 411.669C433.965 420.878 430.132 430.274 426.082 439.573C424.903 442.281 425.093 444.205 427.354 446.598C431.486 450.971 430.751 457.281 426.06 460.585C424.105 461.961 421.64 462.613 419.242 463.666C412.682 499.616 412.896 535.396 423.076 570.967C422.244 572.082 421.703 573.028 421.069 573.598C410.212 537.763 409.743 501.803 415.547 465.494C415.819 463.793 414.857 461.404 413.662 460.046C408.326 453.976 410.185 445.458 417.73 443.948C421.161 443.261 422.413 441.652 423.122 438.654C423.616 436.564 424.484 434.548 425.324 432.557C428.125 425.913 430.988 419.295 434.439 411.238C427.093 416.422 420.87 420.568 414.98 425.144C413.525 426.275 412.541 428.76 412.402 430.698C412.006 436.248 408.415 439.359 402.846 439.149C400.764 439.07 397.92 439.955 396.622 441.445C387.552 451.851 378.577 462.357 370.031 473.194C365.633 478.772 362.179 485.095 358.398 490.928C365.423 499.505 365.509 502.737 359.032 512.002C362.124 516.327 364.819 521.257 368.582 525.156C384.175 541.311 400.074 557.171 415.918 573.083C417.387 574.558 419.258 575.633 420.953 577.268C420.54 578.469 420.116 579.296 419.39 580.003C396.723 558.999 373.074 539.334 356.47 513.882C347.959 511.204 345.209 516.231 343.286 522.589C339.053 536.585 334.605 550.519 330.605 564.581C330.08 566.427 331.102 569.314 332.383 570.96C336.128 575.769 335.317 580.976 330.034 584C328.82 584.694 327.242 586.078 327.163 587.236C325.394 613.191 327.835 638.452 340.124 661.989C341.215 664.078 342.146 666.25 343.392 668.894C337.827 668.856 337.955 664.334 335.939 661.646C335.022 659.195 334.039 657.097 333.056 654.999ZM630.324 449.707C629.949 449.568 629.574 449.429 629.199 449.29C629.321 449.991 629.443 450.691 629.704 452.116C638.808 475.471 642.928 499.467 639.225 524.525C639.035 525.81 639.816 527.784 640.823 528.602C644.339 531.454 646.449 534.773 645.544 539.386C644.638 544.005 641.532 546.35 637.06 547.47C635.816 547.781 634.45 549.239 633.916 550.499C629.572 560.747 625.412 571.074 620.778 581.734C620.717 582.111 620.655 582.488 620.594 582.865C621.183 582.707 621.773 582.55 622.946 582.069C640.287 565.5 654.48 546.472 666.552 525.835C667.697 523.878 668.342 520.995 667.878 518.829C662.202 492.338 650.513 469.037 630.324 449.707ZM489.98 350.873C489.353 350.101 488.841 349.185 488.081 348.581C484.349 345.621 480.387 345.658 476.551 348.248C472.731 350.828 471.678 355.764 473.661 360.305C475.584 364.71 479.187 365.918 483.501 365.115C488.158 364.248 490.649 361.058 491.063 356.436C491.205 354.852 490.61 353.202 489.98 350.873ZM357.758 508.291C360.915 505.396 362.285 501.699 360.071 498.031C358.713 495.782 355.965 493.616 353.449 492.989C349.135 491.915 345.777 494.314 343.879 498.37C342.122 502.127 342.836 505.641 345.77 508.391C349.319 511.719 353.276 511.3 357.758 508.291ZM639.929 326.528C643.429 329.841 647.726 330.628 651.162 327.519C653.198 325.676 654.561 321.723 654.246 318.944C653.671 313.876 648.36 311.54 643.489 313.134C639.353 314.487 635.697 320.515 639.929 326.528ZM520.003 674.034C515.902 675.285 513.664 678.442 514.444 682.284C514.984 684.948 517.282 688.535 519.552 689.227C522.089 690.001 526.255 688.791 528.259 686.903C529.886 685.369 530.334 681.252 529.572 678.825C528.41 675.126 524.992 673.304 520.003 674.034ZM639.256 543.811C643.325 540.322 644.278 536.421 641.595 533.115C638.977 529.888 635.582 528.904 631.861 531.126C628.655 533.039 627.199 535.995 628.773 539.615C630.628 543.882 634.022 545.369 639.256 543.811ZM424.205 447.15C421.427 447.261 418.239 446.592 416.012 447.757C414.502 448.547 413.263 452.268 413.845 454.04C414.584 456.291 417.038 458.936 419.223 459.465C421.13 459.927 424.325 458.243 425.82 456.523C428.286 453.687 427.414 450.365 424.205 447.15ZM698.955 440.186C697.802 440.127 696.245 439.566 695.573 440.106C693.534 441.743 690.539 443.689 690.352 445.737C690.14 448.063 691.987 451.645 694.008 452.783C695.767 453.773 700.079 452.975 701.328 451.416C702.811 449.565 702.487 446.047 702.39 443.27C702.358 442.326 700.637 441.441 698.955 440.186ZM431.339 701.269C426.959 698.22 423.341 698.3 420.921 701.606C418.785 704.523 418.85 707.552 421.246 710.225C423.772 713.045 426.986 713.673 430.156 711.471C433.763 708.965 434.005 705.564 431.339 701.269ZM552.65 619.059C550.411 623.97 551.468 627.606 555.611 629.246C558.966 630.574 563.19 629.008 563.927 625.378C564.369 623.204 563.606 620.015 562.148 618.394C559.605 615.568 556.173 616.303 552.65 619.059ZM585.491 626.947C587.655 628.035 589.765 629.766 592.006 629.957C593.233 630.062 595.391 627.787 595.885 626.197C596.927 622.851 595.374 620.318 591.752 619.586C587.949 618.817 585.688 621.174 585.491 626.947ZM330.125 580.606C332.807 577.641 333.167 574.384 329.558 572.368C327.943 571.466 324.539 571.96 323.071 573.177C321.897 574.149 321.612 577.545 322.373 579.204C323.679 582.05 326.513 582.704 330.125 580.606ZM409.505 429.928C406.928 425.679 403.395 424.535 401.054 427.571C399.966 428.982 399.362 431.805 400.059 433.258C400.757 434.712 403.921 436.45 404.991 435.939C406.955 435.002 408.175 432.505 409.505 429.928ZM531.359 322.242C531.988 324.402 532.17 326.894 533.428 328.587C534.097 329.488 537.199 329.739 538.187 328.973C539.634 327.85 540.684 325.611 540.901 323.732C541.033 322.582 539.339 320.198 538.38 320.152C536.216 320.05 534 321.055 531.359 322.242Z" fill="#00928F"/>
<path d="M420.953 577.268C420.966 576.16 420.989 575.427 421.087 574.334C421.703 573.028 422.244 572.082 423.076 570.967C425.639 575.386 427.91 579.976 430.544 584.758C430.536 586.155 430.167 587.36 429.288 588.558C427.928 587.607 427.078 586.662 426.228 585.717C424.499 584.101 422.769 582.486 420.632 580.932C419.993 580.888 419.847 580.712 419.74 580.293C420.116 579.296 420.54 578.469 420.953 577.268Z" fill="#00928F"/>
<path d="M546.454 391.641C550.081 392.593 553.272 393.685 556.788 394.955C556.602 395.725 556.091 396.319 555.28 396.975C551.48 395.918 547.981 394.798 544.177 393.494C544.587 392.801 545.302 392.292 546.454 391.641Z" fill="#00928F"/>
<path d="M354.437 603.589C356.565 599.743 359.777 598.485 362.758 600.899C364.39 602.22 365.386 605.844 364.85 607.972C364.031 611.231 360.417 612.524 357.686 610.697C355.862 609.477 355.369 606.266 354.437 603.589Z" fill="#00928F"/>
<path d="M420.257 608.072C420.404 608.576 420.371 608.963 420.338 609.349C419.995 609.173 419.652 608.996 419.336 608.612C419.538 608.153 419.776 608.003 420.257 608.072Z" fill="#00928F"/>
<path d="M655.587 409.656C652.036 411.619 648.819 411.316 647.166 408.065C646.234 406.233 646.194 402.881 647.313 401.373C648.433 399.864 651.646 398.932 653.68 399.279C658.183 400.046 659.041 404.815 655.587 409.656Z" fill="#00928F"/>
<path d="M462.988 443.111C466.373 440.696 469.58 441.056 471.521 443.981C472.626 445.646 473.007 449.245 471.955 450.521C470.636 452.12 467.382 453.112 465.194 452.792C461.142 452.198 460.224 447.849 462.988 443.111Z" fill="#00928F"/>
<path d="M495.37 415.908C490.778 413.152 489.334 409.809 491.873 407.09C493.295 405.567 496.795 404.026 498.041 404.752C499.991 405.889 501.792 408.893 501.904 411.192C502.073 414.629 499.326 416.292 495.37 415.908Z" fill="#00928F"/>
<path d="M454.834 646.063C455.556 647.908 456.277 649.752 457.215 652.256C458.126 654.851 458.82 656.787 459.514 658.724C459.594 659.647 459.673 660.571 459.845 662.56C456.355 657.968 453.468 654.169 450.132 649.939C445.285 646.853 440.886 644.198 436.306 641.407C435.856 641.358 435.588 641.445 435.32 641.532C435.526 641.707 435.731 641.882 435.924 642.422C437.153 645.892 438.395 648.996 439.636 652.101C439.289 656.952 438.942 661.804 438.595 666.655C438.071 666.647 437.548 666.638 437.024 666.629C436.878 664.97 436.731 663.311 436.477 660.918C435.287 657.107 434.205 654.029 433.123 650.952C430.221 648.22 427.318 645.487 423.839 642.442C421.083 640.538 419.064 640.339 417.353 642.813C410.324 647.513 403.294 652.213 395.724 657.264C394.227 658.315 393.271 659.014 392.315 659.713C385.062 664.468 378.037 669.632 370.485 673.852C364.216 677.354 357.326 679.746 350.133 682.72C349.555 682.81 349.101 682.731 349.101 682.731C346.592 678.015 349.739 675.81 353.118 673.733C364.745 666.589 376.512 659.661 387.962 652.245C395.496 647.365 402.567 641.772 409.867 636.53C412.852 634.386 413.46 631.789 412.352 628.255C409.466 619.05 405.226 611.084 394.785 607.645C402.287 606.139 406.405 608.172 413.556 616.42C415.202 608.854 410.544 597.966 402.462 590.484C408.235 590.113 415.288 597.357 419.231 608.225C419.651 608.996 419.995 609.173 420.338 609.349C420.371 608.963 420.404 608.576 420.436 608.19C420.382 599.436 420.327 590.683 420.656 581.4C422.769 582.486 424.499 584.101 426.179 586.177C426.868 591.43 427.605 596.222 428.343 601.015C428.886 600.992 429.429 600.969 429.972 600.947C429.707 596.923 429.442 592.899 429.487 588.719C430.167 587.36 430.537 586.155 430.884 584.423C430.965 579.404 431.128 574.912 431.163 570.419C431.345 546.924 439.904 527.341 458.238 512.314C459.004 511.686 459.893 511.208 461.012 510.471C458.813 527.576 460.702 547.358 465.109 554.066C465.109 547.161 465.062 540.354 465.118 533.547C465.28 513.884 470.518 496.167 484.6 481.665C493.87 472.119 502.768 462.211 511.999 452.626C516.585 447.864 521.546 443.462 526.967 438.298C527.82 446.949 528.569 454.543 529.318 462.137C530.37 459.284 530.446 456.483 530.357 453.687C529.805 436.32 534.295 420.863 546.802 408.134C549.99 404.889 552.278 400.76 555.279 396.975C556.091 396.319 556.602 395.725 557.419 394.989C559.881 391.962 562.038 389.079 564.195 386.195C564.53 385.793 564.865 385.391 565.548 384.642C579.081 369.176 592.267 354.058 606.319 337.947C609.409 342.526 612.484 346.349 614.771 350.595C626.369 372.12 627.547 395.424 625.315 419.034C624.829 424.178 621.491 429.052 619.466 434.051C619.089 435.266 618.713 436.481 617.861 437.828C616.397 438.36 615.264 438.569 614.441 439.189C609.232 443.112 604.092 447.126 598.664 451.314C606.665 449.298 614.409 447.214 620.186 440.836C620.823 441.865 621.46 442.893 622.046 444.706C617.494 465.243 609.979 483.806 600.381 501.62C594.795 511.989 586.825 519.67 576.318 524.674C567.186 529.023 557.863 532.97 547.504 537.594C561.4 536.507 573.642 532.8 586.525 528.54C585.635 530.494 585.201 531.712 584.562 532.812C572.379 553.78 557.847 572.931 540.437 589.864C526.179 603.731 509.306 612.409 489.676 615.676C486.353 616.229 483.015 616.681 479.683 617.18C479.747 617.748 479.81 618.316 479.874 618.883C491.093 617.993 502.313 617.102 514.762 616.114C510.98 617.827 508.298 619.03 505.626 620.256C502.911 621.503 500.205 622.773 497.495 624.033C496.11 624.717 494.724 625.4 492.647 626.144C487.254 627.103 482.586 628.295 477.843 628.837C470.299 629.698 462.705 630.126 455.022 630.746C460.74 633.326 466.248 636.008 471.912 638.306C476.79 640.285 481.845 641.827 486.822 643.562C487.4 643.849 487.977 644.135 489.464 644.871C478.897 646.098 469.703 643.446 459.766 641.506C456.252 640.426 453.391 639.523 449.442 638.276C451.738 641.591 453.286 643.827 454.834 646.063ZM576.042 451.596C579.118 444.677 582.194 437.757 585.271 430.837C584.043 431.127 583.527 431.751 583.2 432.462C571.581 457.716 555.748 480.375 539.279 502.546C508.4 544.116 473.332 581.905 434.697 616.396C429.551 620.99 424.776 626.002 419.829 630.821C420.117 631.258 420.404 631.695 420.692 632.132C422.225 631.552 424.02 631.304 425.251 630.339C434.806 622.85 444.549 615.562 453.671 607.571C475.242 588.674 494.692 567.698 513.25 545.849C537.705 517.057 559.413 486.477 576.042 451.596ZM498.712 522.938C499.539 524.564 500.338 526.204 501.2 527.812C501.955 529.219 502.78 530.589 503.574 531.976C504.004 531.733 504.433 531.49 504.863 531.247C502.689 526.688 500.516 522.129 498.342 517.569C497.953 517.734 497.564 517.899 497.175 518.064C497.572 519.479 497.969 520.894 498.712 522.938Z" fill="#13283E"/>
<circle cx="327" cy="577" r="10" fill="#00928F"/>
<circle cx="350" cy="502" r="13" fill="#00928F"/>
<circle cx="420" cy="453" r="11" fill="#00928F"/>
<circle cx="482" cy="356" r="15" fill="#00928F"/>
<circle cx="536" cy="324" r="9" fill="#00928F"/>
<circle cx="646" cy="321" r="13" fill="#00928F"/>
<circle cx="654" cy="405" r="8" fill="#00928F"/>
<circle cx="696" cy="446" r="11" fill="#00928F"/>
<circle cx="671" cy="571" r="11" fill="#00928F"/>
<circle cx="636" cy="538" r="11" fill="#00928F"/>
<circle cx="590" cy="624" r="9" fill="#00928F"/>
<circle cx="558" cy="623" r="12" fill="#00928F"/>
<circle cx="522" cy="682" r="12" fill="#00928F"/>
<circle cx="426" cy="706" r="10" fill="#00928F"/>
<circle cx="404" cy="431" r="9" fill="#00928F"/>
<circle cx="467" cy="449" r="7" fill="#00928F"/>
<circle cx="496" cy="410" r="7" fill="#00928F"/>
<circle cx="360" cy="606" r="8" fill="#00928F"/>
</svg>
