<svg width="1134" height="400" viewBox="0 0 1134 400" fill="none" xmlns="http://www.w3.org/2000/svg">
<path d="M461.182 202V108.909H521.727V123.045H478.045V148.318H518.591V162.455H478.045V187.864H522.091V202H461.182ZM558.295 203.409C553.871 203.409 549.886 202.621 546.341 201.045C542.826 199.439 540.038 197.076 537.977 193.955C535.947 190.833 534.932 186.985 534.932 182.409C534.932 178.47 535.659 175.212 537.114 172.636C538.568 170.061 540.553 168 543.068 166.455C545.583 164.909 548.417 163.742 551.568 162.955C554.75 162.136 558.038 161.545 561.432 161.182C565.523 160.758 568.841 160.379 571.386 160.045C573.932 159.682 575.78 159.136 576.932 158.409C578.114 157.652 578.705 156.485 578.705 154.909V154.636C578.705 151.212 577.689 148.561 575.659 146.682C573.629 144.803 570.705 143.864 566.886 143.864C562.856 143.864 559.659 144.742 557.295 146.5C554.962 148.258 553.386 150.333 552.568 152.727L537.205 150.545C538.417 146.303 540.417 142.758 543.205 139.909C545.992 137.03 549.402 134.879 553.432 133.455C557.462 132 561.917 131.273 566.795 131.273C570.159 131.273 573.508 131.667 576.841 132.455C580.174 133.242 583.22 134.545 585.977 136.364C588.735 138.152 590.947 140.591 592.614 143.682C594.311 146.773 595.159 150.636 595.159 155.273V202H579.341V192.409H578.795C577.795 194.348 576.386 196.167 574.568 197.864C572.78 199.53 570.523 200.879 567.795 201.909C565.098 202.909 561.932 203.409 558.295 203.409ZM562.568 191.318C565.871 191.318 568.735 190.667 571.159 189.364C573.583 188.03 575.447 186.273 576.75 184.091C578.083 181.909 578.75 179.53 578.75 176.955V168.727C578.235 169.152 577.356 169.545 576.114 169.909C574.902 170.273 573.538 170.591 572.023 170.864C570.508 171.136 569.008 171.379 567.523 171.591C566.038 171.803 564.75 171.985 563.659 172.136C561.205 172.47 559.008 173.015 557.068 173.773C555.129 174.53 553.598 175.591 552.477 176.955C551.356 178.288 550.795 180.015 550.795 182.136C550.795 185.167 551.902 187.455 554.114 189C556.326 190.545 559.144 191.318 562.568 191.318ZM666.886 150.636L651.886 152.273C651.462 150.758 650.72 149.333 649.659 148C648.629 146.667 647.235 145.591 645.477 144.773C643.72 143.955 641.568 143.545 639.023 143.545C635.598 143.545 632.72 144.288 630.386 145.773C628.083 147.258 626.947 149.182 626.977 151.545C626.947 153.576 627.689 155.227 629.205 156.5C630.75 157.773 633.295 158.818 636.841 159.636L648.75 162.182C655.356 163.606 660.265 165.864 663.477 168.955C666.72 172.045 668.356 176.091 668.386 181.091C668.356 185.485 667.068 189.364 664.523 192.727C662.008 196.061 658.508 198.667 654.023 200.545C649.538 202.424 644.386 203.364 638.568 203.364C630.023 203.364 623.144 201.576 617.932 198C612.72 194.394 609.614 189.379 608.614 182.955L624.659 181.409C625.386 184.561 626.932 186.939 629.295 188.545C631.659 190.152 634.735 190.955 638.523 190.955C642.432 190.955 645.568 190.152 647.932 188.545C650.326 186.939 651.523 184.955 651.523 182.591C651.523 180.591 650.75 178.939 649.205 177.636C647.689 176.333 645.326 175.333 642.114 174.636L630.205 172.136C623.508 170.742 618.553 168.394 615.341 165.091C612.129 161.758 610.538 157.545 610.568 152.455C610.538 148.152 611.705 144.424 614.068 141.273C616.462 138.091 619.78 135.636 624.023 133.909C628.295 132.152 633.22 131.273 638.795 131.273C646.977 131.273 653.417 133.015 658.114 136.5C662.841 139.985 665.765 144.697 666.886 150.636ZM692.182 228.182C689.939 228.182 687.864 228 685.955 227.636C684.076 227.303 682.576 226.909 681.455 226.455L685.273 213.636C687.667 214.333 689.803 214.667 691.682 214.636C693.561 214.606 695.212 214.015 696.636 212.864C698.091 211.742 699.318 209.864 700.318 207.227L701.727 203.455L676.409 132.182H693.864L709.955 184.909H710.682L726.818 132.182H744.318L716.364 210.455C715.061 214.152 713.333 217.318 711.182 219.955C709.03 222.621 706.394 224.652 703.273 226.045C700.182 227.47 696.485 228.182 692.182 228.182ZM822.864 170.727H838.136L847.182 182.455L853.636 190.091L869.136 210H852.773L842.227 196.636L837.727 190.273L822.864 170.727ZM871.364 155.455C871.364 165.485 869.485 174.076 865.727 181.227C862 188.348 856.909 193.803 850.455 197.591C844.03 201.379 836.742 203.273 828.591 203.273C820.439 203.273 813.136 201.379 806.682 197.591C800.258 193.773 795.167 188.303 791.409 181.182C787.682 174.03 785.818 165.455 785.818 155.455C785.818 145.424 787.682 136.848 791.409 129.727C795.167 122.576 800.258 117.106 806.682 113.318C813.136 109.53 820.439 107.636 828.591 107.636C836.742 107.636 844.03 109.53 850.455 113.318C856.909 117.106 862 122.576 865.727 129.727C869.485 136.848 871.364 145.424 871.364 155.455ZM854.409 155.455C854.409 148.394 853.303 142.439 851.091 137.591C848.909 132.712 845.879 129.03 842 126.545C838.121 124.03 833.652 122.773 828.591 122.773C823.53 122.773 819.061 124.03 815.182 126.545C811.303 129.03 808.258 132.712 806.045 137.591C803.864 142.439 802.773 148.394 802.773 155.455C802.773 162.515 803.864 168.485 806.045 173.364C808.258 178.212 811.303 181.894 815.182 184.409C819.061 186.894 823.53 188.136 828.591 188.136C833.652 188.136 838.121 186.894 842 184.409C845.879 181.894 848.909 178.212 851.091 173.364C853.303 168.485 854.409 162.515 854.409 155.455ZM903.159 108.909V202H886.705V108.909H903.159ZM1026.95 202V132.182H1042.68V144.045H1043.5C1044.95 140.045 1047.36 136.924 1050.73 134.682C1054.09 132.409 1058.11 131.273 1062.77 131.273C1067.5 131.273 1071.48 132.424 1074.73 134.727C1078 137 1080.3 140.106 1081.64 144.045H1082.36C1083.91 140.167 1086.52 137.076 1090.18 134.773C1093.88 132.439 1098.26 131.273 1103.32 131.273C1109.74 131.273 1114.98 133.303 1119.05 137.364C1123.11 141.424 1125.14 147.348 1125.14 155.136V202H1108.64V157.682C1108.64 153.348 1107.48 150.182 1105.18 148.182C1102.88 146.152 1100.06 145.136 1096.73 145.136C1092.76 145.136 1089.65 146.379 1087.41 148.864C1085.2 151.318 1084.09 154.515 1084.09 158.455V202H1067.95V157C1067.95 153.394 1066.86 150.515 1064.68 148.364C1062.53 146.212 1059.71 145.136 1056.23 145.136C1053.86 145.136 1051.71 145.742 1049.77 146.955C1047.83 148.136 1046.29 149.818 1045.14 152C1043.98 154.152 1043.41 156.667 1043.41 159.545V202H1026.95Z" fill="#00928F"/>
<path d="M940.17 203.409C935.746 203.409 931.761 202.621 928.216 201.045C924.701 199.439 921.913 197.076 919.852 193.955C917.822 190.833 916.807 186.985 916.807 182.409C916.807 178.47 917.534 175.212 918.989 172.636C920.443 170.061 922.428 168 924.943 166.455C927.458 164.909 930.292 163.742 933.443 162.955C936.625 162.136 939.913 161.545 943.307 161.182C947.398 160.758 950.716 160.379 953.261 160.045C955.807 159.682 957.655 159.136 958.807 158.409C959.989 157.652 960.58 156.485 960.58 154.909V154.636C960.58 151.212 959.564 148.561 957.534 146.682C955.504 144.803 952.58 143.864 948.761 143.864C944.731 143.864 941.534 144.742 939.17 146.5C936.837 148.258 935.261 150.333 934.443 152.727L919.08 150.545C920.292 146.303 922.292 142.758 925.08 139.909C927.867 137.03 931.277 134.879 935.307 133.455C939.337 132 943.792 131.273 948.67 131.273C952.034 131.273 955.383 131.667 958.716 132.455C962.049 133.242 965.095 134.545 967.852 136.364C970.61 138.152 972.822 140.591 974.489 143.682C976.186 146.773 977.034 150.636 977.034 155.273V202H961.216V192.409H960.67C959.67 194.348 958.261 196.167 956.443 197.864C954.655 199.53 952.398 200.879 949.67 201.909C946.973 202.909 943.807 203.409 940.17 203.409ZM944.443 191.318C947.746 191.318 950.61 190.667 953.034 189.364C955.458 188.03 957.322 186.273 958.625 184.091C959.958 181.909 960.625 179.53 960.625 176.955V168.727C960.11 169.152 959.231 169.545 957.989 169.909C956.777 170.273 955.413 170.591 953.898 170.864C952.383 171.136 950.883 171.379 949.398 171.591C947.913 171.803 946.625 171.985 945.534 172.136C943.08 172.47 940.883 173.015 938.943 173.773C937.004 174.53 935.473 175.591 934.352 176.955C933.231 178.288 932.67 180.015 932.67 182.136C932.67 185.167 933.777 187.455 935.989 189C938.201 190.545 941.019 191.318 944.443 191.318ZM993.58 202V132.182H1010.03V202H993.58ZM1001.85 122.273C999.246 122.273 997.004 121.409 995.125 119.682C993.246 117.924 992.307 115.818 992.307 113.364C992.307 110.879 993.246 108.773 995.125 107.045C997.004 105.288 999.246 104.409 1001.85 104.409C1004.49 104.409 1006.73 105.288 1008.58 107.045C1010.46 108.773 1011.4 110.879 1011.4 113.364C1011.4 115.818 1010.46 117.924 1008.58 119.682C1006.73 121.409 1004.49 122.273 1001.85 122.273Z" fill="#13283E"/>
<path d="M491.7 270.273C491.539 268.905 490.882 267.844 489.73 267.088C488.579 266.332 487.166 265.955 485.493 265.955C484.27 265.955 483.199 266.152 482.281 266.548C481.373 266.944 480.662 267.488 480.149 268.181C479.646 268.874 479.394 269.661 479.394 270.543C479.394 271.28 479.569 271.915 479.92 272.445C480.28 272.967 480.739 273.403 481.296 273.754C481.854 274.096 482.439 274.379 483.051 274.604C483.662 274.82 484.225 274.996 484.737 275.131L487.544 275.886C488.264 276.075 489.065 276.336 489.946 276.669C490.837 277.002 491.687 277.456 492.497 278.032C493.315 278.599 493.99 279.327 494.521 280.218C495.052 281.109 495.317 282.202 495.317 283.497C495.317 284.991 494.926 286.34 494.143 287.545C493.369 288.751 492.236 289.709 490.742 290.42C489.258 291.13 487.454 291.486 485.331 291.486C483.352 291.486 481.638 291.166 480.19 290.528C478.75 289.889 477.617 288.998 476.789 287.856C475.971 286.713 475.507 285.386 475.399 283.875H478.854C478.944 284.919 479.295 285.782 479.906 286.466C480.527 287.141 481.31 287.644 482.254 287.977C483.208 288.301 484.234 288.463 485.331 288.463C486.609 288.463 487.756 288.256 488.772 287.842C489.789 287.42 490.594 286.835 491.188 286.088C491.781 285.332 492.078 284.451 492.078 283.443C492.078 282.526 491.822 281.779 491.309 281.203C490.796 280.627 490.122 280.16 489.285 279.8C488.448 279.44 487.544 279.125 486.573 278.855L483.172 277.884C481.013 277.263 479.304 276.377 478.044 275.225C476.785 274.074 476.155 272.567 476.155 270.705C476.155 269.157 476.573 267.808 477.41 266.656C478.256 265.496 479.389 264.596 480.811 263.957C482.241 263.31 483.838 262.986 485.601 262.986C487.382 262.986 488.966 263.305 490.351 263.944C491.736 264.574 492.834 265.437 493.644 266.535C494.462 267.632 494.894 268.878 494.939 270.273H491.7ZM500.387 291V270.273H503.464V273.511H503.734C504.166 272.405 504.863 271.546 505.826 270.934C506.788 270.313 507.944 270.003 509.294 270.003C510.661 270.003 511.799 270.313 512.708 270.934C513.625 271.546 514.341 272.405 514.853 273.511H515.069C515.6 272.441 516.396 271.591 517.458 270.961C518.519 270.322 519.792 270.003 521.277 270.003C523.13 270.003 524.646 270.583 525.824 271.744C527.003 272.895 527.592 274.69 527.592 277.128V291H524.407V277.128C524.407 275.598 523.989 274.505 523.152 273.849C522.316 273.192 521.331 272.864 520.197 272.864C518.74 272.864 517.611 273.304 516.81 274.186C516.009 275.059 515.609 276.165 515.609 277.506V291H512.37V276.804C512.37 275.625 511.988 274.676 511.223 273.957C510.459 273.228 509.474 272.864 508.268 272.864C507.44 272.864 506.667 273.084 505.947 273.525C505.236 273.966 504.661 274.577 504.22 275.36C503.788 276.134 503.572 277.029 503.572 278.045V291H500.387ZM539.514 291.486C538.201 291.486 537.009 291.238 535.938 290.744C534.868 290.24 534.018 289.516 533.388 288.571C532.758 287.617 532.443 286.466 532.443 285.116C532.443 283.929 532.677 282.966 533.145 282.229C533.613 281.482 534.238 280.897 535.021 280.474C535.803 280.052 536.667 279.737 537.612 279.53C538.565 279.314 539.523 279.143 540.486 279.017C541.745 278.855 542.766 278.734 543.549 278.653C544.341 278.563 544.916 278.414 545.276 278.207C545.645 278 545.83 277.641 545.83 277.128V277.02C545.83 275.688 545.465 274.654 544.737 273.916C544.017 273.179 542.924 272.81 541.457 272.81C539.937 272.81 538.745 273.143 537.881 273.808C537.018 274.474 536.411 275.185 536.06 275.94L533.037 274.861C533.577 273.601 534.296 272.621 535.196 271.919C536.105 271.208 537.094 270.714 538.165 270.435C539.244 270.147 540.306 270.003 541.349 270.003C542.015 270.003 542.78 270.084 543.643 270.246C544.516 270.399 545.357 270.718 546.167 271.204C546.986 271.69 547.665 272.423 548.205 273.403C548.744 274.384 549.014 275.697 549.014 277.344V291H545.83V288.193H545.668C545.452 288.643 545.092 289.124 544.588 289.637C544.084 290.15 543.414 290.586 542.577 290.946C541.741 291.306 540.72 291.486 539.514 291.486ZM540 288.625C541.259 288.625 542.321 288.378 543.185 287.883C544.057 287.388 544.714 286.749 545.155 285.967C545.605 285.184 545.83 284.361 545.83 283.497V280.582C545.695 280.744 545.398 280.893 544.939 281.028C544.489 281.154 543.967 281.266 543.374 281.365C542.789 281.455 542.218 281.536 541.66 281.608C541.111 281.671 540.666 281.725 540.324 281.77C539.496 281.878 538.723 282.053 538.003 282.296C537.292 282.53 536.716 282.885 536.276 283.362C535.844 283.83 535.628 284.469 535.628 285.278C535.628 286.385 536.037 287.222 536.856 287.788C537.683 288.346 538.732 288.625 540 288.625ZM554.827 291V270.273H557.904V273.403H558.119C558.497 272.378 559.181 271.546 560.171 270.907C561.16 270.268 562.276 269.949 563.517 269.949C563.751 269.949 564.044 269.953 564.394 269.962C564.745 269.971 565.011 269.985 565.191 270.003V273.241C565.083 273.214 564.835 273.174 564.448 273.12C564.07 273.057 563.67 273.026 563.247 273.026C562.24 273.026 561.34 273.237 560.548 273.66C559.766 274.074 559.145 274.649 558.686 275.387C558.236 276.116 558.012 276.948 558.012 277.884V291H554.827ZM579.279 270.273V272.972H568.537V270.273H579.279ZM571.668 265.307H574.852V285.062C574.852 285.962 574.983 286.637 575.244 287.087C575.514 287.527 575.856 287.824 576.269 287.977C576.692 288.121 577.137 288.193 577.605 288.193C577.956 288.193 578.244 288.175 578.469 288.139C578.694 288.094 578.874 288.058 579.009 288.031L579.656 290.892C579.441 290.973 579.139 291.054 578.752 291.135C578.365 291.225 577.875 291.27 577.281 291.27C576.382 291.27 575.5 291.076 574.637 290.69C573.782 290.303 573.071 289.714 572.504 288.922C571.947 288.13 571.668 287.132 571.668 285.926V265.307ZM592.537 291.432C590.54 291.432 588.817 290.991 587.368 290.109C585.929 289.219 584.818 287.977 584.035 286.385C583.262 284.784 582.875 282.921 582.875 280.798C582.875 278.675 583.262 276.804 584.035 275.185C584.818 273.556 585.907 272.288 587.301 271.379C588.704 270.462 590.342 270.003 592.213 270.003C593.292 270.003 594.358 270.183 595.411 270.543C596.464 270.902 597.422 271.487 598.285 272.297C599.149 273.098 599.837 274.159 600.35 275.482C600.863 276.804 601.119 278.432 601.119 280.366V281.716H585.142V278.963H597.881C597.881 277.794 597.647 276.75 597.179 275.832C596.72 274.915 596.063 274.191 595.209 273.66C594.363 273.129 593.364 272.864 592.213 272.864C590.944 272.864 589.847 273.179 588.92 273.808C588.003 274.429 587.296 275.239 586.802 276.237C586.307 277.236 586.059 278.306 586.059 279.449V281.284C586.059 282.849 586.329 284.176 586.869 285.265C587.418 286.344 588.178 287.168 589.15 287.734C590.121 288.292 591.25 288.571 592.537 288.571C593.373 288.571 594.129 288.454 594.804 288.22C595.488 287.977 596.077 287.617 596.572 287.141C597.066 286.655 597.449 286.052 597.719 285.332L600.795 286.196C600.471 287.24 599.927 288.157 599.162 288.949C598.398 289.732 597.453 290.343 596.329 290.784C595.204 291.216 593.94 291.432 592.537 291.432ZM605.964 291V270.273H609.04V273.403H609.256C609.634 272.378 610.318 271.546 611.307 270.907C612.297 270.268 613.412 269.949 614.654 269.949C614.888 269.949 615.18 269.953 615.531 269.962C615.882 269.971 616.147 269.985 616.327 270.003V273.241C616.219 273.214 615.972 273.174 615.585 273.12C615.207 273.057 614.807 273.026 614.384 273.026C613.376 273.026 612.477 273.237 611.685 273.66C610.903 274.074 610.282 274.649 609.823 275.387C609.373 276.116 609.148 276.948 609.148 277.884V291H605.964ZM653.46 272H650.114C649.916 271.037 649.569 270.192 649.075 269.463C648.589 268.734 647.995 268.123 647.293 267.628C646.601 267.124 645.831 266.746 644.986 266.494C644.14 266.242 643.259 266.116 642.341 266.116C640.668 266.116 639.152 266.539 637.793 267.385C636.444 268.231 635.369 269.477 634.568 271.123C633.777 272.769 633.381 274.789 633.381 277.182C633.381 279.575 633.777 281.594 634.568 283.241C635.369 284.887 636.444 286.133 637.793 286.979C639.152 287.824 640.668 288.247 642.341 288.247C643.259 288.247 644.14 288.121 644.986 287.869C645.831 287.617 646.601 287.244 647.293 286.749C647.995 286.246 648.589 285.629 649.075 284.901C649.569 284.163 649.916 283.317 650.114 282.364H653.46C653.208 283.776 652.75 285.04 652.084 286.156C651.418 287.271 650.59 288.22 649.601 289.003C648.611 289.777 647.5 290.366 646.268 290.771C645.044 291.175 643.735 291.378 642.341 291.378C639.984 291.378 637.888 290.802 636.053 289.651C634.217 288.499 632.773 286.862 631.721 284.739C630.668 282.616 630.142 280.097 630.142 277.182C630.142 274.267 630.668 271.748 631.721 269.625C632.773 267.502 634.217 265.865 636.053 264.713C637.888 263.562 639.984 262.986 642.341 262.986C643.735 262.986 645.044 263.188 646.268 263.593C647.5 263.998 648.611 264.592 649.601 265.374C650.59 266.148 651.418 267.093 652.084 268.208C652.75 269.315 653.208 270.579 653.46 272ZM661.621 263.364V291H658.436V263.364H661.621ZM673.553 291.486C672.24 291.486 671.048 291.238 669.977 290.744C668.907 290.24 668.057 289.516 667.427 288.571C666.797 287.617 666.482 286.466 666.482 285.116C666.482 283.929 666.716 282.966 667.184 282.229C667.652 281.482 668.277 280.897 669.06 280.474C669.842 280.052 670.706 279.737 671.651 279.53C672.604 279.314 673.562 279.143 674.525 279.017C675.784 278.855 676.805 278.734 677.588 278.653C678.38 278.563 678.955 278.414 679.315 278.207C679.684 278 679.869 277.641 679.869 277.128V277.02C679.869 275.688 679.504 274.654 678.776 273.916C678.056 273.179 676.963 272.81 675.496 272.81C673.976 272.81 672.784 273.143 671.92 273.808C671.057 274.474 670.45 275.185 670.099 275.94L667.076 274.861C667.616 273.601 668.335 272.621 669.235 271.919C670.144 271.208 671.133 270.714 672.204 270.435C673.283 270.147 674.345 270.003 675.388 270.003C676.054 270.003 676.819 270.084 677.683 270.246C678.555 270.399 679.396 270.718 680.206 271.204C681.025 271.69 681.704 272.423 682.244 273.403C682.783 274.384 683.053 275.697 683.053 277.344V291H679.869V288.193H679.707C679.491 288.643 679.131 289.124 678.627 289.637C678.123 290.15 677.453 290.586 676.616 290.946C675.78 291.306 674.759 291.486 673.553 291.486ZM674.039 288.625C675.299 288.625 676.36 288.378 677.224 287.883C678.096 287.388 678.753 286.749 679.194 285.967C679.644 285.184 679.869 284.361 679.869 283.497V280.582C679.734 280.744 679.437 280.893 678.978 281.028C678.528 281.154 678.006 281.266 677.413 281.365C676.828 281.455 676.257 281.536 675.699 281.608C675.15 281.671 674.705 281.725 674.363 281.77C673.535 281.878 672.762 282.053 672.042 282.296C671.331 282.53 670.755 282.885 670.315 283.362C669.883 283.83 669.667 284.469 669.667 285.278C669.667 286.385 670.076 287.222 670.895 287.788C671.723 288.346 672.771 288.625 674.039 288.625ZM688.866 291V270.273H692.051V291H688.866ZM690.485 266.818C689.865 266.818 689.329 266.607 688.879 266.184C688.439 265.761 688.218 265.253 688.218 264.659C688.218 264.065 688.439 263.557 688.879 263.134C689.329 262.711 689.865 262.5 690.485 262.5C691.106 262.5 691.637 262.711 692.078 263.134C692.527 263.557 692.752 264.065 692.752 264.659C692.752 265.253 692.527 265.761 692.078 266.184C691.637 266.607 691.106 266.818 690.485 266.818ZM697.884 291V270.273H700.96V273.511H701.23C701.662 272.405 702.359 271.546 703.322 270.934C704.284 270.313 705.44 270.003 706.79 270.003C708.157 270.003 709.295 270.313 710.204 270.934C711.121 271.546 711.837 272.405 712.349 273.511H712.565C713.096 272.441 713.892 271.591 714.954 270.961C716.015 270.322 717.288 270.003 718.773 270.003C720.626 270.003 722.142 270.583 723.32 271.744C724.499 272.895 725.088 274.69 725.088 277.128V291H721.903V277.128C721.903 275.598 721.485 274.505 720.648 273.849C719.812 273.192 718.827 272.864 717.693 272.864C716.236 272.864 715.107 273.304 714.306 274.186C713.505 275.059 713.105 276.165 713.105 277.506V291H709.866V276.804C709.866 275.625 709.484 274.676 708.719 273.957C707.955 273.228 706.97 272.864 705.764 272.864C704.937 272.864 704.163 273.084 703.443 273.525C702.732 273.966 702.157 274.577 701.716 275.36C701.284 276.134 701.068 277.029 701.068 278.045V291H697.884ZM745.593 274.915L742.732 275.724C742.552 275.248 742.287 274.784 741.936 274.335C741.594 273.876 741.126 273.498 740.532 273.201C739.939 272.904 739.178 272.756 738.252 272.756C736.983 272.756 735.926 273.048 735.081 273.633C734.244 274.209 733.826 274.942 733.826 275.832C733.826 276.624 734.114 277.249 734.689 277.708C735.265 278.167 736.165 278.549 737.388 278.855L740.465 279.611C742.318 280.061 743.699 280.749 744.608 281.675C745.516 282.593 745.971 283.776 745.971 285.224C745.971 286.412 745.629 287.473 744.945 288.409C744.27 289.345 743.326 290.082 742.111 290.622C740.897 291.162 739.484 291.432 737.874 291.432C735.76 291.432 734.01 290.973 732.625 290.055C731.239 289.138 730.362 287.797 729.993 286.034L733.016 285.278C733.304 286.394 733.848 287.231 734.649 287.788C735.458 288.346 736.516 288.625 737.82 288.625C739.304 288.625 740.483 288.31 741.355 287.68C742.237 287.042 742.678 286.277 742.678 285.386C742.678 284.667 742.426 284.064 741.922 283.578C741.418 283.083 740.645 282.714 739.601 282.472L736.147 281.662C734.248 281.212 732.854 280.515 731.963 279.57C731.082 278.617 730.641 277.425 730.641 275.994C730.641 274.825 730.969 273.79 731.626 272.891C732.292 271.991 733.196 271.285 734.338 270.772C735.49 270.259 736.794 270.003 738.252 270.003C740.303 270.003 741.913 270.453 743.083 271.352C744.261 272.252 745.098 273.439 745.593 274.915ZM753.085 291.216C752.42 291.216 751.848 290.978 751.372 290.501C750.895 290.024 750.656 289.453 750.656 288.787C750.656 288.121 750.895 287.55 751.372 287.073C751.848 286.596 752.42 286.358 753.085 286.358C753.751 286.358 754.322 286.596 754.799 287.073C755.276 287.55 755.514 288.121 755.514 288.787C755.514 289.228 755.402 289.633 755.177 290.001C754.961 290.37 754.669 290.667 754.3 290.892C753.94 291.108 753.535 291.216 753.085 291.216ZM772.349 291V263.364H788.92V266.332H775.695V275.67H787.678V278.639H775.695V291H772.349ZM800.319 291.486C799.005 291.486 797.813 291.238 796.743 290.744C795.672 290.24 794.822 289.516 794.192 288.571C793.563 287.617 793.248 286.466 793.248 285.116C793.248 283.929 793.482 282.966 793.95 282.229C794.417 281.482 795.043 280.897 795.825 280.474C796.608 280.052 797.472 279.737 798.416 279.53C799.37 279.314 800.328 279.143 801.29 279.017C802.55 278.855 803.571 278.734 804.354 278.653C805.145 278.563 805.721 278.414 806.081 278.207C806.45 278 806.634 277.641 806.634 277.128V277.02C806.634 275.688 806.27 274.654 805.541 273.916C804.821 273.179 803.728 272.81 802.262 272.81C800.742 272.81 799.55 273.143 798.686 273.808C797.822 274.474 797.215 275.185 796.864 275.94L793.842 274.861C794.381 273.601 795.101 272.621 796.001 271.919C796.909 271.208 797.899 270.714 798.969 270.435C800.049 270.147 801.111 270.003 802.154 270.003C802.82 270.003 803.585 270.084 804.448 270.246C805.321 270.399 806.162 270.718 806.972 271.204C807.79 271.69 808.469 272.423 809.009 273.403C809.549 274.384 809.819 275.697 809.819 277.344V291H806.634V288.193H806.472C806.256 288.643 805.897 289.124 805.393 289.637C804.889 290.15 804.219 290.586 803.382 290.946C802.545 291.306 801.524 291.486 800.319 291.486ZM800.805 288.625C802.064 288.625 803.126 288.378 803.989 287.883C804.862 287.388 805.519 286.749 805.96 285.967C806.409 285.184 806.634 284.361 806.634 283.497V280.582C806.499 280.744 806.202 280.893 805.744 281.028C805.294 281.154 804.772 281.266 804.178 281.365C803.594 281.455 803.022 281.536 802.464 281.608C801.916 281.671 801.47 281.725 801.129 281.77C800.301 281.878 799.527 282.053 798.808 282.296C798.097 282.53 797.521 282.885 797.08 283.362C796.648 283.83 796.433 284.469 796.433 285.278C796.433 286.385 796.842 287.222 797.661 287.788C798.488 288.346 799.536 288.625 800.805 288.625ZM830.313 274.915L827.453 275.724C827.273 275.248 827.007 274.784 826.656 274.335C826.315 273.876 825.847 273.498 825.253 273.201C824.659 272.904 823.899 272.756 822.972 272.756C821.704 272.756 820.647 273.048 819.801 273.633C818.965 274.209 818.546 274.942 818.546 275.832C818.546 276.624 818.834 277.249 819.41 277.708C819.986 278.167 820.885 278.549 822.109 278.855L825.186 279.611C827.039 280.061 828.42 280.749 829.328 281.675C830.237 282.593 830.691 283.776 830.691 285.224C830.691 286.412 830.349 287.473 829.666 288.409C828.991 289.345 828.046 290.082 826.832 290.622C825.617 291.162 824.205 291.432 822.595 291.432C820.481 291.432 818.731 290.973 817.345 290.055C815.96 289.138 815.083 287.797 814.714 286.034L817.737 285.278C818.025 286.394 818.569 287.231 819.369 287.788C820.179 288.346 821.236 288.625 822.541 288.625C824.025 288.625 825.204 288.31 826.076 287.68C826.958 287.042 827.399 286.277 827.399 285.386C827.399 284.667 827.147 284.064 826.643 283.578C826.139 283.083 825.365 282.714 824.322 282.472L820.867 281.662C818.969 281.212 817.575 280.515 816.684 279.57C815.802 278.617 815.362 277.425 815.362 275.994C815.362 274.825 815.69 273.79 816.347 272.891C817.012 271.991 817.917 271.285 819.059 270.772C820.211 270.259 821.515 270.003 822.972 270.003C825.024 270.003 826.634 270.453 827.803 271.352C828.982 272.252 829.819 273.439 830.313 274.915ZM844.499 270.273V272.972H833.758V270.273H844.499ZM836.888 265.307H840.073V285.062C840.073 285.962 840.204 286.637 840.464 287.087C840.734 287.527 841.076 287.824 841.49 287.977C841.913 288.121 842.358 288.193 842.826 288.193C843.177 288.193 843.465 288.175 843.69 288.139C843.915 288.094 844.094 288.058 844.229 288.031L844.877 290.892C844.661 290.973 844.36 291.054 843.973 291.135C843.586 291.225 843.096 291.27 842.502 291.27C841.603 291.27 840.721 291.076 839.857 290.69C839.003 290.303 838.292 289.714 837.725 288.922C837.167 288.13 836.888 287.132 836.888 285.926V265.307ZM857.757 291.432C855.76 291.432 854.038 290.991 852.589 290.109C851.15 289.219 850.039 287.977 849.256 286.385C848.482 284.784 848.096 282.921 848.096 280.798C848.096 278.675 848.482 276.804 849.256 275.185C850.039 273.556 851.127 272.288 852.522 271.379C853.925 270.462 855.562 270.003 857.434 270.003C858.513 270.003 859.579 270.183 860.632 270.543C861.684 270.902 862.642 271.487 863.506 272.297C864.37 273.098 865.058 274.159 865.571 275.482C866.083 276.804 866.34 278.432 866.34 280.366V281.716H850.363V278.963H863.101C863.101 277.794 862.867 276.75 862.4 275.832C861.941 274.915 861.284 274.191 860.429 273.66C859.584 273.129 858.585 272.864 857.434 272.864C856.165 272.864 855.068 273.179 854.141 273.808C853.223 274.429 852.517 275.239 852.022 276.237C851.528 277.236 851.28 278.306 851.28 279.449V281.284C851.28 282.849 851.55 284.176 852.09 285.265C852.639 286.344 853.399 287.168 854.37 287.734C855.342 288.292 856.471 288.571 857.757 288.571C858.594 288.571 859.35 288.454 860.025 288.22C860.708 287.977 861.297 287.617 861.792 287.141C862.287 286.655 862.669 286.052 862.939 285.332L866.016 286.196C865.692 287.24 865.148 288.157 864.383 288.949C863.618 289.732 862.674 290.343 861.549 290.784C860.425 291.216 859.161 291.432 857.757 291.432ZM871.184 291V270.273H874.261V273.403H874.477C874.855 272.378 875.538 271.546 876.528 270.907C877.518 270.268 878.633 269.949 879.875 269.949C880.109 269.949 880.401 269.953 880.752 269.962C881.103 269.971 881.368 269.985 881.548 270.003V273.241C881.44 273.214 881.193 273.174 880.806 273.12C880.428 273.057 880.028 273.026 879.605 273.026C878.597 273.026 877.698 273.237 876.906 273.66C876.123 274.074 875.502 274.649 875.044 275.387C874.594 276.116 874.369 276.948 874.369 277.884V291H871.184ZM911.556 270.273C911.394 268.905 910.737 267.844 909.586 267.088C908.434 266.332 907.022 265.955 905.349 265.955C904.125 265.955 903.055 266.152 902.137 266.548C901.228 266.944 900.518 267.488 900.005 268.181C899.501 268.874 899.249 269.661 899.249 270.543C899.249 271.28 899.425 271.915 899.775 272.445C900.135 272.967 900.594 273.403 901.152 273.754C901.71 274.096 902.294 274.379 902.906 274.604C903.518 274.82 904.08 274.996 904.593 275.131L907.4 275.886C908.119 276.075 908.92 276.336 909.802 276.669C910.692 277.002 911.542 277.456 912.352 278.032C913.171 278.599 913.845 279.327 914.376 280.218C914.907 281.109 915.172 282.202 915.172 283.497C915.172 284.991 914.781 286.34 913.998 287.545C913.225 288.751 912.091 289.709 910.598 290.42C909.113 291.13 907.31 291.486 905.187 291.486C903.207 291.486 901.494 291.166 900.045 290.528C898.606 289.889 897.472 288.998 896.645 287.856C895.826 286.713 895.363 285.386 895.255 283.875H898.709C898.799 284.919 899.15 285.782 899.762 286.466C900.383 287.141 901.165 287.644 902.11 287.977C903.064 288.301 904.089 288.463 905.187 288.463C906.464 288.463 907.611 288.256 908.628 287.842C909.644 287.42 910.449 286.835 911.043 286.088C911.637 285.332 911.934 284.451 911.934 283.443C911.934 282.526 911.677 281.779 911.165 281.203C910.652 280.627 909.977 280.16 909.14 279.8C908.304 279.44 907.4 279.125 906.428 278.855L903.028 277.884C900.868 277.263 899.159 276.377 897.9 275.225C896.64 274.074 896.01 272.567 896.01 270.705C896.01 269.157 896.429 267.808 897.265 266.656C898.111 265.496 899.245 264.596 900.666 263.957C902.096 263.31 903.693 262.986 905.456 262.986C907.238 262.986 908.821 263.305 910.206 263.944C911.592 264.574 912.689 265.437 913.499 266.535C914.318 267.632 914.75 268.878 914.795 270.273H911.556ZM928.933 291.432C926.936 291.432 925.213 290.991 923.765 290.109C922.326 289.219 921.214 287.977 920.432 286.385C919.658 284.784 919.271 282.921 919.271 280.798C919.271 278.675 919.658 276.804 920.432 275.185C921.214 273.556 922.303 272.288 923.697 271.379C925.101 270.462 926.738 270.003 928.609 270.003C929.689 270.003 930.755 270.183 931.808 270.543C932.86 270.902 933.818 271.487 934.682 272.297C935.545 273.098 936.234 274.159 936.746 275.482C937.259 276.804 937.516 278.432 937.516 280.366V281.716H921.538V278.963H934.277C934.277 277.794 934.043 276.75 933.575 275.832C933.116 274.915 932.46 274.191 931.605 273.66C930.759 273.129 929.761 272.864 928.609 272.864C927.341 272.864 926.243 273.179 925.317 273.808C924.399 274.429 923.693 275.239 923.198 276.237C922.703 277.236 922.456 278.306 922.456 279.449V281.284C922.456 282.849 922.726 284.176 923.266 285.265C923.814 286.344 924.575 287.168 925.546 287.734C926.518 288.292 927.647 288.571 928.933 288.571C929.77 288.571 930.526 288.454 931.2 288.22C931.884 287.977 932.473 287.617 932.968 287.141C933.463 286.655 933.845 286.052 934.115 285.332L937.192 286.196C936.868 287.24 936.324 288.157 935.559 288.949C934.794 289.732 933.85 290.343 932.725 290.784C931.601 291.216 930.337 291.432 928.933 291.432ZM951.374 270.273V272.972H940.633V270.273H951.374ZM943.763 265.307H946.948V285.062C946.948 285.962 947.079 286.637 947.339 287.087C947.609 287.527 947.951 287.824 948.365 287.977C948.788 288.121 949.233 288.193 949.701 288.193C950.052 288.193 950.34 288.175 950.565 288.139C950.79 288.094 950.969 288.058 951.104 288.031L951.752 290.892C951.536 290.973 951.235 291.054 950.848 291.135C950.461 291.225 949.971 291.27 949.377 291.27C948.478 291.27 947.596 291.076 946.732 290.69C945.878 290.303 945.167 289.714 944.6 288.922C944.042 288.13 943.763 287.132 943.763 285.926V265.307ZM965.179 270.273V272.972H954.438V270.273H965.179ZM957.568 265.307H960.753V285.062C960.753 285.962 960.883 286.637 961.144 287.087C961.414 287.527 961.756 287.824 962.17 287.977C962.593 288.121 963.038 288.193 963.506 288.193C963.857 288.193 964.144 288.175 964.369 288.139C964.594 288.094 964.774 288.058 964.909 288.031L965.557 290.892C965.341 290.973 965.04 291.054 964.653 291.135C964.266 291.225 963.776 291.27 963.182 291.27C962.282 291.27 961.401 291.076 960.537 290.69C959.682 290.303 958.972 289.714 958.405 288.922C957.847 288.13 957.568 287.132 957.568 285.926V265.307ZM973.599 263.364V291H970.415V263.364H973.599ZM988.123 291.432C986.126 291.432 984.403 290.991 982.954 290.109C981.515 289.219 980.404 287.977 979.621 286.385C978.848 284.784 978.461 282.921 978.461 280.798C978.461 278.675 978.848 276.804 979.621 275.185C980.404 273.556 981.492 272.288 982.887 271.379C984.29 270.462 985.928 270.003 987.799 270.003C988.878 270.003 989.944 270.183 990.997 270.543C992.05 270.902 993.008 271.487 993.871 272.297C994.735 273.098 995.423 274.159 995.936 275.482C996.449 276.804 996.705 278.432 996.705 280.366V281.716H980.728V278.963H993.466C993.466 277.794 993.233 276.75 992.765 275.832C992.306 274.915 991.649 274.191 990.795 273.66C989.949 273.129 988.95 272.864 987.799 272.864C986.53 272.864 985.433 273.179 984.506 273.808C983.589 274.429 982.882 275.239 982.388 276.237C981.893 277.236 981.645 278.306 981.645 279.449V281.284C981.645 282.849 981.915 284.176 982.455 285.265C983.004 286.344 983.764 287.168 984.736 287.734C985.707 288.292 986.836 288.571 988.123 288.571C988.959 288.571 989.715 288.454 990.39 288.22C991.073 287.977 991.663 287.617 992.157 287.141C992.652 286.655 993.035 286.052 993.305 285.332L996.381 286.196C996.057 287.24 995.513 288.157 994.748 288.949C993.984 289.732 993.039 290.343 991.915 290.784C990.79 291.216 989.526 291.432 988.123 291.432ZM1001.55 291V270.273H1004.63V273.511H1004.9C1005.33 272.405 1006.03 271.546 1006.99 270.934C1007.95 270.313 1009.11 270.003 1010.46 270.003C1011.82 270.003 1012.96 270.313 1013.87 270.934C1014.79 271.546 1015.5 272.405 1016.02 273.511H1016.23C1016.76 272.441 1017.56 271.591 1018.62 270.961C1019.68 270.322 1020.95 270.003 1022.44 270.003C1024.29 270.003 1025.81 270.583 1026.99 271.744C1028.16 272.895 1028.75 274.69 1028.75 277.128V291H1025.57V277.128C1025.57 275.598 1025.15 274.505 1024.31 273.849C1023.48 273.192 1022.49 272.864 1021.36 272.864C1019.9 272.864 1018.77 273.304 1017.97 274.186C1017.17 275.059 1016.77 276.165 1016.77 277.506V291H1013.53V276.804C1013.53 275.625 1013.15 274.676 1012.39 273.957C1011.62 273.228 1010.64 272.864 1009.43 272.864C1008.6 272.864 1007.83 273.084 1007.11 273.525C1006.4 273.966 1005.82 274.577 1005.38 275.36C1004.95 276.134 1004.73 277.029 1004.73 278.045V291H1001.55ZM1043.27 291.432C1041.27 291.432 1039.55 290.991 1038.1 290.109C1036.66 289.219 1035.55 287.977 1034.77 286.385C1033.99 284.784 1033.61 282.921 1033.61 280.798C1033.61 278.675 1033.99 276.804 1034.77 275.185C1035.55 273.556 1036.64 272.288 1038.03 271.379C1039.43 270.462 1041.07 270.003 1042.94 270.003C1044.02 270.003 1045.09 270.183 1046.14 270.543C1047.19 270.902 1048.15 271.487 1049.02 272.297C1049.88 273.098 1050.57 274.159 1051.08 275.482C1051.59 276.804 1051.85 278.432 1051.85 280.366V281.716H1035.87V278.963H1048.61C1048.61 277.794 1048.38 276.75 1047.91 275.832C1047.45 274.915 1046.79 274.191 1045.94 273.66C1045.09 273.129 1044.09 272.864 1042.94 272.864C1041.67 272.864 1040.58 273.179 1039.65 273.808C1038.73 274.429 1038.03 275.239 1037.53 276.237C1037.04 277.236 1036.79 278.306 1036.79 279.449V281.284C1036.79 282.849 1037.06 284.176 1037.6 285.265C1038.15 286.344 1038.91 287.168 1039.88 287.734C1040.85 288.292 1041.98 288.571 1043.27 288.571C1044.1 288.571 1044.86 288.454 1045.53 288.22C1046.22 287.977 1046.81 287.617 1047.3 287.141C1047.8 286.655 1048.18 286.052 1048.45 285.332L1051.53 286.196C1051.2 287.24 1050.66 288.157 1049.89 288.949C1049.13 289.732 1048.18 290.343 1047.06 290.784C1045.93 291.216 1044.67 291.432 1043.27 291.432ZM1059.88 278.531V291H1056.69V270.273H1059.77V273.511H1060.04C1060.53 272.459 1061.26 271.613 1062.25 270.974C1063.24 270.327 1064.52 270.003 1066.09 270.003C1067.49 270.003 1068.72 270.291 1069.77 270.866C1070.82 271.433 1071.64 272.297 1072.23 273.457C1072.81 274.609 1073.1 276.066 1073.1 277.83V291H1069.92V278.045C1069.92 276.417 1069.5 275.149 1068.65 274.24C1067.8 273.322 1066.64 272.864 1065.17 272.864C1064.15 272.864 1063.24 273.084 1062.44 273.525C1061.65 273.966 1061.03 274.609 1060.57 275.455C1060.11 276.3 1059.88 277.326 1059.88 278.531ZM1087.94 270.273V272.972H1077.2V270.273H1087.94ZM1080.33 265.307H1083.51V285.062C1083.51 285.962 1083.64 286.637 1083.9 287.087C1084.17 287.527 1084.51 287.824 1084.93 287.977C1085.35 288.121 1085.8 288.193 1086.26 288.193C1086.61 288.193 1086.9 288.175 1087.13 288.139C1087.35 288.094 1087.53 288.058 1087.67 288.031L1088.31 290.892C1088.1 290.973 1087.8 291.054 1087.41 291.135C1087.02 291.225 1086.53 291.27 1085.94 291.27C1085.04 291.27 1084.16 291.076 1083.29 290.69C1082.44 290.303 1081.73 289.714 1081.16 288.922C1080.6 288.13 1080.33 287.132 1080.33 285.926V265.307ZM1107.04 274.915L1104.18 275.724C1104 275.248 1103.73 274.784 1103.38 274.335C1103.04 273.876 1102.57 273.498 1101.98 273.201C1101.38 272.904 1100.62 272.756 1099.7 272.756C1098.43 272.756 1097.37 273.048 1096.53 273.633C1095.69 274.209 1095.27 274.942 1095.27 275.832C1095.27 276.624 1095.56 277.249 1096.13 277.708C1096.71 278.167 1097.61 278.549 1098.83 278.855L1101.91 279.611C1103.76 280.061 1105.14 280.749 1106.05 281.675C1106.96 282.593 1107.42 283.776 1107.42 285.224C1107.42 286.412 1107.07 287.473 1106.39 288.409C1105.72 289.345 1104.77 290.082 1103.56 290.622C1102.34 291.162 1100.93 291.432 1099.32 291.432C1097.21 291.432 1095.46 290.973 1094.07 290.055C1092.68 289.138 1091.81 287.797 1091.44 286.034L1094.46 285.278C1094.75 286.394 1095.29 287.231 1096.09 287.788C1096.9 288.346 1097.96 288.625 1099.27 288.625C1100.75 288.625 1101.93 288.31 1102.8 287.68C1103.68 287.042 1104.12 286.277 1104.12 285.386C1104.12 284.667 1103.87 284.064 1103.37 283.578C1102.86 283.083 1102.09 282.714 1101.05 282.472L1097.59 281.662C1095.69 281.212 1094.3 280.515 1093.41 279.57C1092.53 278.617 1092.09 277.425 1092.09 275.994C1092.09 274.825 1092.41 273.79 1093.07 272.891C1093.74 271.991 1094.64 271.285 1095.78 270.772C1096.94 270.259 1098.24 270.003 1099.7 270.003C1101.75 270.003 1103.36 270.453 1104.53 271.352C1105.71 272.252 1106.54 273.439 1107.04 274.915ZM1114.53 291.216C1113.86 291.216 1113.29 290.978 1112.82 290.501C1112.34 290.024 1112.1 289.453 1112.1 288.787C1112.1 288.121 1112.34 287.55 1112.82 287.073C1113.29 286.596 1113.86 286.358 1114.53 286.358C1115.2 286.358 1115.77 286.596 1116.24 287.073C1116.72 287.55 1116.96 288.121 1116.96 288.787C1116.96 289.228 1116.85 289.633 1116.62 290.001C1116.41 290.37 1116.11 290.667 1115.75 290.892C1115.39 291.108 1114.98 291.216 1114.53 291.216Z" fill="#1E3754"/>
<path d="M15.7416 340.195C13.4181 331.851 11.0947 323.508 8.66261 314.392C7.8395 308.113 7.12503 302.606 6.41053 297.099C6.58116 289.478 6.84942 281.857 6.84008 274.236C6.83822 272.71 5.81164 271.172 5.19991 269.664C4.10669 266.967 2.96967 264.288 2.01172 260.902C3.14252 259.119 3.95327 257.344 5.11123 257.077C9.32702 256.108 9.58735 252.838 10.6054 249.561C15.3811 234.19 20.3701 218.884 25.4169 203.599C26.2144 201.183 26.6498 199.426 25.0103 196.908C19.3821 188.264 24.6343 178.807 34.9828 178.022C36.6407 177.897 38.717 176.611 39.6868 175.224C44.2582 168.685 48.102 161.606 52.9756 155.316C60.0521 146.183 67.7898 137.563 75.2456 128.725C77.9009 127.183 79.0217 125.242 78.1853 121.926C77.7764 120.306 78.9542 118.285 79.7409 116.036C80.3111 115.444 80.4484 115.203 80.4798 114.901C81.3482 114.486 82.2166 114.072 83.7274 113.489C86.8914 113.517 90.1056 114.809 91.8191 113.726C101.035 107.902 109.888 101.503 118.826 95.2441C119.444 94.8112 119.677 93.863 120.182 93.2286C129.613 81.3854 138.94 69.4562 148.595 57.7983C150.601 55.3763 151.48 53.7553 150.22 50.5977C148.319 45.8362 150.256 40.4758 154.146 37.4237C158.011 34.3918 163.42 34.0882 167.94 36.69C169.051 37.3296 170.097 38.0833 170.556 38.3827C181.612 32.1331 192.19 26.0433 202.897 20.1904C205.149 18.9596 206.659 18.1046 207.109 15.0853C208.017 8.99286 214.708 6.28512 219.384 10.0681C221.712 11.9515 223.504 11.7201 225.988 11.1293C237.23 8.45498 248.517 5.97282 259.788 3.42143C270.962 3.55194 282.135 3.68245 294.103 3.89188C298.232 4.58813 301.567 5.20548 304.902 5.82284C306.548 6.3411 308.195 6.85936 310.21 7.43473C311.894 6.94137 313.516 6.7082 314.472 5.78544C318.62 1.78416 322.872 0.653097 327.315 2.71046C332.291 5.01451 334.155 9.01303 333.617 15.2093C333.489 16.6849 334.059 18.844 335.112 19.7082C362.889 42.4965 372.559 73.326 374.404 107.656C374.579 110.912 374.447 114.187 374.392 117.452C374.312 122.168 372.99 126.914 379.003 129.924C380.788 130.817 381.5 135.819 381.079 138.7C380.427 143.154 376.824 145.443 372.618 145.632C369.069 157.288 366.074 168.792 362.023 179.91C358.684 189.076 353.941 197.722 350.152 206.738C349.023 209.425 348.56 212.585 348.572 215.525C348.613 226.107 348.988 236.688 349.175 247.981C349.379 249.2 349.644 249.709 349.909 250.217C349.994 250.603 350.079 250.989 350.058 251.958C349.662 252.661 349.359 252.906 349.083 252.88C344.64 252.46 341.411 254.479 341.478 257.946C341.545 261.391 343.719 263.635 346.995 263.48C350.903 263.295 353.136 261.018 352.282 256.615C352.18 256.094 353.393 255.317 353.996 254.659C354.028 254.869 354.06 255.078 354.102 255.837C354.277 256.712 354.542 256.865 354.907 256.845C354.959 257.296 355.01 257.747 354.764 258.632C354.37 259.642 354.274 260.219 354.179 260.796C353.601 264.907 350.548 266.082 347.126 266.164C343.403 266.253 340.451 264.491 339.229 260.762C338.095 257.3 338.797 253.719 341.988 252.149C346.62 249.87 346.843 246.118 346.785 242.04C346.671 233.97 346.41 225.902 346.21 217.832C345.683 217.725 345.157 217.617 344.631 217.51C343.689 218.745 342.646 219.916 341.821 221.224C327.889 243.319 311.134 262.955 292.034 280.82C285.359 287.063 280.771 295.555 275.387 303.132C274.855 303.881 275.539 305.421 275.462 306.581C275.256 309.653 275.994 313.586 274.378 315.542C272.74 317.525 268.746 317.597 265.76 318.417C264.237 318.835 262.082 318.51 261.196 319.448C246.109 335.428 229.534 349.626 211.548 361.345C211.548 364.538 212.118 367.38 211.439 369.882C209.534 376.903 201.094 379.513 194.746 375.021C192.459 373.403 190.783 373.088 188.19 374.179C166.235 383.413 143.582 389.952 119.677 391.612C118.357 391.704 116.738 392.839 115.926 393.969C111.877 399.598 108.76 400.61 101.809 397.927C98.295 392.292 93.3352 390.494 86.7639 391.133C86.2902 391.157 86.4177 391.064 86.4177 391.064C84.3294 390.37 82.2411 389.677 79.4091 389.086C75.672 388.121 72.6786 387.054 69.4179 385.767C67.014 384.817 64.8773 384.086 62.613 383.259C62.4855 383.162 62.1675 383.2 61.9817 382.843C62.7744 381.913 63.899 380.7 64.7051 380.883C67.6654 381.558 70.5201 382.697 73.7182 383.871C79.7385 385.264 85.4551 386.446 91.5064 387.777C93.5654 387.969 95.2898 388.012 97.3392 387.992C102.853 379.314 108.037 378.296 115.216 384.888C116.149 388.055 117.89 388.946 120.772 388.491C127.264 387.468 133.792 386.676 140.71 385.759C146.691 384.287 152.267 382.846 158.222 381.403C162.344 380.246 166.087 379.089 170.199 377.868C176.027 375.708 181.471 373.575 186.95 371.537C189.443 370.609 190.627 369.413 190.698 366.295C190.883 358.147 199.029 353.388 205.983 357.379C208.843 359.021 210.629 358.709 212.829 356.858C214.436 355.507 216.168 354.305 218.156 352.94C221.207 350.737 223.946 348.631 226.995 346.384C232.592 341.616 237.88 336.989 243.473 332.243C246.907 329.086 250.037 326.048 253.459 322.838C257.453 319.168 261.492 316.25 260.724 309.845C260.231 305.731 263.844 302.808 267.973 302.865C271.365 302.912 272.94 301.375 274.5 299.011C275.929 296.845 277.454 294.744 279.078 292.394C278.799 291.951 278.378 291.727 277.646 291.637C269.069 296.513 260.805 301.257 252.243 306.009C251.036 306.541 250.128 307.064 248.794 307.594C246.904 309.815 245.439 312.029 243.685 314.441C240.677 315.893 237.958 317.147 235.062 318.288C234.884 318.176 234.465 318.22 234.194 318.057C232.115 316.822 230.307 315.75 228.393 314.352C226.375 313.944 224.462 313.862 222.156 313.748C219.41 314.113 217.058 314.511 214.373 314.861C212.955 315.035 211.868 315.255 210.323 315.434C197.169 316.228 184.629 315.268 172.578 311.996C174.24 311.177 175.598 310.506 177.271 310.118C192.312 313.391 207.047 313.684 221.823 310.675C224.679 310.094 226.562 309.315 227.579 305.963C229.39 299.99 237.452 297.342 241.401 301.831C245.328 306.294 248.346 304.36 251.977 302.755C254.811 301.503 257.816 300.438 260.323 298.685C269.767 292.08 280.662 286.624 287.975 278.124C297.716 266.803 302.947 252.256 307.456 237.844C308.189 235.501 307.982 233.87 305.798 231.955C300.006 226.878 301.605 218.757 308.677 215.65C309.977 215.079 311.343 214.66 312.702 214.162C316.987 186.457 312.043 160.375 300.924 135.221C300.67 134.646 299.752 134.364 299.13 133.601C298.491 132.248 297.866 131.24 297.071 130.023C296.331 129.126 295.763 128.438 295.312 127.452C295.797 125.962 296.167 124.771 296.593 123.932C298.688 126.382 300.578 128.651 302.786 130.549C319.718 145.107 332.176 162.819 340.174 183.63C342.791 190.44 344.929 197.435 347.331 204.477C347.636 204.098 347.966 203.796 348.166 203.424C357.5 186.07 364.157 167.724 368.118 148.44C368.429 146.926 367.157 144.63 365.94 143.34C361.243 138.367 361.688 130.861 367.619 127.984C370.62 126.527 371.428 124.618 371.258 121.917C370.448 109.084 370.584 96.0739 368.395 83.4721C364.292 59.8472 353.693 39.3403 335.031 23.5719C332.744 21.6396 331.035 20.2787 327.501 22.3641C321.235 26.0617 313.385 22.0694 312.154 14.7687C311.608 11.5291 310.209 10.4809 307.451 9.73067C279.641 2.16578 252.473 5.50264 225.67 14.5523C224.339 15.0019 223.034 16.6977 222.492 18.1106C220.498 23.3096 216.176 25.6088 211.228 22.9308C208.065 21.2188 205.693 21.8188 203.084 23.3416C193.931 28.6842 184.772 34.0178 175.702 39.4985C174.505 40.2221 173.81 41.7777 172.882 42.948C174.397 43.8527 175.809 45.2151 177.445 45.5838C185.064 47.3006 193.017 47.9421 200.346 50.4474C216.16 55.8539 230.914 63.4727 243.35 75.2157C243.005 75.8737 242.677 76.2678 242.013 76.5342C229.858 67.6254 217.52 59.5699 203.577 54.7309C193.994 51.405 183.898 49.5553 174.251 47.1017C169.369 58.7217 166.417 60.1081 155.215 57.5104C154.147 57.2627 152.335 57.9832 151.603 58.8643C142.876 69.3703 134.289 79.992 125.472 90.7752C125.238 91.3658 125.197 91.7645 125.156 92.1632C125.734 91.9902 126.312 91.8171 127.229 91.5485C132.98 89.2065 138.311 86.7418 143.814 84.7506C170.675 75.0312 197.888 74.1953 224.955 82.0013C223.826 82.6391 223.125 83.1385 222.009 83.6261C220.628 83.4503 219.653 83.33 218.699 83.1156C185.2 75.5887 153.55 80.8045 123.554 97.0508C121.676 98.0682 119.692 99.7631 118.829 101.636C114.672 110.665 110.914 119.877 106.944 128.993C105.787 131.648 105.974 133.534 108.191 135.88C112.242 140.167 111.521 146.354 106.922 149.593C105.006 150.943 102.588 151.581 100.238 152.614C93.8065 187.858 94.0163 222.937 103.997 257.81C103.18 258.904 102.65 259.832 102.029 260.391C91.3846 225.258 90.9244 190.003 96.6149 154.406C96.8814 152.739 95.9384 150.396 94.7673 149.064C89.536 143.114 91.3583 134.763 98.7556 133.282C102.119 132.609 103.346 131.032 104.041 128.092C104.526 126.043 105.377 124.066 106.2 122.115C108.946 115.601 111.753 109.113 115.137 101.213C107.935 106.296 101.833 110.361 96.0595 114.847C94.6325 115.956 93.6677 118.392 93.532 120.292C93.1433 125.733 89.6227 128.784 84.1626 128.577C82.1218 128.5 79.3336 129.368 78.0606 130.828C69.1688 141.03 60.3694 151.33 51.9916 161.955C47.6793 167.424 44.2936 173.623 40.587 179.342C47.4738 187.75 47.5582 190.918 41.2076 200.002C44.2394 204.242 46.8812 209.076 50.5708 212.898C65.8584 228.736 81.4458 244.285 96.9788 259.885C98.419 261.331 100.253 262.386 101.915 263.988C101.51 265.165 101.094 265.976 100.382 266.669C78.1599 246.077 54.9745 226.798 38.6964 201.846C30.3519 199.219 27.6558 204.148 25.7706 210.382C21.6205 224.103 17.2602 237.764 13.3387 251.55C12.8238 253.36 13.8257 256.191 15.0817 257.804C18.7534 262.519 17.9584 267.624 12.7786 270.588C11.5886 271.269 10.0415 272.626 9.96418 273.761C8.23001 299.207 10.623 323.973 22.6713 347.048C23.7404 349.096 24.6535 351.226 25.8749 353.818C20.4189 353.78 20.5439 349.347 18.5678 346.712C17.6691 344.309 16.7054 342.252 15.7416 340.195ZM307.181 138.929C306.813 138.792 306.445 138.656 306.077 138.519C306.197 139.206 306.317 139.893 306.573 141.291C315.499 164.188 319.538 187.712 315.907 212.279C315.721 213.539 316.487 215.475 317.474 216.276C320.921 219.072 322.99 222.327 322.102 226.849C321.214 231.377 318.169 233.677 313.785 234.774C312.565 235.08 311.226 236.509 310.702 237.744C306.443 247.792 302.365 257.916 297.822 268.367C297.762 268.737 297.701 269.106 297.641 269.476C298.219 269.321 298.797 269.166 299.947 268.695C316.948 252.451 330.863 233.797 342.699 213.564C343.821 211.646 344.454 208.818 343.999 206.695C338.433 180.723 326.974 157.879 307.181 138.929ZM169.588 42.0326C168.974 41.2757 168.472 40.3772 167.727 39.7857C164.068 36.8831 160.184 36.9192 156.423 39.4588C152.677 41.9885 151.645 46.827 153.589 51.2791C155.475 55.5979 159.007 56.7829 163.236 55.9954C167.802 55.1453 170.244 52.0179 170.65 47.4858C170.79 45.9333 170.206 44.316 169.588 42.0326ZM39.9592 196.364C43.0546 193.525 44.3974 189.901 42.2269 186.305C40.8955 184.1 38.2015 181.977 35.7345 181.362C31.5053 180.309 28.2125 182.661 26.3525 186.637C24.6294 190.321 25.3297 193.766 28.2058 196.462C31.6854 199.724 35.5645 199.314 39.9592 196.364ZM316.597 18.1649C320.029 21.4125 324.242 22.1847 327.61 19.1366C329.606 17.3295 330.943 13.4543 330.634 10.7294C330.07 5.76111 324.863 3.47053 320.087 5.03321C316.033 6.35986 312.448 12.2699 316.597 18.1649ZM199.023 358.857C195.002 360.083 192.808 363.179 193.572 366.945C194.102 369.557 196.355 373.073 198.58 373.752C201.068 374.51 205.152 373.325 207.117 371.474C208.712 369.97 209.151 365.934 208.404 363.554C207.265 359.928 203.914 358.141 199.023 358.857ZM315.938 231.187C319.927 227.766 320.861 223.943 318.231 220.701C315.664 217.538 312.335 216.573 308.687 218.751C305.545 220.627 304.117 223.524 305.66 227.073C307.479 231.257 310.806 232.715 315.938 231.187ZM105.104 136.421C102.38 136.531 99.2545 135.874 97.0707 137.017C95.59 137.791 94.3758 141.439 94.9464 143.177C95.6711 145.383 98.0762 147.977 100.219 148.495C102.089 148.948 105.221 147.297 106.687 145.611C109.104 142.831 108.249 139.573 105.104 136.421ZM374.466 129.594C373.336 129.537 371.809 128.986 371.15 129.515C369.151 131.121 366.215 133.028 366.032 135.036C365.824 137.316 367.635 140.829 369.616 141.944C371.34 142.915 375.568 142.132 376.792 140.604C378.247 138.789 377.929 135.34 377.834 132.618C377.802 131.692 376.115 130.824 374.466 129.594ZM112.097 385.558C107.804 382.569 104.257 382.647 101.883 385.888C99.7898 388.748 99.8529 391.717 102.202 394.339C104.679 397.103 107.83 397.718 110.938 395.559C114.474 393.103 114.711 389.768 112.097 385.558ZM231.029 304.96C228.835 309.775 229.871 313.34 233.933 314.948C237.222 316.249 241.363 314.714 242.086 311.155C242.519 309.023 241.771 305.897 240.341 304.308C237.848 301.537 234.483 302.258 231.029 304.96ZM263.226 312.693C265.348 313.76 267.417 315.457 269.614 315.644C270.817 315.747 272.932 313.516 273.417 311.958C274.438 308.678 272.915 306.194 269.365 305.476C265.636 304.722 263.42 307.033 263.226 312.693ZM12.8676 267.261C15.4968 264.354 15.8503 261.161 12.3119 259.184C10.7289 258.3 7.39182 258.785 5.95169 259.978C4.80073 260.931 4.52197 264.26 5.26821 265.887C6.54813 268.677 9.32714 269.318 12.8676 267.261ZM90.6912 119.537C88.1654 115.372 84.701 114.25 82.4057 117.227C81.3396 118.61 80.7472 121.378 81.431 122.802C82.1151 124.228 85.2172 125.931 86.2662 125.431C88.1918 124.512 89.3879 122.064 90.6912 119.537ZM210.156 13.9627C210.773 16.0802 210.951 18.5239 212.184 20.1832C212.841 21.0666 215.882 21.3125 216.85 20.5614C218.268 19.4605 219.298 17.2657 219.511 15.4236C219.641 14.296 217.979 11.959 217.039 11.9142C214.918 11.8133 212.745 12.7989 210.156 13.9627Z" fill="#00928F"/>
<path d="M101.914 263.988C101.927 262.902 101.95 262.183 102.046 261.112C102.649 259.832 103.18 258.904 103.996 257.81C106.509 262.143 108.736 266.643 111.317 271.331C111.31 272.701 110.948 273.882 110.086 275.057C108.753 274.124 107.92 273.198 107.086 272.271C105.391 270.687 103.695 269.104 101.6 267.58C100.973 267.538 100.831 267.365 100.726 266.954C101.094 265.976 101.509 265.165 101.914 263.988Z" fill="#00928F"/>
<path d="M224.954 82.0012C228.511 82.934 231.639 84.0054 235.086 85.2499C234.904 86.005 234.403 86.587 233.607 87.2303C229.882 86.1939 226.451 85.0962 222.722 83.8181C223.124 83.1384 223.825 82.639 224.954 82.0012Z" fill="#00928F"/>
<path d="M36.7026 289.793C38.7889 286.023 41.9385 284.79 44.8609 287.156C46.4607 288.452 47.4374 292.004 46.9124 294.09C46.1085 297.285 42.5658 298.553 39.8883 296.762C38.0998 295.566 37.6168 292.418 36.7026 289.793Z" fill="#00928F"/>
<path d="M101.232 294.189C101.376 294.683 101.344 295.062 101.312 295.441C100.975 295.268 100.639 295.095 100.33 294.718C100.527 294.267 100.76 294.121 101.232 294.189Z" fill="#00928F"/>
<path d="M331.948 99.6625C328.467 101.587 325.313 101.29 323.692 98.1026C322.779 96.3067 322.739 93.0205 323.837 91.5416C324.934 90.0627 328.084 89.1492 330.079 89.489C334.493 90.2414 335.334 94.9162 331.948 99.6625Z" fill="#00928F"/>
<path d="M143.126 132.462C146.443 130.094 149.588 130.447 151.491 133.315C152.575 134.947 152.948 138.475 151.916 139.727C150.623 141.294 147.433 142.267 145.288 141.953C141.316 141.37 140.416 137.107 143.126 132.462Z" fill="#00928F"/>
<path d="M174.873 105.792C170.37 103.09 168.956 99.8125 171.445 97.1465C172.838 95.6541 176.269 94.1426 177.491 94.8549C179.403 95.9693 181.169 98.9149 181.279 101.169C181.444 104.538 178.751 106.168 174.873 105.792Z" fill="#00928F"/>
<path d="M135.131 331.434C135.839 333.243 136.546 335.051 137.466 337.506C138.359 340.05 139.039 341.948 139.72 343.847C139.798 344.753 139.876 345.658 140.044 347.608C136.622 343.106 133.792 339.381 130.522 335.235C125.769 332.209 121.457 329.606 116.966 326.869C116.525 326.822 116.262 326.907 116 326.992C116.201 327.164 116.403 327.336 116.592 327.865C117.797 331.266 119.015 334.31 120.232 337.354C119.891 342.11 119.551 346.867 119.211 351.623C118.697 351.614 118.184 351.606 117.671 351.597C117.527 349.971 117.383 348.345 117.134 345.998C115.968 342.261 114.907 339.244 113.846 336.228C111 333.549 108.155 330.87 104.744 327.885C102.042 326.017 100.062 325.823 98.3853 328.248C91.4937 332.856 84.6021 337.464 77.1802 342.416C75.7126 343.446 74.7754 344.132 73.8382 344.817C66.7274 349.479 59.8405 354.541 52.4364 358.678C46.2904 362.112 39.5355 364.457 32.4836 367.372C31.9169 367.461 31.4719 367.384 31.4719 367.384C29.0121 362.76 32.0968 360.598 35.4101 358.562C46.8087 351.558 58.3448 344.766 69.5707 337.495C76.9566 332.711 83.8886 327.228 91.0458 322.089C93.9728 319.987 94.5689 317.441 93.4825 313.975C90.6531 304.951 86.4964 297.142 76.2602 293.77C83.6143 292.293 87.6521 294.287 94.6625 302.372C96.2761 294.955 91.71 284.281 83.7857 276.945C89.4459 276.581 96.3604 283.684 100.227 294.339C100.639 295.095 100.975 295.268 101.312 295.441C101.344 295.062 101.376 294.683 101.408 294.304C101.354 285.722 101.301 277.14 101.623 268.039C103.695 269.104 105.391 270.688 107.039 272.723C107.713 277.872 108.436 282.571 109.159 287.27C109.692 287.247 110.224 287.225 110.757 287.203C110.497 283.258 110.237 279.312 110.282 275.215C110.948 273.882 111.31 272.701 111.65 271.003C111.73 266.082 111.89 261.678 111.924 257.274C112.103 234.239 120.494 215.04 138.468 200.308C139.219 199.692 140.091 199.224 141.189 198.501C139.032 215.27 140.884 234.665 145.205 241.242C145.205 234.471 145.158 227.798 145.213 221.125C145.372 201.847 150.508 184.477 164.313 170.26C173.402 160.901 182.126 151.188 191.176 141.79C195.672 137.121 200.535 132.806 205.85 127.743C206.686 136.225 207.421 143.67 208.155 151.115C209.186 148.318 209.261 145.572 209.174 142.831C208.632 125.804 213.034 110.65 225.296 98.1708C228.421 94.9898 230.664 90.9415 233.607 87.2304C234.403 86.5871 234.904 86.0051 235.705 85.2831C238.119 82.316 240.233 79.4889 242.348 76.6619C242.676 76.2678 243.005 75.8738 243.674 75.139C256.942 59.9769 269.869 45.1554 283.646 29.36C286.675 33.8491 289.69 37.5967 291.933 41.7598C303.303 62.8632 304.458 85.7103 302.27 108.857C301.793 113.9 298.52 118.679 296.535 123.579C296.166 124.771 295.797 125.962 294.962 127.283C293.526 127.804 292.416 128.009 291.609 128.617C286.502 132.463 281.463 136.398 276.142 140.504C283.986 138.527 291.577 136.485 297.241 130.232C297.866 131.24 298.49 132.248 299.065 134.026C294.602 154.16 287.234 172.359 277.824 189.824C272.348 199.989 264.534 207.52 254.234 212.425C245.281 216.689 236.14 220.559 225.984 225.093C239.608 224.027 251.61 220.392 264.24 216.216C263.368 218.132 262.942 219.326 262.316 220.404C250.371 240.961 236.124 259.736 219.055 276.337C205.078 289.932 188.535 298.44 169.29 301.643C166.033 302.185 162.759 302.629 159.493 303.118C159.555 303.674 159.618 304.231 159.68 304.788C170.679 303.915 181.679 303.041 193.884 302.072C190.177 303.752 187.547 304.931 184.928 306.134C182.265 307.356 179.613 308.601 176.956 309.836C175.598 310.507 174.239 311.177 172.203 311.906C166.916 312.846 162.339 314.015 157.689 314.546C150.293 315.39 142.848 315.81 135.316 316.417C140.922 318.947 146.322 321.576 151.874 323.829C156.656 325.77 161.613 327.282 166.492 328.983C167.059 329.263 167.625 329.544 169.082 330.266C158.722 331.468 149.709 328.869 139.967 326.966C136.521 325.908 133.717 325.022 129.845 323.8C132.096 327.05 133.614 329.242 135.131 331.434ZM253.963 140.781C256.979 133.997 259.994 127.213 263.01 120.429C261.807 120.713 261.301 121.325 260.981 122.022C249.589 146.78 234.067 168.995 217.921 190.731C187.647 231.486 153.266 268.535 115.389 302.349C110.344 306.853 105.663 311.767 100.813 316.491C101.095 316.919 101.376 317.348 101.658 317.776C103.162 317.208 104.921 316.965 106.129 316.019C115.496 308.677 125.048 301.532 133.992 293.697C155.139 275.171 174.208 254.606 192.402 233.185C216.377 204.958 237.659 174.978 253.963 140.781ZM178.149 210.723C178.959 212.317 179.743 213.926 180.588 215.502C181.328 216.882 182.137 218.225 182.916 219.584C183.337 219.346 183.758 219.108 184.179 218.87C182.048 214.4 179.917 209.93 177.786 205.46C177.405 205.622 177.023 205.783 176.642 205.945C177.031 207.332 177.421 208.72 178.149 210.723Z" fill="#13283E"/>
<circle cx="9.80392" cy="263.726" r="9.80392" fill="#00928F"/>
<circle cx="32.353" cy="190.196" r="12.7451" fill="#00928F"/>
<circle cx="100.98" cy="142.157" r="10.7843" fill="#00928F"/>
<circle cx="161.765" cy="47.0588" r="14.7059" fill="#00928F"/>
<circle cx="214.706" cy="15.6863" r="8.82353" fill="#00928F"/>
<circle cx="322.549" cy="12.7451" r="12.7451" fill="#00928F"/>
<circle cx="330.392" cy="95.098" r="7.84314" fill="#00928F"/>
<circle cx="371.568" cy="135.294" r="10.7843" fill="#00928F"/>
<circle cx="347.059" cy="257.843" r="10.7843" fill="#00928F"/>
<circle cx="312.745" cy="225.49" r="10.7843" fill="#00928F"/>
<circle cx="267.647" cy="309.804" r="8.82353" fill="#00928F"/>
<circle cx="236.274" cy="308.824" r="11.7647" fill="#00928F"/>
<circle cx="200.981" cy="366.667" r="11.7647" fill="#00928F"/>
<circle cx="106.863" cy="390.196" r="9.80392" fill="#00928F"/>
<circle cx="85.2942" cy="120.588" r="8.82353" fill="#00928F"/>
<circle cx="147.059" cy="138.235" r="6.86275" fill="#00928F"/>
<circle cx="175.49" cy="100" r="6.86275" fill="#00928F"/>
<circle cx="42.1566" cy="292.157" r="7.84314" fill="#00928F"/>
</svg>
