<svg width="1024" height="1024" viewBox="0 0 1024 1024" fill="none" xmlns="http://www.w3.org/2000/svg">
<path d="M180.182 735V641.909H240.727V656.045H197.045V681.318H237.591V695.455H197.045V720.864H241.091V735H180.182ZM277.295 736.409C272.871 736.409 268.886 735.621 265.341 734.045C261.826 732.439 259.038 730.076 256.977 726.955C254.947 723.833 253.932 719.985 253.932 715.409C253.932 711.47 254.659 708.212 256.114 705.636C257.568 703.061 259.553 701 262.068 699.455C264.583 697.909 267.417 696.742 270.568 695.955C273.75 695.136 277.038 694.545 280.432 694.182C284.523 693.758 287.841 693.379 290.386 693.045C292.932 692.682 294.78 692.136 295.932 691.409C297.114 690.652 297.705 689.485 297.705 687.909V687.636C297.705 684.212 296.689 681.561 294.659 679.682C292.629 677.803 289.705 676.864 285.886 676.864C281.856 676.864 278.659 677.742 276.295 679.5C273.962 681.258 272.386 683.333 271.568 685.727L256.205 683.545C257.417 679.303 259.417 675.758 262.205 672.909C264.992 670.03 268.402 667.879 272.432 666.455C276.462 665 280.917 664.273 285.795 664.273C289.159 664.273 292.508 664.667 295.841 665.455C299.174 666.242 302.22 667.545 304.977 669.364C307.735 671.152 309.947 673.591 311.614 676.682C313.311 679.773 314.159 683.636 314.159 688.273V735H298.341V725.409H297.795C296.795 727.348 295.386 729.167 293.568 730.864C291.78 732.53 289.523 733.879 286.795 734.909C284.098 735.909 280.932 736.409 277.295 736.409ZM281.568 724.318C284.871 724.318 287.735 723.667 290.159 722.364C292.583 721.03 294.447 719.273 295.75 717.091C297.083 714.909 297.75 712.53 297.75 709.955V701.727C297.235 702.152 296.356 702.545 295.114 702.909C293.902 703.273 292.538 703.591 291.023 703.864C289.508 704.136 288.008 704.379 286.523 704.591C285.038 704.803 283.75 704.985 282.659 705.136C280.205 705.47 278.008 706.015 276.068 706.773C274.129 707.53 272.598 708.591 271.477 709.955C270.356 711.288 269.795 713.015 269.795 715.136C269.795 718.167 270.902 720.455 273.114 722C275.326 723.545 278.144 724.318 281.568 724.318ZM385.886 683.636L370.886 685.273C370.462 683.758 369.72 682.333 368.659 681C367.629 679.667 366.235 678.591 364.477 677.773C362.72 676.955 360.568 676.545 358.023 676.545C354.598 676.545 351.72 677.288 349.386 678.773C347.083 680.258 345.947 682.182 345.977 684.545C345.947 686.576 346.689 688.227 348.205 689.5C349.75 690.773 352.295 691.818 355.841 692.636L367.75 695.182C374.356 696.606 379.265 698.864 382.477 701.955C385.72 705.045 387.356 709.091 387.386 714.091C387.356 718.485 386.068 722.364 383.523 725.727C381.008 729.061 377.508 731.667 373.023 733.545C368.538 735.424 363.386 736.364 357.568 736.364C349.023 736.364 342.144 734.576 336.932 731C331.72 727.394 328.614 722.379 327.614 715.955L343.659 714.409C344.386 717.561 345.932 719.939 348.295 721.545C350.659 723.152 353.735 723.955 357.523 723.955C361.432 723.955 364.568 723.152 366.932 721.545C369.326 719.939 370.523 717.955 370.523 715.591C370.523 713.591 369.75 711.939 368.205 710.636C366.689 709.333 364.326 708.333 361.114 707.636L349.205 705.136C342.508 703.742 337.553 701.394 334.341 698.091C331.129 694.758 329.538 690.545 329.568 685.455C329.538 681.152 330.705 677.424 333.068 674.273C335.462 671.091 338.78 668.636 343.023 666.909C347.295 665.152 352.22 664.273 357.795 664.273C365.977 664.273 372.417 666.015 377.114 669.5C381.841 672.985 384.765 677.697 385.886 683.636ZM411.182 761.182C408.939 761.182 406.864 761 404.955 760.636C403.076 760.303 401.576 759.909 400.455 759.455L404.273 746.636C406.667 747.333 408.803 747.667 410.682 747.636C412.561 747.606 414.212 747.015 415.636 745.864C417.091 744.742 418.318 742.864 419.318 740.227L420.727 736.455L395.409 665.182H412.864L428.955 717.909H429.682L445.818 665.182H463.318L435.364 743.455C434.061 747.152 432.333 750.318 430.182 752.955C428.03 755.621 425.394 757.652 422.273 759.045C419.182 760.47 415.485 761.182 411.182 761.182ZM541.864 703.727H557.136L566.182 715.455L572.636 723.091L588.136 743H571.773L561.227 729.636L556.727 723.273L541.864 703.727ZM590.364 688.455C590.364 698.485 588.485 707.076 584.727 714.227C581 721.348 575.909 726.803 569.455 730.591C563.03 734.379 555.742 736.273 547.591 736.273C539.439 736.273 532.136 734.379 525.682 730.591C519.258 726.773 514.167 721.303 510.409 714.182C506.682 707.03 504.818 698.455 504.818 688.455C504.818 678.424 506.682 669.848 510.409 662.727C514.167 655.576 519.258 650.106 525.682 646.318C532.136 642.53 539.439 640.636 547.591 640.636C555.742 640.636 563.03 642.53 569.455 646.318C575.909 650.106 581 655.576 584.727 662.727C588.485 669.848 590.364 678.424 590.364 688.455ZM573.409 688.455C573.409 681.394 572.303 675.439 570.091 670.591C567.909 665.712 564.879 662.03 561 659.545C557.121 657.03 552.652 655.773 547.591 655.773C542.53 655.773 538.061 657.03 534.182 659.545C530.303 662.03 527.258 665.712 525.045 670.591C522.864 675.439 521.773 681.394 521.773 688.455C521.773 695.515 522.864 701.485 525.045 706.364C527.258 711.212 530.303 714.894 534.182 717.409C538.061 719.894 542.53 721.136 547.591 721.136C552.652 721.136 557.121 719.894 561 717.409C564.879 714.894 567.909 711.212 570.091 706.364C572.303 701.485 573.409 695.515 573.409 688.455ZM622.159 641.909V735H605.705V641.909H622.159ZM745.955 735V665.182H761.682V677.045H762.5C763.955 673.045 766.364 669.924 769.727 667.682C773.091 665.409 777.106 664.273 781.773 664.273C786.5 664.273 790.485 665.424 793.727 667.727C797 670 799.303 673.106 800.636 677.045H801.364C802.909 673.167 805.515 670.076 809.182 667.773C812.879 665.439 817.258 664.273 822.318 664.273C828.742 664.273 833.985 666.303 838.045 670.364C842.106 674.424 844.136 680.348 844.136 688.136V735H827.636V690.682C827.636 686.348 826.485 683.182 824.182 681.182C821.879 679.152 819.061 678.136 815.727 678.136C811.758 678.136 808.652 679.379 806.409 681.864C804.197 684.318 803.091 687.515 803.091 691.455V735H786.955V690C786.955 686.394 785.864 683.515 783.682 681.364C781.53 679.212 778.712 678.136 775.227 678.136C772.864 678.136 770.712 678.742 768.773 679.955C766.833 681.136 765.288 682.818 764.136 685C762.985 687.152 762.409 689.667 762.409 692.545V735H745.955Z" fill="#00928F"/>
<path d="M659.17 736.409C654.746 736.409 650.761 735.621 647.216 734.045C643.701 732.439 640.913 730.076 638.852 726.955C636.822 723.833 635.807 719.985 635.807 715.409C635.807 711.47 636.534 708.212 637.989 705.636C639.443 703.061 641.428 701 643.943 699.455C646.458 697.909 649.292 696.742 652.443 695.955C655.625 695.136 658.913 694.545 662.307 694.182C666.398 693.758 669.716 693.379 672.261 693.045C674.807 692.682 676.655 692.136 677.807 691.409C678.989 690.652 679.58 689.485 679.58 687.909V687.636C679.58 684.212 678.564 681.561 676.534 679.682C674.504 677.803 671.58 676.864 667.761 676.864C663.731 676.864 660.534 677.742 658.17 679.5C655.837 681.258 654.261 683.333 653.443 685.727L638.08 683.545C639.292 679.303 641.292 675.758 644.08 672.909C646.867 670.03 650.277 667.879 654.307 666.455C658.337 665 662.792 664.273 667.67 664.273C671.034 664.273 674.383 664.667 677.716 665.455C681.049 666.242 684.095 667.545 686.852 669.364C689.61 671.152 691.822 673.591 693.489 676.682C695.186 679.773 696.034 683.636 696.034 688.273V735H680.216V725.409H679.67C678.67 727.348 677.261 729.167 675.443 730.864C673.655 732.53 671.398 733.879 668.67 734.909C665.973 735.909 662.807 736.409 659.17 736.409ZM663.443 724.318C666.746 724.318 669.61 723.667 672.034 722.364C674.458 721.03 676.322 719.273 677.625 717.091C678.958 714.909 679.625 712.53 679.625 709.955V701.727C679.11 702.152 678.231 702.545 676.989 702.909C675.777 703.273 674.413 703.591 672.898 703.864C671.383 704.136 669.883 704.379 668.398 704.591C666.913 704.803 665.625 704.985 664.534 705.136C662.08 705.47 659.883 706.015 657.943 706.773C656.004 707.53 654.473 708.591 653.352 709.955C652.231 711.288 651.67 713.015 651.67 715.136C651.67 718.167 652.777 720.455 654.989 722C657.201 723.545 660.019 724.318 663.443 724.318ZM712.58 735V665.182H729.034V735H712.58ZM720.852 655.273C718.246 655.273 716.004 654.409 714.125 652.682C712.246 650.924 711.307 648.818 711.307 646.364C711.307 643.879 712.246 641.773 714.125 640.045C716.004 638.288 718.246 637.409 720.852 637.409C723.489 637.409 725.731 638.288 727.58 640.045C729.458 641.773 730.398 643.879 730.398 646.364C730.398 648.818 729.458 650.924 727.58 652.682C725.731 654.409 723.489 655.273 720.852 655.273Z" fill="#13283E"/>
<path d="M210.7 803.273C210.539 801.905 209.882 800.844 208.73 800.088C207.579 799.332 206.166 798.955 204.493 798.955C203.27 798.955 202.199 799.152 201.281 799.548C200.373 799.944 199.662 800.488 199.149 801.181C198.646 801.874 198.394 802.661 198.394 803.543C198.394 804.28 198.569 804.915 198.92 805.445C199.28 805.967 199.739 806.403 200.296 806.754C200.854 807.096 201.439 807.379 202.051 807.604C202.662 807.82 203.225 807.996 203.737 808.131L206.544 808.886C207.264 809.075 208.065 809.336 208.946 809.669C209.837 810.002 210.687 810.456 211.497 811.032C212.315 811.599 212.99 812.327 213.521 813.218C214.052 814.109 214.317 815.202 214.317 816.497C214.317 817.991 213.926 819.34 213.143 820.545C212.369 821.751 211.236 822.709 209.742 823.42C208.258 824.13 206.454 824.486 204.331 824.486C202.352 824.486 200.638 824.166 199.19 823.528C197.75 822.889 196.617 821.998 195.789 820.856C194.971 819.713 194.507 818.386 194.399 816.875H197.854C197.944 817.919 198.295 818.782 198.906 819.466C199.527 820.141 200.31 820.644 201.254 820.977C202.208 821.301 203.234 821.463 204.331 821.463C205.609 821.463 206.756 821.256 207.772 820.842C208.789 820.42 209.594 819.835 210.188 819.088C210.781 818.332 211.078 817.451 211.078 816.443C211.078 815.526 210.822 814.779 210.309 814.203C209.796 813.627 209.122 813.16 208.285 812.8C207.448 812.44 206.544 812.125 205.573 811.855L202.172 810.884C200.013 810.263 198.304 809.377 197.044 808.225C195.785 807.074 195.155 805.567 195.155 803.705C195.155 802.157 195.573 800.808 196.41 799.656C197.256 798.496 198.389 797.596 199.811 796.957C201.241 796.31 202.838 795.986 204.601 795.986C206.382 795.986 207.966 796.305 209.351 796.944C210.736 797.574 211.834 798.437 212.644 799.535C213.462 800.632 213.894 801.878 213.939 803.273H210.7ZM219.387 824V803.273H222.464V806.511H222.734C223.166 805.405 223.863 804.546 224.826 803.934C225.788 803.313 226.944 803.003 228.294 803.003C229.661 803.003 230.799 803.313 231.708 803.934C232.625 804.546 233.341 805.405 233.853 806.511H234.069C234.6 805.441 235.396 804.591 236.458 803.961C237.519 803.322 238.792 803.003 240.277 803.003C242.13 803.003 243.646 803.583 244.824 804.744C246.003 805.895 246.592 807.69 246.592 810.128V824H243.407V810.128C243.407 808.598 242.989 807.505 242.152 806.849C241.316 806.192 240.331 805.864 239.197 805.864C237.74 805.864 236.611 806.304 235.81 807.186C235.009 808.059 234.609 809.165 234.609 810.506V824H231.37V809.804C231.37 808.625 230.988 807.676 230.223 806.957C229.459 806.228 228.474 805.864 227.268 805.864C226.44 805.864 225.667 806.084 224.947 806.525C224.236 806.966 223.661 807.577 223.22 808.36C222.788 809.134 222.572 810.029 222.572 811.045V824H219.387ZM258.514 824.486C257.201 824.486 256.009 824.238 254.938 823.744C253.868 823.24 253.018 822.516 252.388 821.571C251.758 820.617 251.443 819.466 251.443 818.116C251.443 816.929 251.677 815.966 252.145 815.229C252.613 814.482 253.238 813.897 254.021 813.474C254.803 813.052 255.667 812.737 256.612 812.53C257.565 812.314 258.523 812.143 259.486 812.017C260.745 811.855 261.766 811.734 262.549 811.653C263.341 811.563 263.916 811.414 264.276 811.207C264.645 811 264.83 810.641 264.83 810.128V810.02C264.83 808.688 264.465 807.654 263.737 806.916C263.017 806.179 261.924 805.81 260.457 805.81C258.937 805.81 257.745 806.143 256.881 806.808C256.018 807.474 255.411 808.185 255.06 808.94L252.037 807.861C252.577 806.601 253.296 805.621 254.196 804.919C255.105 804.208 256.094 803.714 257.165 803.435C258.244 803.147 259.306 803.003 260.349 803.003C261.015 803.003 261.78 803.084 262.643 803.246C263.516 803.399 264.357 803.718 265.167 804.204C265.986 804.69 266.665 805.423 267.205 806.403C267.744 807.384 268.014 808.697 268.014 810.344V824H264.83V821.193H264.668C264.452 821.643 264.092 822.124 263.588 822.637C263.084 823.15 262.414 823.586 261.577 823.946C260.741 824.306 259.72 824.486 258.514 824.486ZM259 821.625C260.259 821.625 261.321 821.378 262.185 820.883C263.057 820.388 263.714 819.749 264.155 818.967C264.605 818.184 264.83 817.361 264.83 816.497V813.582C264.695 813.744 264.398 813.893 263.939 814.028C263.489 814.154 262.967 814.266 262.374 814.365C261.789 814.455 261.218 814.536 260.66 814.608C260.111 814.671 259.666 814.725 259.324 814.77C258.496 814.878 257.723 815.053 257.003 815.296C256.292 815.53 255.716 815.885 255.276 816.362C254.844 816.83 254.628 817.469 254.628 818.278C254.628 819.385 255.037 820.222 255.856 820.788C256.683 821.346 257.732 821.625 259 821.625ZM273.827 824V803.273H276.904V806.403H277.119C277.497 805.378 278.181 804.546 279.171 803.907C280.16 803.268 281.276 802.949 282.517 802.949C282.751 802.949 283.044 802.953 283.394 802.962C283.745 802.971 284.011 802.985 284.191 803.003V806.241C284.083 806.214 283.835 806.174 283.448 806.12C283.07 806.057 282.67 806.026 282.247 806.026C281.24 806.026 280.34 806.237 279.548 806.66C278.766 807.074 278.145 807.649 277.686 808.387C277.236 809.116 277.012 809.948 277.012 810.884V824H273.827ZM298.279 803.273V805.972H287.537V803.273H298.279ZM290.668 798.307H293.852V818.062C293.852 818.962 293.983 819.637 294.244 820.087C294.514 820.527 294.856 820.824 295.269 820.977C295.692 821.121 296.137 821.193 296.605 821.193C296.956 821.193 297.244 821.175 297.469 821.139C297.694 821.094 297.874 821.058 298.009 821.031L298.656 823.892C298.441 823.973 298.139 824.054 297.752 824.135C297.365 824.225 296.875 824.27 296.281 824.27C295.382 824.27 294.5 824.076 293.637 823.69C292.782 823.303 292.071 822.714 291.504 821.922C290.947 821.13 290.668 820.132 290.668 818.926V798.307ZM311.537 824.432C309.54 824.432 307.817 823.991 306.368 823.109C304.929 822.219 303.818 820.977 303.035 819.385C302.262 817.784 301.875 815.921 301.875 813.798C301.875 811.675 302.262 809.804 303.035 808.185C303.818 806.556 304.907 805.288 306.301 804.379C307.704 803.462 309.342 803.003 311.213 803.003C312.292 803.003 313.358 803.183 314.411 803.543C315.464 803.902 316.422 804.487 317.285 805.297C318.149 806.098 318.837 807.159 319.35 808.482C319.863 809.804 320.119 811.432 320.119 813.366V814.716H304.142V811.963H316.881C316.881 810.794 316.647 809.75 316.179 808.832C315.72 807.915 315.063 807.191 314.209 806.66C313.363 806.129 312.364 805.864 311.213 805.864C309.944 805.864 308.847 806.179 307.92 806.808C307.003 807.429 306.296 808.239 305.802 809.237C305.307 810.236 305.059 811.306 305.059 812.449V814.284C305.059 815.849 305.329 817.176 305.869 818.265C306.418 819.344 307.178 820.168 308.15 820.734C309.121 821.292 310.25 821.571 311.537 821.571C312.373 821.571 313.129 821.454 313.804 821.22C314.488 820.977 315.077 820.617 315.572 820.141C316.066 819.655 316.449 819.052 316.719 818.332L319.795 819.196C319.471 820.24 318.927 821.157 318.162 821.949C317.398 822.732 316.453 823.343 315.329 823.784C314.204 824.216 312.94 824.432 311.537 824.432ZM324.964 824V803.273H328.04V806.403H328.256C328.634 805.378 329.318 804.546 330.307 803.907C331.297 803.268 332.412 802.949 333.654 802.949C333.888 802.949 334.18 802.953 334.531 802.962C334.882 802.971 335.147 802.985 335.327 803.003V806.241C335.219 806.214 334.972 806.174 334.585 806.12C334.207 806.057 333.807 806.026 333.384 806.026C332.376 806.026 331.477 806.237 330.685 806.66C329.903 807.074 329.282 807.649 328.823 808.387C328.373 809.116 328.148 809.948 328.148 810.884V824H324.964ZM372.46 805H369.114C368.916 804.037 368.569 803.192 368.075 802.463C367.589 801.734 366.995 801.123 366.293 800.628C365.601 800.124 364.831 799.746 363.986 799.494C363.14 799.242 362.259 799.116 361.341 799.116C359.668 799.116 358.152 799.539 356.793 800.385C355.444 801.231 354.369 802.477 353.568 804.123C352.777 805.769 352.381 807.789 352.381 810.182C352.381 812.575 352.777 814.594 353.568 816.241C354.369 817.887 355.444 819.133 356.793 819.979C358.152 820.824 359.668 821.247 361.341 821.247C362.259 821.247 363.14 821.121 363.986 820.869C364.831 820.617 365.601 820.244 366.293 819.749C366.995 819.246 367.589 818.629 368.075 817.901C368.569 817.163 368.916 816.317 369.114 815.364H372.46C372.208 816.776 371.75 818.04 371.084 819.156C370.418 820.271 369.59 821.22 368.601 822.003C367.611 822.777 366.5 823.366 365.268 823.771C364.044 824.175 362.735 824.378 361.341 824.378C358.984 824.378 356.888 823.802 355.053 822.651C353.217 821.499 351.773 819.862 350.721 817.739C349.668 815.616 349.142 813.097 349.142 810.182C349.142 807.267 349.668 804.748 350.721 802.625C351.773 800.502 353.217 798.865 355.053 797.713C356.888 796.562 358.984 795.986 361.341 795.986C362.735 795.986 364.044 796.188 365.268 796.593C366.5 796.998 367.611 797.592 368.601 798.374C369.59 799.148 370.418 800.093 371.084 801.208C371.75 802.315 372.208 803.579 372.46 805ZM380.621 796.364V824H377.436V796.364H380.621ZM392.553 824.486C391.24 824.486 390.048 824.238 388.977 823.744C387.907 823.24 387.057 822.516 386.427 821.571C385.797 820.617 385.482 819.466 385.482 818.116C385.482 816.929 385.716 815.966 386.184 815.229C386.652 814.482 387.277 813.897 388.06 813.474C388.842 813.052 389.706 812.737 390.651 812.53C391.604 812.314 392.562 812.143 393.525 812.017C394.784 811.855 395.805 811.734 396.588 811.653C397.38 811.563 397.955 811.414 398.315 811.207C398.684 811 398.869 810.641 398.869 810.128V810.02C398.869 808.688 398.504 807.654 397.776 806.916C397.056 806.179 395.963 805.81 394.496 805.81C392.976 805.81 391.784 806.143 390.92 806.808C390.057 807.474 389.45 808.185 389.099 808.94L386.076 807.861C386.616 806.601 387.335 805.621 388.235 804.919C389.144 804.208 390.133 803.714 391.204 803.435C392.283 803.147 393.345 803.003 394.388 803.003C395.054 803.003 395.819 803.084 396.683 803.246C397.555 803.399 398.396 803.718 399.206 804.204C400.025 804.69 400.704 805.423 401.244 806.403C401.783 807.384 402.053 808.697 402.053 810.344V824H398.869V821.193H398.707C398.491 821.643 398.131 822.124 397.627 822.637C397.123 823.15 396.453 823.586 395.616 823.946C394.78 824.306 393.759 824.486 392.553 824.486ZM393.039 821.625C394.299 821.625 395.36 821.378 396.224 820.883C397.096 820.388 397.753 819.749 398.194 818.967C398.644 818.184 398.869 817.361 398.869 816.497V813.582C398.734 813.744 398.437 813.893 397.978 814.028C397.528 814.154 397.006 814.266 396.413 814.365C395.828 814.455 395.257 814.536 394.699 814.608C394.15 814.671 393.705 814.725 393.363 814.77C392.535 814.878 391.762 815.053 391.042 815.296C390.331 815.53 389.755 815.885 389.315 816.362C388.883 816.83 388.667 817.469 388.667 818.278C388.667 819.385 389.076 820.222 389.895 820.788C390.723 821.346 391.771 821.625 393.039 821.625ZM407.866 824V803.273H411.051V824H407.866ZM409.485 799.818C408.865 799.818 408.329 799.607 407.879 799.184C407.439 798.761 407.218 798.253 407.218 797.659C407.218 797.065 407.439 796.557 407.879 796.134C408.329 795.711 408.865 795.5 409.485 795.5C410.106 795.5 410.637 795.711 411.078 796.134C411.527 796.557 411.752 797.065 411.752 797.659C411.752 798.253 411.527 798.761 411.078 799.184C410.637 799.607 410.106 799.818 409.485 799.818ZM416.884 824V803.273H419.96V806.511H420.23C420.662 805.405 421.359 804.546 422.322 803.934C423.284 803.313 424.44 803.003 425.79 803.003C427.157 803.003 428.295 803.313 429.204 803.934C430.121 804.546 430.837 805.405 431.349 806.511H431.565C432.096 805.441 432.892 804.591 433.954 803.961C435.015 803.322 436.288 803.003 437.773 803.003C439.626 803.003 441.142 803.583 442.32 804.744C443.499 805.895 444.088 807.69 444.088 810.128V824H440.903V810.128C440.903 808.598 440.485 807.505 439.648 806.849C438.812 806.192 437.827 805.864 436.693 805.864C435.236 805.864 434.107 806.304 433.306 807.186C432.505 808.059 432.105 809.165 432.105 810.506V824H428.866V809.804C428.866 808.625 428.484 807.676 427.719 806.957C426.955 806.228 425.97 805.864 424.764 805.864C423.937 805.864 423.163 806.084 422.443 806.525C421.732 806.966 421.157 807.577 420.716 808.36C420.284 809.134 420.068 810.029 420.068 811.045V824H416.884ZM464.593 807.915L461.732 808.724C461.552 808.248 461.287 807.784 460.936 807.335C460.594 806.876 460.126 806.498 459.532 806.201C458.939 805.904 458.178 805.756 457.252 805.756C455.983 805.756 454.926 806.048 454.081 806.633C453.244 807.209 452.826 807.942 452.826 808.832C452.826 809.624 453.114 810.249 453.689 810.708C454.265 811.167 455.165 811.549 456.388 811.855L459.465 812.611C461.318 813.061 462.699 813.749 463.608 814.675C464.516 815.593 464.971 816.776 464.971 818.224C464.971 819.412 464.629 820.473 463.945 821.409C463.27 822.345 462.326 823.082 461.111 823.622C459.897 824.162 458.484 824.432 456.874 824.432C454.76 824.432 453.01 823.973 451.625 823.055C450.239 822.138 449.362 820.797 448.993 819.034L452.016 818.278C452.304 819.394 452.848 820.231 453.649 820.788C454.458 821.346 455.516 821.625 456.82 821.625C458.304 821.625 459.483 821.31 460.355 820.68C461.237 820.042 461.678 819.277 461.678 818.386C461.678 817.667 461.426 817.064 460.922 816.578C460.418 816.083 459.645 815.714 458.601 815.472L455.147 814.662C453.248 814.212 451.854 813.515 450.963 812.57C450.082 811.617 449.641 810.425 449.641 808.994C449.641 807.825 449.969 806.79 450.626 805.891C451.292 804.991 452.196 804.285 453.338 803.772C454.49 803.259 455.794 803.003 457.252 803.003C459.303 803.003 460.913 803.453 462.083 804.352C463.261 805.252 464.098 806.439 464.593 807.915ZM472.085 824.216C471.42 824.216 470.848 823.978 470.372 823.501C469.895 823.024 469.656 822.453 469.656 821.787C469.656 821.121 469.895 820.55 470.372 820.073C470.848 819.596 471.42 819.358 472.085 819.358C472.751 819.358 473.322 819.596 473.799 820.073C474.276 820.55 474.514 821.121 474.514 821.787C474.514 822.228 474.402 822.633 474.177 823.001C473.961 823.37 473.669 823.667 473.3 823.892C472.94 824.108 472.535 824.216 472.085 824.216ZM491.349 824V796.364H507.92V799.332H494.695V808.67H506.678V811.639H494.695V824H491.349ZM519.319 824.486C518.005 824.486 516.813 824.238 515.743 823.744C514.672 823.24 513.822 822.516 513.192 821.571C512.563 820.617 512.248 819.466 512.248 818.116C512.248 816.929 512.482 815.966 512.95 815.229C513.417 814.482 514.043 813.897 514.825 813.474C515.608 813.052 516.472 812.737 517.416 812.53C518.37 812.314 519.328 812.143 520.29 812.017C521.55 811.855 522.571 811.734 523.354 811.653C524.145 811.563 524.721 811.414 525.081 811.207C525.45 811 525.634 810.641 525.634 810.128V810.02C525.634 808.688 525.27 807.654 524.541 806.916C523.821 806.179 522.728 805.81 521.262 805.81C519.742 805.81 518.55 806.143 517.686 806.808C516.822 807.474 516.215 808.185 515.864 808.94L512.842 807.861C513.381 806.601 514.101 805.621 515.001 804.919C515.909 804.208 516.899 803.714 517.969 803.435C519.049 803.147 520.111 803.003 521.154 803.003C521.82 803.003 522.585 803.084 523.448 803.246C524.321 803.399 525.162 803.718 525.972 804.204C526.79 804.69 527.469 805.423 528.009 806.403C528.549 807.384 528.819 808.697 528.819 810.344V824H525.634V821.193H525.472C525.256 821.643 524.897 822.124 524.393 822.637C523.889 823.15 523.219 823.586 522.382 823.946C521.545 824.306 520.524 824.486 519.319 824.486ZM519.805 821.625C521.064 821.625 522.126 821.378 522.989 820.883C523.862 820.388 524.519 819.749 524.96 818.967C525.409 818.184 525.634 817.361 525.634 816.497V813.582C525.499 813.744 525.202 813.893 524.744 814.028C524.294 814.154 523.772 814.266 523.178 814.365C522.594 814.455 522.022 814.536 521.464 814.608C520.916 814.671 520.47 814.725 520.129 814.77C519.301 814.878 518.527 815.053 517.808 815.296C517.097 815.53 516.521 815.885 516.08 816.362C515.648 816.83 515.433 817.469 515.433 818.278C515.433 819.385 515.842 820.222 516.661 820.788C517.488 821.346 518.536 821.625 519.805 821.625ZM549.313 807.915L546.453 808.724C546.273 808.248 546.007 807.784 545.656 807.335C545.315 806.876 544.847 806.498 544.253 806.201C543.659 805.904 542.899 805.756 541.972 805.756C540.704 805.756 539.647 806.048 538.801 806.633C537.965 807.209 537.546 807.942 537.546 808.832C537.546 809.624 537.834 810.249 538.41 810.708C538.986 811.167 539.885 811.549 541.109 811.855L544.186 812.611C546.039 813.061 547.42 813.749 548.328 814.675C549.237 815.593 549.691 816.776 549.691 818.224C549.691 819.412 549.349 820.473 548.666 821.409C547.991 822.345 547.046 823.082 545.832 823.622C544.617 824.162 543.205 824.432 541.595 824.432C539.481 824.432 537.731 823.973 536.345 823.055C534.96 822.138 534.083 820.797 533.714 819.034L536.737 818.278C537.025 819.394 537.569 820.231 538.369 820.788C539.179 821.346 540.236 821.625 541.541 821.625C543.025 821.625 544.204 821.31 545.076 820.68C545.958 820.042 546.399 819.277 546.399 818.386C546.399 817.667 546.147 817.064 545.643 816.578C545.139 816.083 544.365 815.714 543.322 815.472L539.867 814.662C537.969 814.212 536.575 813.515 535.684 812.57C534.802 811.617 534.362 810.425 534.362 808.994C534.362 807.825 534.69 806.79 535.347 805.891C536.012 804.991 536.917 804.285 538.059 803.772C539.211 803.259 540.515 803.003 541.972 803.003C544.024 803.003 545.634 803.453 546.803 804.352C547.982 805.252 548.819 806.439 549.313 807.915ZM563.499 803.273V805.972H552.758V803.273H563.499ZM555.888 798.307H559.073V818.062C559.073 818.962 559.204 819.637 559.464 820.087C559.734 820.527 560.076 820.824 560.49 820.977C560.913 821.121 561.358 821.193 561.826 821.193C562.177 821.193 562.465 821.175 562.69 821.139C562.915 821.094 563.094 821.058 563.229 821.031L563.877 823.892C563.661 823.973 563.36 824.054 562.973 824.135C562.586 824.225 562.096 824.27 561.502 824.27C560.603 824.27 559.721 824.076 558.857 823.69C558.003 823.303 557.292 822.714 556.725 821.922C556.167 821.13 555.888 820.132 555.888 818.926V798.307ZM576.757 824.432C574.76 824.432 573.038 823.991 571.589 823.109C570.15 822.219 569.039 820.977 568.256 819.385C567.482 817.784 567.096 815.921 567.096 813.798C567.096 811.675 567.482 809.804 568.256 808.185C569.039 806.556 570.127 805.288 571.522 804.379C572.925 803.462 574.562 803.003 576.434 803.003C577.513 803.003 578.579 803.183 579.632 803.543C580.684 803.902 581.642 804.487 582.506 805.297C583.37 806.098 584.058 807.159 584.571 808.482C585.083 809.804 585.34 811.432 585.34 813.366V814.716H569.363V811.963H582.101C582.101 810.794 581.867 809.75 581.4 808.832C580.941 807.915 580.284 807.191 579.429 806.66C578.584 806.129 577.585 805.864 576.434 805.864C575.165 805.864 574.068 806.179 573.141 806.808C572.223 807.429 571.517 808.239 571.022 809.237C570.528 810.236 570.28 811.306 570.28 812.449V814.284C570.28 815.849 570.55 817.176 571.09 818.265C571.639 819.344 572.399 820.168 573.37 820.734C574.342 821.292 575.471 821.571 576.757 821.571C577.594 821.571 578.35 821.454 579.025 821.22C579.708 820.977 580.297 820.617 580.792 820.141C581.287 819.655 581.669 819.052 581.939 818.332L585.016 819.196C584.692 820.24 584.148 821.157 583.383 821.949C582.618 822.732 581.674 823.343 580.549 823.784C579.425 824.216 578.161 824.432 576.757 824.432ZM590.184 824V803.273H593.261V806.403H593.477C593.855 805.378 594.538 804.546 595.528 803.907C596.518 803.268 597.633 802.949 598.875 802.949C599.109 802.949 599.401 802.953 599.752 802.962C600.103 802.971 600.368 802.985 600.548 803.003V806.241C600.44 806.214 600.193 806.174 599.806 806.12C599.428 806.057 599.028 806.026 598.605 806.026C597.597 806.026 596.698 806.237 595.906 806.66C595.123 807.074 594.502 807.649 594.044 808.387C593.594 809.116 593.369 809.948 593.369 810.884V824H590.184ZM630.556 803.273C630.394 801.905 629.737 800.844 628.586 800.088C627.434 799.332 626.022 798.955 624.349 798.955C623.125 798.955 622.055 799.152 621.137 799.548C620.228 799.944 619.518 800.488 619.005 801.181C618.501 801.874 618.249 802.661 618.249 803.543C618.249 804.28 618.425 804.915 618.775 805.445C619.135 805.967 619.594 806.403 620.152 806.754C620.71 807.096 621.294 807.379 621.906 807.604C622.518 807.82 623.08 807.996 623.593 808.131L626.4 808.886C627.119 809.075 627.92 809.336 628.802 809.669C629.692 810.002 630.542 810.456 631.352 811.032C632.171 811.599 632.845 812.327 633.376 813.218C633.907 814.109 634.172 815.202 634.172 816.497C634.172 817.991 633.781 819.34 632.998 820.545C632.225 821.751 631.091 822.709 629.598 823.42C628.113 824.13 626.31 824.486 624.187 824.486C622.207 824.486 620.494 824.166 619.045 823.528C617.606 822.889 616.472 821.998 615.645 820.856C614.826 819.713 614.363 818.386 614.255 816.875H617.709C617.799 817.919 618.15 818.782 618.762 819.466C619.383 820.141 620.165 820.644 621.11 820.977C622.064 821.301 623.089 821.463 624.187 821.463C625.464 821.463 626.611 821.256 627.628 820.842C628.644 820.42 629.449 819.835 630.043 819.088C630.637 818.332 630.934 817.451 630.934 816.443C630.934 815.526 630.677 814.779 630.165 814.203C629.652 813.627 628.977 813.16 628.14 812.8C627.304 812.44 626.4 812.125 625.428 811.855L622.028 810.884C619.868 810.263 618.159 809.377 616.9 808.225C615.64 807.074 615.01 805.567 615.01 803.705C615.01 802.157 615.429 800.808 616.265 799.656C617.111 798.496 618.245 797.596 619.666 796.957C621.096 796.31 622.693 795.986 624.456 795.986C626.238 795.986 627.821 796.305 629.206 796.944C630.592 797.574 631.689 798.437 632.499 799.535C633.318 800.632 633.75 801.878 633.795 803.273H630.556ZM647.933 824.432C645.936 824.432 644.213 823.991 642.765 823.109C641.326 822.219 640.214 820.977 639.432 819.385C638.658 817.784 638.271 815.921 638.271 813.798C638.271 811.675 638.658 809.804 639.432 808.185C640.214 806.556 641.303 805.288 642.697 804.379C644.101 803.462 645.738 803.003 647.609 803.003C648.689 803.003 649.755 803.183 650.808 803.543C651.86 803.902 652.818 804.487 653.682 805.297C654.545 806.098 655.234 807.159 655.746 808.482C656.259 809.804 656.516 811.432 656.516 813.366V814.716H640.538V811.963H653.277C653.277 810.794 653.043 809.75 652.575 808.832C652.116 807.915 651.46 807.191 650.605 806.66C649.759 806.129 648.761 805.864 647.609 805.864C646.341 805.864 645.243 806.179 644.317 806.808C643.399 807.429 642.693 808.239 642.198 809.237C641.703 810.236 641.456 811.306 641.456 812.449V814.284C641.456 815.849 641.726 817.176 642.266 818.265C642.814 819.344 643.575 820.168 644.546 820.734C645.518 821.292 646.647 821.571 647.933 821.571C648.77 821.571 649.526 821.454 650.2 821.22C650.884 820.977 651.473 820.617 651.968 820.141C652.463 819.655 652.845 819.052 653.115 818.332L656.192 819.196C655.868 820.24 655.324 821.157 654.559 821.949C653.794 822.732 652.85 823.343 651.725 823.784C650.601 824.216 649.337 824.432 647.933 824.432ZM670.374 803.273V805.972H659.633V803.273H670.374ZM662.763 798.307H665.948V818.062C665.948 818.962 666.079 819.637 666.339 820.087C666.609 820.527 666.951 820.824 667.365 820.977C667.788 821.121 668.233 821.193 668.701 821.193C669.052 821.193 669.34 821.175 669.565 821.139C669.79 821.094 669.969 821.058 670.104 821.031L670.752 823.892C670.536 823.973 670.235 824.054 669.848 824.135C669.461 824.225 668.971 824.27 668.377 824.27C667.478 824.27 666.596 824.076 665.732 823.69C664.878 823.303 664.167 822.714 663.6 821.922C663.042 821.13 662.763 820.132 662.763 818.926V798.307ZM684.179 803.273V805.972H673.438V803.273H684.179ZM676.568 798.307H679.753V818.062C679.753 818.962 679.883 819.637 680.144 820.087C680.414 820.527 680.756 820.824 681.17 820.977C681.593 821.121 682.038 821.193 682.506 821.193C682.857 821.193 683.144 821.175 683.369 821.139C683.594 821.094 683.774 821.058 683.909 821.031L684.557 823.892C684.341 823.973 684.04 824.054 683.653 824.135C683.266 824.225 682.776 824.27 682.182 824.27C681.282 824.27 680.401 824.076 679.537 823.69C678.682 823.303 677.972 822.714 677.405 821.922C676.847 821.13 676.568 820.132 676.568 818.926V798.307ZM692.599 796.364V824H689.415V796.364H692.599ZM707.123 824.432C705.126 824.432 703.403 823.991 701.954 823.109C700.515 822.219 699.404 820.977 698.621 819.385C697.848 817.784 697.461 815.921 697.461 813.798C697.461 811.675 697.848 809.804 698.621 808.185C699.404 806.556 700.492 805.288 701.887 804.379C703.29 803.462 704.928 803.003 706.799 803.003C707.878 803.003 708.944 803.183 709.997 803.543C711.05 803.902 712.008 804.487 712.871 805.297C713.735 806.098 714.423 807.159 714.936 808.482C715.449 809.804 715.705 811.432 715.705 813.366V814.716H699.728V811.963H712.466C712.466 810.794 712.233 809.75 711.765 808.832C711.306 807.915 710.649 807.191 709.795 806.66C708.949 806.129 707.95 805.864 706.799 805.864C705.53 805.864 704.433 806.179 703.506 806.808C702.589 807.429 701.882 808.239 701.388 809.237C700.893 810.236 700.645 811.306 700.645 812.449V814.284C700.645 815.849 700.915 817.176 701.455 818.265C702.004 819.344 702.764 820.168 703.736 820.734C704.707 821.292 705.836 821.571 707.123 821.571C707.959 821.571 708.715 821.454 709.39 821.22C710.073 820.977 710.663 820.617 711.157 820.141C711.652 819.655 712.035 819.052 712.305 818.332L715.381 819.196C715.057 820.24 714.513 821.157 713.748 821.949C712.984 822.732 712.039 823.343 710.915 823.784C709.79 824.216 708.526 824.432 707.123 824.432ZM720.55 824V803.273H723.626V806.511H723.896C724.328 805.405 725.025 804.546 725.988 803.934C726.95 803.313 728.106 803.003 729.456 803.003C730.823 803.003 731.961 803.313 732.87 803.934C733.787 804.546 734.503 805.405 735.015 806.511H735.231C735.762 805.441 736.558 804.591 737.62 803.961C738.681 803.322 739.954 803.003 741.439 803.003C743.292 803.003 744.808 803.583 745.986 804.744C747.165 805.895 747.754 807.69 747.754 810.128V824H744.569V810.128C744.569 808.598 744.151 807.505 743.314 806.849C742.478 806.192 741.493 805.864 740.359 805.864C738.902 805.864 737.773 806.304 736.972 807.186C736.171 808.059 735.771 809.165 735.771 810.506V824H732.532V809.804C732.532 808.625 732.15 807.676 731.385 806.957C730.621 806.228 729.636 805.864 728.43 805.864C727.603 805.864 726.829 806.084 726.109 806.525C725.398 806.966 724.823 807.577 724.382 808.36C723.95 809.134 723.734 810.029 723.734 811.045V824H720.55ZM762.267 824.432C760.27 824.432 758.547 823.991 757.099 823.109C755.66 822.219 754.548 820.977 753.766 819.385C752.992 817.784 752.605 815.921 752.605 813.798C752.605 811.675 752.992 809.804 753.766 808.185C754.548 806.556 755.637 805.288 757.031 804.379C758.435 803.462 760.072 803.003 761.943 803.003C763.023 803.003 764.089 803.183 765.142 803.543C766.194 803.902 767.152 804.487 768.016 805.297C768.879 806.098 769.568 807.159 770.08 808.482C770.593 809.804 770.85 811.432 770.85 813.366V814.716H754.872V811.963H767.611C767.611 810.794 767.377 809.75 766.909 808.832C766.45 807.915 765.794 807.191 764.939 806.66C764.093 806.129 763.095 805.864 761.943 805.864C760.675 805.864 759.577 806.179 758.651 806.808C757.733 807.429 757.027 808.239 756.532 809.237C756.037 810.236 755.79 811.306 755.79 812.449V814.284C755.79 815.849 756.06 817.176 756.6 818.265C757.148 819.344 757.909 820.168 758.88 820.734C759.852 821.292 760.981 821.571 762.267 821.571C763.104 821.571 763.86 821.454 764.534 821.22C765.218 820.977 765.807 820.617 766.302 820.141C766.797 819.655 767.179 819.052 767.449 818.332L770.526 819.196C770.202 820.24 769.658 821.157 768.893 821.949C768.128 822.732 767.184 823.343 766.059 823.784C764.935 824.216 763.671 824.432 762.267 824.432ZM778.879 811.531V824H775.694V803.273H778.771V806.511H779.041C779.526 805.459 780.264 804.613 781.254 803.974C782.243 803.327 783.521 803.003 785.086 803.003C786.49 803.003 787.718 803.291 788.77 803.866C789.823 804.433 790.641 805.297 791.226 806.457C791.811 807.609 792.103 809.066 792.103 810.83V824H788.919V811.045C788.919 809.417 788.496 808.149 787.65 807.24C786.804 806.322 785.644 805.864 784.169 805.864C783.152 805.864 782.243 806.084 781.443 806.525C780.651 806.966 780.026 807.609 779.567 808.455C779.108 809.3 778.879 810.326 778.879 811.531ZM806.937 803.273V805.972H796.195V803.273H806.937ZM799.326 798.307H802.511V818.062C802.511 818.962 802.641 819.637 802.902 820.087C803.172 820.527 803.514 820.824 803.928 820.977C804.35 821.121 804.796 821.193 805.263 821.193C805.614 821.193 805.902 821.175 806.127 821.139C806.352 821.094 806.532 821.058 806.667 821.031L807.315 823.892C807.099 823.973 806.797 824.054 806.411 824.135C806.024 824.225 805.533 824.27 804.94 824.27C804.04 824.27 803.158 824.076 802.295 823.69C801.44 823.303 800.729 822.714 800.163 821.922C799.605 821.13 799.326 820.132 799.326 818.926V798.307ZM826.038 807.915L823.177 808.724C822.997 808.248 822.732 807.784 822.381 807.335C822.039 806.876 821.571 806.498 820.978 806.201C820.384 805.904 819.624 805.756 818.697 805.756C817.429 805.756 816.372 806.048 815.526 806.633C814.689 807.209 814.271 807.942 814.271 808.832C814.271 809.624 814.559 810.249 815.135 810.708C815.71 811.167 816.61 811.549 817.833 811.855L820.91 812.611C822.763 813.061 824.144 813.749 825.053 814.675C825.962 815.593 826.416 816.776 826.416 818.224C826.416 819.412 826.074 820.473 825.39 821.409C824.716 822.345 823.771 823.082 822.556 823.622C821.342 824.162 819.93 824.432 818.319 824.432C816.205 824.432 814.455 823.973 813.07 823.055C811.685 822.138 810.807 820.797 810.439 819.034L813.461 818.278C813.749 819.394 814.293 820.231 815.094 820.788C815.904 821.346 816.961 821.625 818.265 821.625C819.75 821.625 820.928 821.31 821.801 820.68C822.682 820.042 823.123 819.277 823.123 818.386C823.123 817.667 822.871 817.064 822.368 816.578C821.864 816.083 821.09 815.714 820.047 815.472L816.592 814.662C814.694 814.212 813.299 813.515 812.409 812.57C811.527 811.617 811.086 810.425 811.086 808.994C811.086 807.825 811.415 806.79 812.071 805.891C812.737 804.991 813.641 804.285 814.784 803.772C815.935 803.259 817.24 803.003 818.697 803.003C820.748 803.003 822.359 803.453 823.528 804.352C824.707 805.252 825.543 806.439 826.038 807.915ZM833.531 824.216C832.865 824.216 832.294 823.978 831.817 823.501C831.34 823.024 831.102 822.453 831.102 821.787C831.102 821.121 831.34 820.55 831.817 820.073C832.294 819.596 832.865 819.358 833.531 819.358C834.196 819.358 834.768 819.596 835.244 820.073C835.721 820.55 835.96 821.121 835.96 821.787C835.96 822.228 835.847 822.633 835.622 823.001C835.406 823.37 835.114 823.667 834.745 823.892C834.385 824.108 833.981 824.216 833.531 824.216Z" fill="#1E3754"/>
<path d="M333.056 547.999C330.686 539.488 328.316 530.978 325.836 521.68C324.996 515.275 324.267 509.658 323.539 504.041C323.713 496.267 323.986 488.494 323.977 480.72C323.975 479.164 322.928 477.596 322.304 476.057C321.189 473.306 320.029 470.574 319.052 467.12C320.205 465.302 321.032 463.491 322.213 463.219C326.513 462.23 326.779 458.895 327.817 455.552C332.689 439.874 337.777 424.262 342.925 408.671C343.738 406.207 344.183 404.415 342.51 401.846C336.77 393.03 342.127 383.383 352.682 382.583C354.373 382.455 356.491 381.144 357.48 379.728C362.143 373.058 366.064 365.838 371.035 359.422C378.253 350.107 386.145 341.315 393.75 332.299C396.459 330.727 397.602 328.747 396.749 325.365C396.332 323.712 397.533 321.65 398.335 319.356C398.917 318.753 399.057 318.507 399.089 318.198C399.975 317.776 400.861 317.353 402.402 316.759C405.629 316.787 408.908 318.105 410.655 317C420.055 311.06 429.086 304.533 438.202 298.149C438.833 297.707 439.07 296.74 439.585 296.093C449.205 284.013 458.719 271.845 468.567 259.954C470.613 257.484 471.51 255.83 470.224 252.61C468.285 247.753 470.261 242.285 474.229 239.172C478.171 236.08 483.688 235.77 488.299 238.424C489.432 239.076 490.499 239.845 490.967 240.15C502.244 233.776 513.034 227.564 523.955 221.594C526.252 220.339 527.791 219.467 528.25 216.387C529.177 210.173 536.002 207.411 540.771 211.269C543.146 213.191 544.974 212.955 547.507 212.352C558.974 209.624 570.487 207.092 581.984 204.49C593.381 204.623 604.778 204.756 616.985 204.97C621.196 205.68 624.598 206.31 628 206.939C629.679 207.468 631.358 207.997 633.413 208.583C635.131 208.08 636.786 207.842 637.761 206.901C641.992 202.82 646.329 201.666 650.861 203.765C655.936 206.115 657.838 210.193 657.289 216.513C657.158 218.019 657.74 220.221 658.814 221.102C687.147 244.346 697.01 275.792 698.892 310.809C699.07 314.13 698.936 317.47 698.879 320.801C698.798 325.612 697.449 330.452 703.583 333.522C705.404 334.433 706.13 339.535 705.7 342.474C705.035 347.017 701.36 349.351 697.07 349.545C693.45 361.434 690.395 373.167 686.263 384.508C682.857 393.858 678.02 402.677 674.155 411.873C673.003 414.614 672.531 417.836 672.543 420.835C672.585 431.629 672.967 442.422 673.158 453.94C673.366 455.184 673.636 455.703 673.907 456.221C673.994 456.615 674.08 457.009 674.059 457.997C673.654 458.714 673.346 458.964 673.064 458.938C668.532 458.509 665.239 460.569 665.308 464.104C665.376 467.619 667.593 469.908 670.934 469.75C674.921 469.561 677.199 467.238 676.327 462.748C676.224 462.215 677.46 461.423 678.076 460.752C678.108 460.966 678.141 461.18 678.184 461.954C678.362 462.846 678.633 463.002 679.005 462.981C679.058 463.441 679.11 463.901 678.859 464.804C678.457 465.835 678.359 466.424 678.262 467.012C677.673 471.205 674.559 472.404 671.069 472.487C667.27 472.578 664.26 470.78 663.013 466.977C661.856 463.446 662.573 459.793 665.828 458.192C670.552 455.868 670.78 452.04 670.721 447.881C670.604 439.649 670.338 431.42 670.134 423.189C669.597 423.079 669.06 422.97 668.523 422.86C667.562 424.119 666.498 425.314 665.657 426.648C651.447 449.186 634.356 469.214 614.874 487.436C608.066 493.804 603.386 502.466 597.894 510.195C597.351 510.959 598.05 512.529 597.971 513.712C597.761 516.846 598.514 520.857 596.865 522.853C595.195 524.876 591.121 524.949 588.075 525.785C586.522 526.211 584.324 525.88 583.419 526.837C568.031 543.137 551.124 557.618 532.778 569.571C532.778 572.829 533.36 575.727 532.668 578.28C530.724 585.441 522.115 588.103 515.64 583.521C513.308 581.871 511.599 581.549 508.953 582.662C486.56 592.081 463.453 598.751 439.07 600.444C437.724 600.538 436.073 601.696 435.244 602.848C431.114 608.59 427.935 609.622 420.845 606.886C417.261 601.138 412.202 599.303 405.499 599.956C405.016 599.98 405.146 599.885 405.146 599.885C403.016 599.178 400.886 598.47 397.997 597.867C394.185 596.883 391.132 595.794 387.806 594.482C385.354 593.513 383.175 592.768 380.865 591.924C380.735 591.825 380.411 591.864 380.221 591.499C381.03 590.551 382.177 589.314 382.999 589.501C386.019 590.189 388.93 591.351 392.192 592.548C398.333 593.969 404.164 595.175 410.336 596.533C412.437 596.728 414.195 596.772 416.286 596.752C421.91 587.9 427.198 586.861 434.52 593.585C435.471 596.816 437.247 597.724 440.188 597.261C446.809 596.217 453.467 595.409 460.524 594.474C466.624 592.973 472.312 591.502 478.386 590.031C482.59 588.85 486.408 587.671 490.603 586.425C496.547 584.222 502.1 582.046 507.689 579.967C510.232 579.021 511.439 577.801 511.512 574.621C511.701 566.31 520.009 561.456 527.102 565.527C530.02 567.201 531.841 566.883 534.086 564.995C535.724 563.617 537.491 562.391 539.519 560.999C542.63 558.752 545.425 556.604 548.535 554.312C554.244 549.448 559.638 544.728 565.342 539.888C568.845 536.668 572.038 533.569 575.528 530.295C579.602 526.551 583.721 523.575 582.938 517.042C582.435 512.845 586.121 509.864 590.332 509.923C593.792 509.971 595.398 508.402 596.99 505.991C598.447 503.782 600.002 501.638 601.659 499.242C601.375 498.79 600.946 498.562 600.198 498.469C591.45 503.444 583.021 508.282 574.287 513.129C573.056 513.672 572.13 514.205 570.77 514.746C568.842 517.012 567.348 519.27 565.559 521.73C562.491 523.211 559.717 524.49 556.763 525.654C556.581 525.539 556.154 525.584 555.878 525.418C553.757 524.159 551.913 523.065 549.961 521.638C547.902 521.222 545.951 521.139 543.599 521.023C540.798 521.396 538.398 521.801 535.66 522.158C534.214 522.335 533.105 522.56 531.529 522.742C518.112 523.553 505.321 522.573 493.03 519.236C494.725 518.4 496.11 517.717 497.816 517.32C513.158 520.659 528.188 520.957 543.259 517.889C546.173 517.296 548.093 516.501 549.13 513.082C550.977 506.99 559.2 504.289 563.229 508.867C567.235 513.42 570.313 511.447 574.017 509.81C576.907 508.533 579.973 507.446 582.529 505.658C592.162 498.921 603.275 493.356 610.734 484.686C620.67 473.139 626.006 458.301 630.604 443.601C631.352 441.211 631.141 439.547 628.914 437.594C623.006 432.415 624.637 424.132 631.85 420.963C633.176 420.38 634.57 419.953 635.956 419.445C640.326 391.186 635.284 364.582 623.942 338.925C623.683 338.339 622.747 338.052 622.112 337.273C621.46 335.893 620.823 334.865 620.012 333.624C619.258 332.709 618.678 332.007 618.218 331.001C618.713 329.481 619.09 328.266 619.525 327.41C621.661 329.909 623.589 332.224 625.841 334.16C643.112 349.01 655.82 367.075 663.977 388.302C666.646 395.249 668.827 402.384 671.277 409.566C671.588 409.18 671.925 408.872 672.129 408.492C681.649 390.791 688.44 372.079 692.48 352.408C692.798 350.864 691.5 348.522 690.258 347.207C685.468 342.134 685.922 334.478 691.971 331.543C695.032 330.058 695.857 328.11 695.683 325.355C694.857 312.266 694.996 298.995 692.763 286.142C688.578 262.044 677.767 241.127 658.731 225.043C656.398 223.072 654.655 221.684 651.051 223.811C644.66 227.583 636.653 223.511 635.397 216.064C634.84 212.76 633.413 211.69 630.6 210.925C602.234 203.209 574.522 206.613 547.184 215.843C545.825 216.302 544.495 218.032 543.942 219.473C541.908 224.776 537.499 227.121 532.452 224.389C529.226 222.643 526.807 223.255 524.146 224.808C514.81 230.258 505.467 235.698 496.216 241.288C494.994 242.027 494.286 243.613 493.34 244.807C494.885 245.73 496.325 247.119 497.994 247.495C505.765 249.247 513.878 249.901 521.352 252.456C537.483 257.971 552.532 265.742 565.216 277.72C564.865 278.391 564.53 278.793 563.853 279.065C551.455 269.978 538.87 261.761 524.648 256.825C514.873 253.433 504.576 251.546 494.736 249.044C489.756 260.896 486.745 262.31 475.319 259.661C474.229 259.408 472.382 260.143 471.635 261.042C462.734 271.758 453.974 282.592 444.981 293.591C444.742 294.193 444.701 294.6 444.659 295.006C445.249 294.83 445.838 294.653 446.774 294.379C452.639 291.991 458.077 289.477 463.69 287.446C491.088 277.532 518.845 276.679 546.454 284.641C545.302 285.292 544.587 285.801 543.449 286.299C542.041 286.119 541.046 285.997 540.073 285.778C505.904 278.1 473.62 283.421 443.025 299.992C441.109 301.03 439.085 302.758 438.205 304.669C433.965 313.878 430.132 323.274 426.082 332.573C424.903 335.281 425.093 337.205 427.354 339.598C431.486 343.971 430.751 350.281 426.06 353.585C424.105 354.961 421.64 355.613 419.242 356.666C412.682 392.616 412.896 428.396 423.076 463.967C422.244 465.082 421.703 466.028 421.069 466.598C410.212 430.763 409.743 394.803 415.547 358.494C415.819 356.793 414.857 354.404 413.662 353.046C408.326 346.976 410.185 338.458 417.73 336.948C421.161 336.261 422.413 334.652 423.122 331.654C423.616 329.564 424.484 327.548 425.324 325.557C428.125 318.913 430.988 312.295 434.439 304.238C427.093 309.422 420.87 313.568 414.98 318.144C413.525 319.275 412.541 321.76 412.402 323.698C412.006 329.248 408.415 332.359 402.846 332.149C400.764 332.07 397.92 332.955 396.622 334.445C387.552 344.851 378.577 355.357 370.031 366.194C365.633 371.772 362.179 378.095 358.398 383.928C365.423 392.505 365.509 395.737 359.032 405.002C362.124 409.327 364.819 414.257 368.582 418.156C384.175 434.311 400.074 450.171 415.918 466.083C417.387 467.558 419.258 468.633 420.953 470.268C420.54 471.469 420.116 472.296 419.39 473.003C396.723 451.999 373.074 432.334 356.47 406.882C347.959 404.204 345.209 409.231 343.286 415.589C339.053 429.585 334.605 443.519 330.605 457.581C330.08 459.427 331.102 462.314 332.383 463.96C336.128 468.769 335.317 473.976 330.034 477C328.82 477.694 327.242 479.078 327.163 480.236C325.394 506.191 327.835 531.452 340.124 554.989C341.215 557.078 342.146 559.25 343.392 561.894C337.827 561.856 337.955 557.334 335.939 554.646C335.022 552.195 334.039 550.097 333.056 547.999ZM630.324 342.707C629.949 342.568 629.574 342.429 629.199 342.29C629.321 342.991 629.443 343.691 629.704 345.116C638.808 368.471 642.928 392.467 639.225 417.525C639.035 418.81 639.816 420.784 640.823 421.602C644.339 424.454 646.449 427.773 645.544 432.386C644.638 437.005 641.532 439.35 637.06 440.47C635.816 440.781 634.45 442.239 633.916 443.499C629.572 453.747 625.412 464.074 620.778 474.734C620.717 475.111 620.655 475.488 620.594 475.865C621.183 475.707 621.773 475.55 622.946 475.069C640.287 458.5 654.48 439.472 666.552 418.835C667.697 416.878 668.342 413.995 667.878 411.829C662.202 385.338 650.513 362.037 630.324 342.707ZM489.98 243.873C489.353 243.101 488.841 242.185 488.081 241.581C484.349 238.621 480.387 238.658 476.551 241.248C472.731 243.828 471.678 248.764 473.661 253.305C475.584 257.71 479.187 258.918 483.501 258.115C488.158 257.248 490.649 254.058 491.063 249.436C491.205 247.852 490.61 246.202 489.98 243.873ZM357.758 401.291C360.915 398.396 362.285 394.699 360.071 391.031C358.713 388.782 355.965 386.616 353.449 385.989C349.135 384.915 345.777 387.314 343.879 391.37C342.122 395.127 342.836 398.641 345.77 401.391C349.319 404.719 353.276 404.3 357.758 401.291ZM639.929 219.528C643.429 222.841 647.726 223.628 651.162 220.519C653.198 218.676 654.561 214.723 654.246 211.944C653.671 206.876 648.36 204.54 643.489 206.134C639.353 207.487 635.697 213.515 639.929 219.528ZM520.003 567.034C515.902 568.285 513.664 571.442 514.444 575.284C514.984 577.948 517.282 581.535 519.552 582.227C522.089 583.001 526.255 581.791 528.259 579.903C529.886 578.369 530.334 574.252 529.572 571.825C528.41 568.126 524.992 566.304 520.003 567.034ZM639.256 436.811C643.325 433.322 644.278 429.421 641.595 426.115C638.977 422.888 635.582 421.904 631.861 424.126C628.655 426.039 627.199 428.995 628.773 432.615C630.628 436.882 634.022 438.369 639.256 436.811ZM424.205 340.15C421.427 340.261 418.239 339.592 416.012 340.757C414.502 341.547 413.263 345.268 413.845 347.04C414.584 349.291 417.038 351.936 419.223 352.465C421.13 352.927 424.325 351.243 425.82 349.523C428.286 346.687 427.414 343.365 424.205 340.15ZM698.955 333.186C697.802 333.127 696.245 332.566 695.573 333.106C693.534 334.743 690.539 336.689 690.352 338.737C690.14 341.063 691.987 344.645 694.008 345.783C695.767 346.773 700.079 345.975 701.328 344.416C702.811 342.565 702.487 339.047 702.39 336.27C702.358 335.326 700.637 334.441 698.955 333.186ZM431.339 594.269C426.959 591.22 423.341 591.3 420.921 594.606C418.785 597.523 418.85 600.552 421.246 603.225C423.772 606.045 426.986 606.673 430.156 604.471C433.763 601.965 434.005 598.564 431.339 594.269ZM552.65 512.059C550.411 516.97 551.468 520.606 555.611 522.246C558.966 523.574 563.19 522.008 563.927 518.378C564.369 516.204 563.606 513.015 562.148 511.394C559.605 508.568 556.173 509.303 552.65 512.059ZM585.491 519.947C587.655 521.035 589.765 522.766 592.006 522.957C593.233 523.062 595.391 520.787 595.885 519.197C596.927 515.851 595.374 513.318 591.752 512.586C587.949 511.817 585.688 514.174 585.491 519.947ZM330.125 473.606C332.807 470.641 333.167 467.384 329.558 465.368C327.943 464.466 324.539 464.96 323.071 466.177C321.897 467.149 321.612 470.545 322.373 472.204C323.679 475.05 326.513 475.704 330.125 473.606ZM409.505 322.928C406.928 318.679 403.395 317.535 401.054 320.571C399.966 321.982 399.362 324.805 400.059 326.258C400.757 327.712 403.921 329.45 404.991 328.939C406.955 328.002 408.175 325.505 409.505 322.928ZM531.359 215.242C531.988 217.402 532.17 219.894 533.428 221.587C534.097 222.488 537.199 222.739 538.187 221.973C539.634 220.85 540.684 218.611 540.901 216.732C541.033 215.582 539.339 213.198 538.38 213.152C536.216 213.05 534 214.055 531.359 215.242Z" fill="#00928F"/>
<path d="M420.953 470.268C420.966 469.16 420.989 468.427 421.087 467.334C421.703 466.028 422.244 465.082 423.076 463.967C425.639 468.386 427.91 472.976 430.544 477.758C430.536 479.155 430.167 480.36 429.288 481.558C427.928 480.607 427.078 479.662 426.228 478.717C424.499 477.101 422.769 475.486 420.632 473.932C419.993 473.888 419.847 473.712 419.74 473.293C420.116 472.296 420.54 471.469 420.953 470.268Z" fill="#00928F"/>
<path d="M546.454 284.641C550.081 285.593 553.272 286.685 556.788 287.955C556.602 288.725 556.091 289.319 555.28 289.975C551.48 288.918 547.981 287.798 544.177 286.494C544.587 285.801 545.302 285.292 546.454 284.641Z" fill="#00928F"/>
<path d="M354.437 496.589C356.565 492.743 359.777 491.485 362.758 493.899C364.39 495.22 365.386 498.844 364.85 500.972C364.031 504.231 360.417 505.524 357.686 503.697C355.862 502.477 355.369 499.266 354.437 496.589Z" fill="#00928F"/>
<path d="M420.257 501.072C420.404 501.576 420.371 501.963 420.338 502.349C419.995 502.173 419.652 501.996 419.336 501.612C419.538 501.153 419.776 501.003 420.257 501.072Z" fill="#00928F"/>
<path d="M655.587 302.656C652.036 304.619 648.819 304.316 647.166 301.065C646.234 299.233 646.194 295.881 647.313 294.373C648.433 292.864 651.646 291.932 653.68 292.279C658.183 293.046 659.041 297.815 655.587 302.656Z" fill="#00928F"/>
<path d="M462.988 336.111C466.373 333.696 469.58 334.056 471.521 336.981C472.626 338.646 473.007 342.245 471.955 343.521C470.636 345.12 467.382 346.112 465.194 345.792C461.142 345.198 460.224 340.849 462.988 336.111Z" fill="#00928F"/>
<path d="M495.37 308.908C490.778 306.152 489.334 302.809 491.873 300.09C493.295 298.567 496.795 297.026 498.041 297.752C499.991 298.889 501.792 301.893 501.904 304.192C502.073 307.629 499.326 309.292 495.37 308.908Z" fill="#00928F"/>
<path d="M454.834 539.063C455.556 540.908 456.277 542.752 457.215 545.256C458.126 547.851 458.82 549.787 459.514 551.724C459.594 552.647 459.673 553.571 459.845 555.56C456.355 550.968 453.468 547.169 450.132 542.939C445.285 539.853 440.886 537.198 436.306 534.407C435.856 534.358 435.588 534.445 435.32 534.532C435.526 534.707 435.731 534.882 435.924 535.422C437.153 538.892 438.395 541.996 439.636 545.101C439.289 549.952 438.942 554.804 438.595 559.655C438.071 559.647 437.548 559.638 437.024 559.629C436.878 557.97 436.731 556.311 436.477 553.918C435.287 550.107 434.205 547.029 433.123 543.952C430.221 541.22 427.318 538.487 423.839 535.442C421.083 533.538 419.064 533.339 417.353 535.813C410.324 540.513 403.294 545.213 395.724 550.264C394.227 551.315 393.271 552.014 392.315 552.713C385.062 557.468 378.037 562.632 370.485 566.852C364.216 570.354 357.326 572.746 350.133 575.72C349.555 575.81 349.101 575.731 349.101 575.731C346.592 571.015 349.739 568.81 353.118 566.733C364.745 559.589 376.512 552.661 387.962 545.245C395.496 540.365 402.567 534.772 409.867 529.53C412.852 527.386 413.46 524.789 412.352 521.255C409.466 512.05 405.226 504.084 394.785 500.645C402.287 499.139 406.405 501.172 413.556 509.42C415.202 501.854 410.544 490.966 402.462 483.484C408.235 483.113 415.288 490.357 419.231 501.225C419.651 501.996 419.995 502.173 420.338 502.349C420.371 501.963 420.404 501.576 420.436 501.19C420.382 492.436 420.327 483.683 420.656 474.4C422.769 475.486 424.499 477.101 426.179 479.177C426.868 484.43 427.605 489.222 428.343 494.015C428.886 493.992 429.429 493.969 429.972 493.947C429.707 489.923 429.442 485.899 429.487 481.719C430.167 480.36 430.537 479.155 430.884 477.423C430.965 472.404 431.128 467.912 431.163 463.419C431.345 439.924 439.904 420.341 458.238 405.314C459.004 404.686 459.893 404.208 461.012 403.471C458.813 420.576 460.702 440.358 465.109 447.066C465.109 440.161 465.062 433.354 465.118 426.547C465.28 406.884 470.518 389.167 484.6 374.665C493.87 365.119 502.768 355.211 511.999 345.626C516.585 340.864 521.546 336.462 526.967 331.298C527.82 339.949 528.569 347.543 529.318 355.137C530.37 352.284 530.446 349.483 530.357 346.687C529.805 329.32 534.295 313.863 546.802 301.134C549.99 297.889 552.278 293.76 555.279 289.975C556.091 289.319 556.602 288.725 557.419 287.989C559.881 284.962 562.038 282.079 564.195 279.195C564.53 278.793 564.865 278.391 565.548 277.642C579.081 262.176 592.267 247.058 606.319 230.947C609.409 235.526 612.484 239.349 614.771 243.595C626.369 265.12 627.547 288.424 625.315 312.034C624.829 317.178 621.491 322.052 619.466 327.051C619.089 328.266 618.713 329.481 617.861 330.828C616.397 331.36 615.264 331.569 614.441 332.189C609.232 336.112 604.092 340.126 598.664 344.314C606.665 342.298 614.409 340.214 620.186 333.836C620.823 334.865 621.46 335.893 622.046 337.706C617.494 358.243 609.979 376.806 600.381 394.62C594.795 404.989 586.825 412.67 576.318 417.674C567.186 422.023 557.863 425.97 547.504 430.594C561.4 429.507 573.642 425.8 586.525 421.54C585.635 423.494 585.201 424.712 584.562 425.812C572.379 446.78 557.847 465.931 540.437 482.864C526.179 496.731 509.306 505.409 489.676 508.676C486.353 509.229 483.015 509.681 479.683 510.18C479.747 510.748 479.81 511.316 479.874 511.883C491.093 510.993 502.313 510.102 514.762 509.114C510.98 510.827 508.298 512.03 505.626 513.256C502.911 514.503 500.205 515.773 497.495 517.033C496.11 517.717 494.724 518.4 492.647 519.144C487.254 520.103 482.586 521.295 477.843 521.837C470.299 522.698 462.705 523.126 455.022 523.746C460.74 526.326 466.248 529.008 471.912 531.306C476.79 533.285 481.845 534.827 486.822 536.562C487.4 536.849 487.977 537.135 489.464 537.871C478.897 539.098 469.703 536.446 459.766 534.506C456.252 533.426 453.391 532.523 449.442 531.276C451.738 534.591 453.286 536.827 454.834 539.063ZM576.042 344.596C579.118 337.677 582.194 330.757 585.271 323.837C584.043 324.127 583.527 324.751 583.2 325.462C571.581 350.716 555.748 373.375 539.279 395.546C508.4 437.116 473.332 474.905 434.697 509.396C429.551 513.99 424.776 519.002 419.829 523.821C420.117 524.258 420.404 524.695 420.692 525.132C422.225 524.552 424.02 524.304 425.251 523.339C434.806 515.85 444.549 508.562 453.671 500.571C475.242 481.674 494.692 460.698 513.25 438.849C537.705 410.057 559.413 379.477 576.042 344.596ZM498.712 415.938C499.539 417.564 500.338 419.204 501.2 420.812C501.955 422.219 502.78 423.589 503.574 424.976C504.004 424.733 504.433 424.49 504.863 424.247C502.689 419.688 500.516 415.129 498.342 410.569C497.953 410.734 497.564 410.899 497.175 411.064C497.572 412.479 497.969 413.894 498.712 415.938Z" fill="#13283E"/>
<circle cx="327" cy="470" r="10" fill="#00928F"/>
<circle cx="350" cy="395" r="13" fill="#00928F"/>
<circle cx="420" cy="346" r="11" fill="#00928F"/>
<circle cx="482" cy="249" r="15" fill="#00928F"/>
<circle cx="536" cy="217" r="9" fill="#00928F"/>
<circle cx="646" cy="214" r="13" fill="#00928F"/>
<circle cx="654" cy="298" r="8" fill="#00928F"/>
<circle cx="696" cy="339" r="11" fill="#00928F"/>
<circle cx="671" cy="464" r="11" fill="#00928F"/>
<circle cx="636" cy="431" r="11" fill="#00928F"/>
<circle cx="590" cy="517" r="9" fill="#00928F"/>
<circle cx="558" cy="516" r="12" fill="#00928F"/>
<circle cx="522" cy="575" r="12" fill="#00928F"/>
<circle cx="426" cy="599" r="10" fill="#00928F"/>
<circle cx="404" cy="324" r="9" fill="#00928F"/>
<circle cx="467" cy="342" r="7" fill="#00928F"/>
<circle cx="496" cy="303" r="7" fill="#00928F"/>
<circle cx="360" cy="499" r="8" fill="#00928F"/>
</svg>
