<svg width="682" height="624" viewBox="0 0 682 624" fill="none" xmlns="http://www.w3.org/2000/svg">
<path d="M9.18182 534V440.909H69.7273V455.045H26.0455V480.318H66.5909V494.455H26.0455V519.864H70.0909V534H9.18182ZM106.295 535.409C101.871 535.409 97.8864 534.621 94.3409 533.045C90.8258 531.439 88.0379 529.076 85.9773 525.955C83.947 522.833 82.9318 518.985 82.9318 514.409C82.9318 510.47 83.6591 507.212 85.1136 504.636C86.5682 502.061 88.553 500 91.0682 498.455C93.5833 496.909 96.4167 495.742 99.5682 494.955C102.75 494.136 106.038 493.545 109.432 493.182C113.523 492.758 116.841 492.379 119.386 492.045C121.932 491.682 123.78 491.136 124.932 490.409C126.114 489.652 126.705 488.485 126.705 486.909V486.636C126.705 483.212 125.689 480.561 123.659 478.682C121.629 476.803 118.705 475.864 114.886 475.864C110.856 475.864 107.659 476.742 105.295 478.5C102.962 480.258 101.386 482.333 100.568 484.727L85.2045 482.545C86.4167 478.303 88.4167 474.758 91.2045 471.909C93.9924 469.03 97.4015 466.879 101.432 465.455C105.462 464 109.917 463.273 114.795 463.273C118.159 463.273 121.508 463.667 124.841 464.455C128.174 465.242 131.22 466.545 133.977 468.364C136.735 470.152 138.947 472.591 140.614 475.682C142.311 478.773 143.159 482.636 143.159 487.273V534H127.341V524.409H126.795C125.795 526.348 124.386 528.167 122.568 529.864C120.78 531.53 118.523 532.879 115.795 533.909C113.098 534.909 109.932 535.409 106.295 535.409ZM110.568 523.318C113.871 523.318 116.735 522.667 119.159 521.364C121.583 520.03 123.447 518.273 124.75 516.091C126.083 513.909 126.75 511.53 126.75 508.955V500.727C126.235 501.152 125.356 501.545 124.114 501.909C122.902 502.273 121.538 502.591 120.023 502.864C118.508 503.136 117.008 503.379 115.523 503.591C114.038 503.803 112.75 503.985 111.659 504.136C109.205 504.47 107.008 505.015 105.068 505.773C103.129 506.53 101.598 507.591 100.477 508.955C99.3561 510.288 98.7955 512.015 98.7955 514.136C98.7955 517.167 99.9015 519.455 102.114 521C104.326 522.545 107.144 523.318 110.568 523.318ZM214.886 482.636L199.886 484.273C199.462 482.758 198.72 481.333 197.659 480C196.629 478.667 195.235 477.591 193.477 476.773C191.72 475.955 189.568 475.545 187.023 475.545C183.598 475.545 180.72 476.288 178.386 477.773C176.083 479.258 174.947 481.182 174.977 483.545C174.947 485.576 175.689 487.227 177.205 488.5C178.75 489.773 181.295 490.818 184.841 491.636L196.75 494.182C203.356 495.606 208.265 497.864 211.477 500.955C214.72 504.045 216.356 508.091 216.386 513.091C216.356 517.485 215.068 521.364 212.523 524.727C210.008 528.061 206.508 530.667 202.023 532.545C197.538 534.424 192.386 535.364 186.568 535.364C178.023 535.364 171.144 533.576 165.932 530C160.72 526.394 157.614 521.379 156.614 514.955L172.659 513.409C173.386 516.561 174.932 518.939 177.295 520.545C179.659 522.152 182.735 522.955 186.523 522.955C190.432 522.955 193.568 522.152 195.932 520.545C198.326 518.939 199.523 516.955 199.523 514.591C199.523 512.591 198.75 510.939 197.205 509.636C195.689 508.333 193.326 507.333 190.114 506.636L178.205 504.136C171.508 502.742 166.553 500.394 163.341 497.091C160.129 493.758 158.538 489.545 158.568 484.455C158.538 480.152 159.705 476.424 162.068 473.273C164.462 470.091 167.78 467.636 172.023 465.909C176.295 464.152 181.22 463.273 186.795 463.273C194.977 463.273 201.417 465.015 206.114 468.5C210.841 471.985 213.765 476.697 214.886 482.636ZM240.182 560.182C237.939 560.182 235.864 560 233.955 559.636C232.076 559.303 230.576 558.909 229.455 558.455L233.273 545.636C235.667 546.333 237.803 546.667 239.682 546.636C241.561 546.606 243.212 546.015 244.636 544.864C246.091 543.742 247.318 541.864 248.318 539.227L249.727 535.455L224.409 464.182H241.864L257.955 516.909H258.682L274.818 464.182H292.318L264.364 542.455C263.061 546.152 261.333 549.318 259.182 551.955C257.03 554.621 254.394 556.652 251.273 558.045C248.182 559.47 244.485 560.182 240.182 560.182ZM370.864 502.727H386.136L395.182 514.455L401.636 522.091L417.136 542H400.773L390.227 528.636L385.727 522.273L370.864 502.727ZM419.364 487.455C419.364 497.485 417.485 506.076 413.727 513.227C410 520.348 404.909 525.803 398.455 529.591C392.03 533.379 384.742 535.273 376.591 535.273C368.439 535.273 361.136 533.379 354.682 529.591C348.258 525.773 343.167 520.303 339.409 513.182C335.682 506.03 333.818 497.455 333.818 487.455C333.818 477.424 335.682 468.848 339.409 461.727C343.167 454.576 348.258 449.106 354.682 445.318C361.136 441.53 368.439 439.636 376.591 439.636C384.742 439.636 392.03 441.53 398.455 445.318C404.909 449.106 410 454.576 413.727 461.727C417.485 468.848 419.364 477.424 419.364 487.455ZM402.409 487.455C402.409 480.394 401.303 474.439 399.091 469.591C396.909 464.712 393.879 461.03 390 458.545C386.121 456.03 381.652 454.773 376.591 454.773C371.53 454.773 367.061 456.03 363.182 458.545C359.303 461.03 356.258 464.712 354.045 469.591C351.864 474.439 350.773 480.394 350.773 487.455C350.773 494.515 351.864 500.485 354.045 505.364C356.258 510.212 359.303 513.894 363.182 516.409C367.061 518.894 371.53 520.136 376.591 520.136C381.652 520.136 386.121 518.894 390 516.409C393.879 513.894 396.909 510.212 399.091 505.364C401.303 500.485 402.409 494.515 402.409 487.455ZM451.159 440.909V534H434.705V440.909H451.159ZM574.955 534V464.182H590.682V476.045H591.5C592.955 472.045 595.364 468.924 598.727 466.682C602.091 464.409 606.106 463.273 610.773 463.273C615.5 463.273 619.485 464.424 622.727 466.727C626 469 628.303 472.106 629.636 476.045H630.364C631.909 472.167 634.515 469.076 638.182 466.773C641.879 464.439 646.258 463.273 651.318 463.273C657.742 463.273 662.985 465.303 667.045 469.364C671.106 473.424 673.136 479.348 673.136 487.136V534H656.636V489.682C656.636 485.348 655.485 482.182 653.182 480.182C650.879 478.152 648.061 477.136 644.727 477.136C640.758 477.136 637.652 478.379 635.409 480.864C633.197 483.318 632.091 486.515 632.091 490.455V534H615.955V489C615.955 485.394 614.864 482.515 612.682 480.364C610.53 478.212 607.712 477.136 604.227 477.136C601.864 477.136 599.712 477.742 597.773 478.955C595.833 480.136 594.288 481.818 593.136 484C591.985 486.152 591.409 488.667 591.409 491.545V534H574.955Z" fill="#00928F"/>
<path d="M488.17 535.409C483.746 535.409 479.761 534.621 476.216 533.045C472.701 531.439 469.913 529.076 467.852 525.955C465.822 522.833 464.807 518.985 464.807 514.409C464.807 510.47 465.534 507.212 466.989 504.636C468.443 502.061 470.428 500 472.943 498.455C475.458 496.909 478.292 495.742 481.443 494.955C484.625 494.136 487.913 493.545 491.307 493.182C495.398 492.758 498.716 492.379 501.261 492.045C503.807 491.682 505.655 491.136 506.807 490.409C507.989 489.652 508.58 488.485 508.58 486.909V486.636C508.58 483.212 507.564 480.561 505.534 478.682C503.504 476.803 500.58 475.864 496.761 475.864C492.731 475.864 489.534 476.742 487.17 478.5C484.837 480.258 483.261 482.333 482.443 484.727L467.08 482.545C468.292 478.303 470.292 474.758 473.08 471.909C475.867 469.03 479.277 466.879 483.307 465.455C487.337 464 491.792 463.273 496.67 463.273C500.034 463.273 503.383 463.667 506.716 464.455C510.049 465.242 513.095 466.545 515.852 468.364C518.61 470.152 520.822 472.591 522.489 475.682C524.186 478.773 525.034 482.636 525.034 487.273V534H509.216V524.409H508.67C507.67 526.348 506.261 528.167 504.443 529.864C502.655 531.53 500.398 532.879 497.67 533.909C494.973 534.909 491.807 535.409 488.17 535.409ZM492.443 523.318C495.746 523.318 498.61 522.667 501.034 521.364C503.458 520.03 505.322 518.273 506.625 516.091C507.958 513.909 508.625 511.53 508.625 508.955V500.727C508.11 501.152 507.231 501.545 505.989 501.909C504.777 502.273 503.413 502.591 501.898 502.864C500.383 503.136 498.883 503.379 497.398 503.591C495.913 503.803 494.625 503.985 493.534 504.136C491.08 504.47 488.883 505.015 486.943 505.773C485.004 506.53 483.473 507.591 482.352 508.955C481.231 510.288 480.67 512.015 480.67 514.136C480.67 517.167 481.777 519.455 483.989 521C486.201 522.545 489.019 523.318 492.443 523.318ZM541.58 534V464.182H558.034V534H541.58ZM549.852 454.273C547.246 454.273 545.004 453.409 543.125 451.682C541.246 449.924 540.307 447.818 540.307 445.364C540.307 442.879 541.246 440.773 543.125 439.045C545.004 437.288 547.246 436.409 549.852 436.409C552.489 436.409 554.731 437.288 556.58 439.045C558.458 440.773 559.398 442.879 559.398 445.364C559.398 447.818 558.458 449.924 556.58 451.682C554.731 453.409 552.489 454.273 549.852 454.273Z" fill="#13283E"/>
<path d="M39.7005 602.273C39.5385 600.905 38.8818 599.844 37.7303 599.088C36.5788 598.332 35.1664 597.955 33.4931 597.955C32.2696 597.955 31.199 598.152 30.2814 598.548C29.3728 598.944 28.6621 599.488 28.1493 600.181C27.6455 600.874 27.3936 601.661 27.3936 602.543C27.3936 603.28 27.5691 603.915 27.9199 604.445C28.2798 604.967 28.7386 605.403 29.2963 605.754C29.8541 606.096 30.4389 606.379 31.0506 606.604C31.6623 606.82 32.2246 606.996 32.7374 607.131L35.5442 607.886C36.2639 608.075 37.0646 608.336 37.9462 608.669C38.8368 609.002 39.687 609.456 40.4966 610.032C41.3153 610.599 41.99 611.327 42.5208 612.218C43.0516 613.109 43.3169 614.202 43.3169 615.497C43.3169 616.991 42.9256 618.34 42.1429 619.545C41.3693 620.751 40.2357 621.709 38.7424 622.42C37.258 623.13 35.4542 623.486 33.3311 623.486C31.352 623.486 29.6382 623.166 28.1898 622.528C26.7504 621.889 25.6169 620.998 24.7892 619.856C23.9706 618.713 23.5073 617.386 23.3993 615.875H26.8539C26.9438 616.919 27.2947 617.782 27.9064 618.466C28.5272 619.141 29.3098 619.644 30.2544 619.977C31.208 620.301 32.2336 620.463 33.3311 620.463C34.6086 620.463 35.7556 620.256 36.7722 619.842C37.7888 619.42 38.5939 618.835 39.1877 618.088C39.7814 617.332 40.0783 616.451 40.0783 615.443C40.0783 614.526 39.8219 613.779 39.3091 613.203C38.7963 612.627 38.1216 612.16 37.285 611.8C36.4483 611.44 35.5442 611.125 34.5726 610.855L31.1721 609.884C29.013 609.263 27.3037 608.377 26.0442 607.225C24.7847 606.074 24.155 604.567 24.155 602.705C24.155 601.157 24.5733 599.808 25.41 598.656C26.2556 597.496 27.3891 596.596 28.8105 595.957C30.2409 595.31 31.8378 594.986 33.601 594.986C35.3823 594.986 36.9656 595.305 38.351 595.944C39.7364 596.574 40.834 597.437 41.6436 598.535C42.4623 599.632 42.8941 600.878 42.9391 602.273H39.7005ZM48.3874 623V602.273H51.4641V605.511H51.734C52.1658 604.405 52.863 603.546 53.8256 602.934C54.7882 602.313 55.9442 602.003 57.2937 602.003C58.6611 602.003 59.7991 602.313 60.7077 602.934C61.6254 603.546 62.3406 604.405 62.8533 605.511H63.0692C63.6 604.441 64.3962 603.591 65.4577 602.961C66.5193 602.322 67.7923 602.003 69.2766 602.003C71.1299 602.003 72.6457 602.583 73.8242 603.744C75.0027 604.895 75.592 606.69 75.592 609.128V623H72.4073V609.128C72.4073 607.598 71.989 606.505 71.1523 605.849C70.3157 605.192 69.3306 604.864 68.1971 604.864C66.7397 604.864 65.6107 605.304 64.81 606.186C64.0094 607.059 63.609 608.165 63.609 609.506V623H60.3704V608.804C60.3704 607.625 59.988 606.676 59.2234 605.957C58.4587 605.228 57.4736 604.864 56.2681 604.864C55.4405 604.864 54.6668 605.084 53.9471 605.525C53.2364 605.966 52.6606 606.577 52.2198 607.36C51.788 608.134 51.5721 609.029 51.5721 610.045V623H48.3874ZM87.5142 623.486C86.2008 623.486 85.0088 623.238 83.9382 622.744C82.8677 622.24 82.0175 621.516 81.3878 620.571C80.758 619.617 80.4432 618.466 80.4432 617.116C80.4432 615.929 80.6771 614.966 81.1449 614.229C81.6127 613.482 82.2379 612.897 83.0206 612.474C83.8033 612.052 84.6669 611.737 85.6115 611.53C86.5651 611.314 87.5232 611.143 88.4858 611.017C89.7453 610.855 90.7663 610.734 91.549 610.653C92.3407 610.563 92.9164 610.414 93.2763 610.207C93.6451 610 93.8295 609.641 93.8295 609.128V609.02C93.8295 607.688 93.4652 606.654 92.7365 605.916C92.0168 605.179 90.9238 604.81 89.4574 604.81C87.937 604.81 86.745 605.143 85.8814 605.808C85.0178 606.474 84.4105 607.185 84.0597 607.94L81.0369 606.861C81.5767 605.601 82.2964 604.621 83.196 603.919C84.1046 603.208 85.0942 602.714 86.1648 602.435C87.2443 602.147 88.3059 602.003 89.3494 602.003C90.0152 602.003 90.7798 602.084 91.6435 602.246C92.5161 602.399 93.3572 602.718 94.1669 603.204C94.9856 603.69 95.6648 604.423 96.2045 605.403C96.7443 606.384 97.0142 607.697 97.0142 609.344V623H93.8295V620.193H93.6676C93.4517 620.643 93.0919 621.124 92.5881 621.637C92.0843 622.15 91.4141 622.586 90.5774 622.946C89.7408 623.306 88.7197 623.486 87.5142 623.486ZM88 620.625C89.2595 620.625 90.321 620.378 91.1847 619.883C92.0573 619.388 92.714 618.749 93.1548 617.967C93.6046 617.184 93.8295 616.361 93.8295 615.497V612.582C93.6946 612.744 93.3977 612.893 92.9389 613.028C92.4891 613.154 91.9673 613.266 91.3736 613.365C90.7888 613.455 90.2176 613.536 89.6598 613.608C89.111 613.671 88.6657 613.725 88.3239 613.77C87.4962 613.878 86.7225 614.053 86.0028 614.296C85.2921 614.53 84.7164 614.885 84.2756 615.362C83.8438 615.83 83.6278 616.469 83.6278 617.278C83.6278 618.385 84.0372 619.222 84.8558 619.788C85.6835 620.346 86.7315 620.625 88 620.625ZM102.827 623V602.273H105.904V605.403H106.119C106.497 604.378 107.181 603.546 108.171 602.907C109.16 602.268 110.276 601.949 111.517 601.949C111.751 601.949 112.044 601.953 112.394 601.962C112.745 601.971 113.011 601.985 113.191 602.003V605.241C113.083 605.214 112.835 605.174 112.448 605.12C112.07 605.057 111.67 605.026 111.247 605.026C110.24 605.026 109.34 605.237 108.548 605.66C107.766 606.074 107.145 606.649 106.686 607.387C106.236 608.116 106.012 608.948 106.012 609.884V623H102.827ZM127.279 602.273V604.972H116.537V602.273H127.279ZM119.668 597.307H122.852V617.062C122.852 617.962 122.983 618.637 123.244 619.087C123.514 619.527 123.856 619.824 124.269 619.977C124.692 620.121 125.137 620.193 125.605 620.193C125.956 620.193 126.244 620.175 126.469 620.139C126.694 620.094 126.874 620.058 127.009 620.031L127.656 622.892C127.441 622.973 127.139 623.054 126.752 623.135C126.365 623.225 125.875 623.27 125.281 623.27C124.382 623.27 123.5 623.076 122.637 622.69C121.782 622.303 121.071 621.714 120.504 620.922C119.947 620.13 119.668 619.132 119.668 617.926V597.307ZM140.537 623.432C138.54 623.432 136.817 622.991 135.368 622.109C133.929 621.219 132.818 619.977 132.035 618.385C131.262 616.784 130.875 614.921 130.875 612.798C130.875 610.675 131.262 608.804 132.035 607.185C132.818 605.556 133.907 604.288 135.301 603.379C136.704 602.462 138.342 602.003 140.213 602.003C141.292 602.003 142.358 602.183 143.411 602.543C144.464 602.902 145.422 603.487 146.285 604.297C147.149 605.098 147.837 606.159 148.35 607.482C148.863 608.804 149.119 610.432 149.119 612.366V613.716H133.142V610.963H145.881C145.881 609.794 145.647 608.75 145.179 607.832C144.72 606.915 144.063 606.191 143.209 605.66C142.363 605.129 141.364 604.864 140.213 604.864C138.944 604.864 137.847 605.179 136.92 605.808C136.003 606.429 135.296 607.239 134.802 608.237C134.307 609.236 134.059 610.306 134.059 611.449V613.284C134.059 614.849 134.329 616.176 134.869 617.265C135.418 618.344 136.178 619.168 137.15 619.734C138.121 620.292 139.25 620.571 140.537 620.571C141.373 620.571 142.129 620.454 142.804 620.22C143.488 619.977 144.077 619.617 144.572 619.141C145.066 618.655 145.449 618.052 145.719 617.332L148.795 618.196C148.471 619.24 147.927 620.157 147.162 620.949C146.398 621.732 145.453 622.343 144.329 622.784C143.204 623.216 141.94 623.432 140.537 623.432ZM153.964 623V602.273H157.04V605.403H157.256C157.634 604.378 158.318 603.546 159.307 602.907C160.297 602.268 161.412 601.949 162.654 601.949C162.888 601.949 163.18 601.953 163.531 601.962C163.882 601.971 164.147 601.985 164.327 602.003V605.241C164.219 605.214 163.972 605.174 163.585 605.12C163.207 605.057 162.807 605.026 162.384 605.026C161.376 605.026 160.477 605.237 159.685 605.66C158.903 606.074 158.282 606.649 157.823 607.387C157.373 608.116 157.148 608.948 157.148 609.884V623H153.964ZM201.46 604H198.114C197.916 603.037 197.569 602.192 197.075 601.463C196.589 600.734 195.995 600.123 195.293 599.628C194.601 599.124 193.831 598.746 192.986 598.494C192.14 598.242 191.259 598.116 190.341 598.116C188.668 598.116 187.152 598.539 185.793 599.385C184.444 600.231 183.369 601.477 182.568 603.123C181.777 604.769 181.381 606.789 181.381 609.182C181.381 611.575 181.777 613.594 182.568 615.241C183.369 616.887 184.444 618.133 185.793 618.979C187.152 619.824 188.668 620.247 190.341 620.247C191.259 620.247 192.14 620.121 192.986 619.869C193.831 619.617 194.601 619.244 195.293 618.749C195.995 618.246 196.589 617.629 197.075 616.901C197.569 616.163 197.916 615.317 198.114 614.364H201.46C201.208 615.776 200.75 617.04 200.084 618.156C199.418 619.271 198.59 620.22 197.601 621.003C196.611 621.777 195.5 622.366 194.268 622.771C193.044 623.175 191.735 623.378 190.341 623.378C187.984 623.378 185.888 622.802 184.053 621.651C182.217 620.499 180.773 618.862 179.721 616.739C178.668 614.616 178.142 612.097 178.142 609.182C178.142 606.267 178.668 603.748 179.721 601.625C180.773 599.502 182.217 597.865 184.053 596.713C185.888 595.562 187.984 594.986 190.341 594.986C191.735 594.986 193.044 595.188 194.268 595.593C195.5 595.998 196.611 596.592 197.601 597.374C198.59 598.148 199.418 599.093 200.084 600.208C200.75 601.315 201.208 602.579 201.46 604ZM209.621 595.364V623H206.436V595.364H209.621ZM221.553 623.486C220.24 623.486 219.048 623.238 217.977 622.744C216.907 622.24 216.057 621.516 215.427 620.571C214.797 619.617 214.482 618.466 214.482 617.116C214.482 615.929 214.716 614.966 215.184 614.229C215.652 613.482 216.277 612.897 217.06 612.474C217.842 612.052 218.706 611.737 219.651 611.53C220.604 611.314 221.562 611.143 222.525 611.017C223.784 610.855 224.805 610.734 225.588 610.653C226.38 610.563 226.955 610.414 227.315 610.207C227.684 610 227.869 609.641 227.869 609.128V609.02C227.869 607.688 227.504 606.654 226.776 605.916C226.056 605.179 224.963 604.81 223.496 604.81C221.976 604.81 220.784 605.143 219.92 605.808C219.057 606.474 218.45 607.185 218.099 607.94L215.076 606.861C215.616 605.601 216.335 604.621 217.235 603.919C218.144 603.208 219.133 602.714 220.204 602.435C221.283 602.147 222.345 602.003 223.388 602.003C224.054 602.003 224.819 602.084 225.683 602.246C226.555 602.399 227.396 602.718 228.206 603.204C229.025 603.69 229.704 604.423 230.244 605.403C230.783 606.384 231.053 607.697 231.053 609.344V623H227.869V620.193H227.707C227.491 620.643 227.131 621.124 226.627 621.637C226.123 622.15 225.453 622.586 224.616 622.946C223.78 623.306 222.759 623.486 221.553 623.486ZM222.039 620.625C223.299 620.625 224.36 620.378 225.224 619.883C226.096 619.388 226.753 618.749 227.194 617.967C227.644 617.184 227.869 616.361 227.869 615.497V612.582C227.734 612.744 227.437 612.893 226.978 613.028C226.528 613.154 226.006 613.266 225.413 613.365C224.828 613.455 224.257 613.536 223.699 613.608C223.15 613.671 222.705 613.725 222.363 613.77C221.535 613.878 220.762 614.053 220.042 614.296C219.331 614.53 218.755 614.885 218.315 615.362C217.883 615.83 217.667 616.469 217.667 617.278C217.667 618.385 218.076 619.222 218.895 619.788C219.723 620.346 220.771 620.625 222.039 620.625ZM236.866 623V602.273H240.051V623H236.866ZM238.485 598.818C237.865 598.818 237.329 598.607 236.879 598.184C236.439 597.761 236.218 597.253 236.218 596.659C236.218 596.065 236.439 595.557 236.879 595.134C237.329 594.711 237.865 594.5 238.485 594.5C239.106 594.5 239.637 594.711 240.078 595.134C240.527 595.557 240.752 596.065 240.752 596.659C240.752 597.253 240.527 597.761 240.078 598.184C239.637 598.607 239.106 598.818 238.485 598.818ZM245.884 623V602.273H248.96V605.511H249.23C249.662 604.405 250.359 603.546 251.322 602.934C252.284 602.313 253.44 602.003 254.79 602.003C256.157 602.003 257.295 602.313 258.204 602.934C259.121 603.546 259.837 604.405 260.349 605.511H260.565C261.096 604.441 261.892 603.591 262.954 602.961C264.015 602.322 265.288 602.003 266.773 602.003C268.626 602.003 270.142 602.583 271.32 603.744C272.499 604.895 273.088 606.69 273.088 609.128V623H269.903V609.128C269.903 607.598 269.485 606.505 268.648 605.849C267.812 605.192 266.827 604.864 265.693 604.864C264.236 604.864 263.107 605.304 262.306 606.186C261.505 607.059 261.105 608.165 261.105 609.506V623H257.866V608.804C257.866 607.625 257.484 606.676 256.719 605.957C255.955 605.228 254.97 604.864 253.764 604.864C252.937 604.864 252.163 605.084 251.443 605.525C250.732 605.966 250.157 606.577 249.716 607.36C249.284 608.134 249.068 609.029 249.068 610.045V623H245.884ZM293.593 606.915L290.732 607.724C290.552 607.248 290.287 606.784 289.936 606.335C289.594 605.876 289.126 605.498 288.532 605.201C287.939 604.904 287.178 604.756 286.252 604.756C284.983 604.756 283.926 605.048 283.081 605.633C282.244 606.209 281.826 606.942 281.826 607.832C281.826 608.624 282.114 609.249 282.689 609.708C283.265 610.167 284.165 610.549 285.388 610.855L288.465 611.611C290.318 612.061 291.699 612.749 292.608 613.675C293.516 614.593 293.971 615.776 293.971 617.224C293.971 618.412 293.629 619.473 292.945 620.409C292.27 621.345 291.326 622.082 290.111 622.622C288.897 623.162 287.484 623.432 285.874 623.432C283.76 623.432 282.01 622.973 280.625 622.055C279.239 621.138 278.362 619.797 277.993 618.034L281.016 617.278C281.304 618.394 281.848 619.231 282.649 619.788C283.458 620.346 284.516 620.625 285.82 620.625C287.304 620.625 288.483 620.31 289.355 619.68C290.237 619.042 290.678 618.277 290.678 617.386C290.678 616.667 290.426 616.064 289.922 615.578C289.418 615.083 288.645 614.714 287.601 614.472L284.147 613.662C282.248 613.212 280.854 612.515 279.963 611.57C279.082 610.617 278.641 609.425 278.641 607.994C278.641 606.825 278.969 605.79 279.626 604.891C280.292 603.991 281.196 603.285 282.338 602.772C283.49 602.259 284.794 602.003 286.252 602.003C288.303 602.003 289.913 602.453 291.083 603.352C292.261 604.252 293.098 605.439 293.593 606.915ZM301.085 623.216C300.42 623.216 299.848 622.978 299.372 622.501C298.895 622.024 298.656 621.453 298.656 620.787C298.656 620.121 298.895 619.55 299.372 619.073C299.848 618.596 300.42 618.358 301.085 618.358C301.751 618.358 302.322 618.596 302.799 619.073C303.276 619.55 303.514 620.121 303.514 620.787C303.514 621.228 303.402 621.633 303.177 622.001C302.961 622.37 302.669 622.667 302.3 622.892C301.94 623.108 301.535 623.216 301.085 623.216ZM320.349 623V595.364H336.92V598.332H323.695V607.67H335.678V610.639H323.695V623H320.349ZM348.319 623.486C347.005 623.486 345.813 623.238 344.743 622.744C343.672 622.24 342.822 621.516 342.192 620.571C341.563 619.617 341.248 618.466 341.248 617.116C341.248 615.929 341.482 614.966 341.95 614.229C342.417 613.482 343.043 612.897 343.825 612.474C344.608 612.052 345.472 611.737 346.416 611.53C347.37 611.314 348.328 611.143 349.29 611.017C350.55 610.855 351.571 610.734 352.354 610.653C353.145 610.563 353.721 610.414 354.081 610.207C354.45 610 354.634 609.641 354.634 609.128V609.02C354.634 607.688 354.27 606.654 353.541 605.916C352.821 605.179 351.728 604.81 350.262 604.81C348.742 604.81 347.55 605.143 346.686 605.808C345.822 606.474 345.215 607.185 344.864 607.94L341.842 606.861C342.381 605.601 343.101 604.621 344.001 603.919C344.909 603.208 345.899 602.714 346.969 602.435C348.049 602.147 349.111 602.003 350.154 602.003C350.82 602.003 351.585 602.084 352.448 602.246C353.321 602.399 354.162 602.718 354.972 603.204C355.79 603.69 356.469 604.423 357.009 605.403C357.549 606.384 357.819 607.697 357.819 609.344V623H354.634V620.193H354.472C354.256 620.643 353.897 621.124 353.393 621.637C352.889 622.15 352.219 622.586 351.382 622.946C350.545 623.306 349.524 623.486 348.319 623.486ZM348.805 620.625C350.064 620.625 351.126 620.378 351.989 619.883C352.862 619.388 353.519 618.749 353.96 617.967C354.409 617.184 354.634 616.361 354.634 615.497V612.582C354.499 612.744 354.202 612.893 353.744 613.028C353.294 613.154 352.772 613.266 352.178 613.365C351.594 613.455 351.022 613.536 350.464 613.608C349.916 613.671 349.47 613.725 349.129 613.77C348.301 613.878 347.527 614.053 346.808 614.296C346.097 614.53 345.521 614.885 345.08 615.362C344.648 615.83 344.433 616.469 344.433 617.278C344.433 618.385 344.842 619.222 345.661 619.788C346.488 620.346 347.536 620.625 348.805 620.625ZM378.313 606.915L375.453 607.724C375.273 607.248 375.007 606.784 374.656 606.335C374.315 605.876 373.847 605.498 373.253 605.201C372.659 604.904 371.899 604.756 370.972 604.756C369.704 604.756 368.647 605.048 367.801 605.633C366.965 606.209 366.546 606.942 366.546 607.832C366.546 608.624 366.834 609.249 367.41 609.708C367.986 610.167 368.885 610.549 370.109 610.855L373.186 611.611C375.039 612.061 376.42 612.749 377.328 613.675C378.237 614.593 378.691 615.776 378.691 617.224C378.691 618.412 378.349 619.473 377.666 620.409C376.991 621.345 376.046 622.082 374.832 622.622C373.617 623.162 372.205 623.432 370.595 623.432C368.481 623.432 366.731 622.973 365.345 622.055C363.96 621.138 363.083 619.797 362.714 618.034L365.737 617.278C366.025 618.394 366.569 619.231 367.369 619.788C368.179 620.346 369.236 620.625 370.541 620.625C372.025 620.625 373.204 620.31 374.076 619.68C374.958 619.042 375.399 618.277 375.399 617.386C375.399 616.667 375.147 616.064 374.643 615.578C374.139 615.083 373.365 614.714 372.322 614.472L368.867 613.662C366.969 613.212 365.575 612.515 364.684 611.57C363.802 610.617 363.362 609.425 363.362 607.994C363.362 606.825 363.69 605.79 364.347 604.891C365.012 603.991 365.917 603.285 367.059 602.772C368.211 602.259 369.515 602.003 370.972 602.003C373.024 602.003 374.634 602.453 375.803 603.352C376.982 604.252 377.819 605.439 378.313 606.915ZM392.499 602.273V604.972H381.758V602.273H392.499ZM384.888 597.307H388.073V617.062C388.073 617.962 388.204 618.637 388.464 619.087C388.734 619.527 389.076 619.824 389.49 619.977C389.913 620.121 390.358 620.193 390.826 620.193C391.177 620.193 391.465 620.175 391.69 620.139C391.915 620.094 392.094 620.058 392.229 620.031L392.877 622.892C392.661 622.973 392.36 623.054 391.973 623.135C391.586 623.225 391.096 623.27 390.502 623.27C389.603 623.27 388.721 623.076 387.857 622.69C387.003 622.303 386.292 621.714 385.725 620.922C385.167 620.13 384.888 619.132 384.888 617.926V597.307ZM405.757 623.432C403.76 623.432 402.038 622.991 400.589 622.109C399.15 621.219 398.039 619.977 397.256 618.385C396.482 616.784 396.096 614.921 396.096 612.798C396.096 610.675 396.482 608.804 397.256 607.185C398.039 605.556 399.127 604.288 400.522 603.379C401.925 602.462 403.562 602.003 405.434 602.003C406.513 602.003 407.579 602.183 408.632 602.543C409.684 602.902 410.642 603.487 411.506 604.297C412.37 605.098 413.058 606.159 413.571 607.482C414.083 608.804 414.34 610.432 414.34 612.366V613.716H398.363V610.963H411.101C411.101 609.794 410.867 608.75 410.4 607.832C409.941 606.915 409.284 606.191 408.429 605.66C407.584 605.129 406.585 604.864 405.434 604.864C404.165 604.864 403.068 605.179 402.141 605.808C401.223 606.429 400.517 607.239 400.022 608.237C399.528 609.236 399.28 610.306 399.28 611.449V613.284C399.28 614.849 399.55 616.176 400.09 617.265C400.639 618.344 401.399 619.168 402.37 619.734C403.342 620.292 404.471 620.571 405.757 620.571C406.594 620.571 407.35 620.454 408.025 620.22C408.708 619.977 409.297 619.617 409.792 619.141C410.287 618.655 410.669 618.052 410.939 617.332L414.016 618.196C413.692 619.24 413.148 620.157 412.383 620.949C411.618 621.732 410.674 622.343 409.549 622.784C408.425 623.216 407.161 623.432 405.757 623.432ZM419.184 623V602.273H422.261V605.403H422.477C422.855 604.378 423.538 603.546 424.528 602.907C425.518 602.268 426.633 601.949 427.875 601.949C428.109 601.949 428.401 601.953 428.752 601.962C429.103 601.971 429.368 601.985 429.548 602.003V605.241C429.44 605.214 429.193 605.174 428.806 605.12C428.428 605.057 428.028 605.026 427.605 605.026C426.597 605.026 425.698 605.237 424.906 605.66C424.123 606.074 423.502 606.649 423.044 607.387C422.594 608.116 422.369 608.948 422.369 609.884V623H419.184ZM459.556 602.273C459.394 600.905 458.737 599.844 457.586 599.088C456.434 598.332 455.022 597.955 453.349 597.955C452.125 597.955 451.055 598.152 450.137 598.548C449.228 598.944 448.518 599.488 448.005 600.181C447.501 600.874 447.249 601.661 447.249 602.543C447.249 603.28 447.425 603.915 447.775 604.445C448.135 604.967 448.594 605.403 449.152 605.754C449.71 606.096 450.294 606.379 450.906 606.604C451.518 606.82 452.08 606.996 452.593 607.131L455.4 607.886C456.119 608.075 456.92 608.336 457.802 608.669C458.692 609.002 459.542 609.456 460.352 610.032C461.171 610.599 461.845 611.327 462.376 612.218C462.907 613.109 463.172 614.202 463.172 615.497C463.172 616.991 462.781 618.34 461.998 619.545C461.225 620.751 460.091 621.709 458.598 622.42C457.113 623.13 455.31 623.486 453.187 623.486C451.207 623.486 449.494 623.166 448.045 622.528C446.606 621.889 445.472 620.998 444.645 619.856C443.826 618.713 443.363 617.386 443.255 615.875H446.709C446.799 616.919 447.15 617.782 447.762 618.466C448.383 619.141 449.165 619.644 450.11 619.977C451.064 620.301 452.089 620.463 453.187 620.463C454.464 620.463 455.611 620.256 456.628 619.842C457.644 619.42 458.449 618.835 459.043 618.088C459.637 617.332 459.934 616.451 459.934 615.443C459.934 614.526 459.677 613.779 459.165 613.203C458.652 612.627 457.977 612.16 457.14 611.8C456.304 611.44 455.4 611.125 454.428 610.855L451.028 609.884C448.868 609.263 447.159 608.377 445.9 607.225C444.64 606.074 444.01 604.567 444.01 602.705C444.01 601.157 444.429 599.808 445.265 598.656C446.111 597.496 447.245 596.596 448.666 595.957C450.096 595.31 451.693 594.986 453.456 594.986C455.238 594.986 456.821 595.305 458.206 595.944C459.592 596.574 460.689 597.437 461.499 598.535C462.318 599.632 462.75 600.878 462.795 602.273H459.556ZM476.933 623.432C474.936 623.432 473.213 622.991 471.765 622.109C470.326 621.219 469.214 619.977 468.432 618.385C467.658 616.784 467.271 614.921 467.271 612.798C467.271 610.675 467.658 608.804 468.432 607.185C469.214 605.556 470.303 604.288 471.697 603.379C473.101 602.462 474.738 602.003 476.609 602.003C477.689 602.003 478.755 602.183 479.808 602.543C480.86 602.902 481.818 603.487 482.682 604.297C483.545 605.098 484.234 606.159 484.746 607.482C485.259 608.804 485.516 610.432 485.516 612.366V613.716H469.538V610.963H482.277C482.277 609.794 482.043 608.75 481.575 607.832C481.116 606.915 480.46 606.191 479.605 605.66C478.759 605.129 477.761 604.864 476.609 604.864C475.341 604.864 474.243 605.179 473.317 605.808C472.399 606.429 471.693 607.239 471.198 608.237C470.703 609.236 470.456 610.306 470.456 611.449V613.284C470.456 614.849 470.726 616.176 471.266 617.265C471.814 618.344 472.575 619.168 473.546 619.734C474.518 620.292 475.647 620.571 476.933 620.571C477.77 620.571 478.526 620.454 479.2 620.22C479.884 619.977 480.473 619.617 480.968 619.141C481.463 618.655 481.845 618.052 482.115 617.332L485.192 618.196C484.868 619.24 484.324 620.157 483.559 620.949C482.794 621.732 481.85 622.343 480.725 622.784C479.601 623.216 478.337 623.432 476.933 623.432ZM499.374 602.273V604.972H488.633V602.273H499.374ZM491.763 597.307H494.948V617.062C494.948 617.962 495.079 618.637 495.339 619.087C495.609 619.527 495.951 619.824 496.365 619.977C496.788 620.121 497.233 620.193 497.701 620.193C498.052 620.193 498.34 620.175 498.565 620.139C498.79 620.094 498.969 620.058 499.104 620.031L499.752 622.892C499.536 622.973 499.235 623.054 498.848 623.135C498.461 623.225 497.971 623.27 497.377 623.27C496.478 623.27 495.596 623.076 494.732 622.69C493.878 622.303 493.167 621.714 492.6 620.922C492.042 620.13 491.763 619.132 491.763 617.926V597.307ZM513.179 602.273V604.972H502.438V602.273H513.179ZM505.568 597.307H508.753V617.062C508.753 617.962 508.883 618.637 509.144 619.087C509.414 619.527 509.756 619.824 510.17 619.977C510.593 620.121 511.038 620.193 511.506 620.193C511.857 620.193 512.144 620.175 512.369 620.139C512.594 620.094 512.774 620.058 512.909 620.031L513.557 622.892C513.341 622.973 513.04 623.054 512.653 623.135C512.266 623.225 511.776 623.27 511.182 623.27C510.282 623.27 509.401 623.076 508.537 622.69C507.682 622.303 506.972 621.714 506.405 620.922C505.847 620.13 505.568 619.132 505.568 617.926V597.307ZM521.599 595.364V623H518.415V595.364H521.599ZM536.123 623.432C534.126 623.432 532.403 622.991 530.954 622.109C529.515 621.219 528.404 619.977 527.621 618.385C526.848 616.784 526.461 614.921 526.461 612.798C526.461 610.675 526.848 608.804 527.621 607.185C528.404 605.556 529.492 604.288 530.887 603.379C532.29 602.462 533.928 602.003 535.799 602.003C536.878 602.003 537.944 602.183 538.997 602.543C540.05 602.902 541.008 603.487 541.871 604.297C542.735 605.098 543.423 606.159 543.936 607.482C544.449 608.804 544.705 610.432 544.705 612.366V613.716H528.728V610.963H541.466C541.466 609.794 541.233 608.75 540.765 607.832C540.306 606.915 539.649 606.191 538.795 605.66C537.949 605.129 536.95 604.864 535.799 604.864C534.53 604.864 533.433 605.179 532.506 605.808C531.589 606.429 530.882 607.239 530.388 608.237C529.893 609.236 529.645 610.306 529.645 611.449V613.284C529.645 614.849 529.915 616.176 530.455 617.265C531.004 618.344 531.764 619.168 532.736 619.734C533.707 620.292 534.836 620.571 536.123 620.571C536.959 620.571 537.715 620.454 538.39 620.22C539.073 619.977 539.663 619.617 540.157 619.141C540.652 618.655 541.035 618.052 541.305 617.332L544.381 618.196C544.057 619.24 543.513 620.157 542.748 620.949C541.984 621.732 541.039 622.343 539.915 622.784C538.79 623.216 537.526 623.432 536.123 623.432ZM549.55 623V602.273H552.626V605.511H552.896C553.328 604.405 554.025 603.546 554.988 602.934C555.95 602.313 557.106 602.003 558.456 602.003C559.823 602.003 560.961 602.313 561.87 602.934C562.787 603.546 563.503 604.405 564.015 605.511H564.231C564.762 604.441 565.558 603.591 566.62 602.961C567.681 602.322 568.954 602.003 570.439 602.003C572.292 602.003 573.808 602.583 574.986 603.744C576.165 604.895 576.754 606.69 576.754 609.128V623H573.569V609.128C573.569 607.598 573.151 606.505 572.314 605.849C571.478 605.192 570.493 604.864 569.359 604.864C567.902 604.864 566.773 605.304 565.972 606.186C565.171 607.059 564.771 608.165 564.771 609.506V623H561.532V608.804C561.532 607.625 561.15 606.676 560.385 605.957C559.621 605.228 558.636 604.864 557.43 604.864C556.603 604.864 555.829 605.084 555.109 605.525C554.398 605.966 553.823 606.577 553.382 607.36C552.95 608.134 552.734 609.029 552.734 610.045V623H549.55ZM591.267 623.432C589.27 623.432 587.547 622.991 586.099 622.109C584.66 621.219 583.548 619.977 582.766 618.385C581.992 616.784 581.605 614.921 581.605 612.798C581.605 610.675 581.992 608.804 582.766 607.185C583.548 605.556 584.637 604.288 586.031 603.379C587.435 602.462 589.072 602.003 590.943 602.003C592.023 602.003 593.089 602.183 594.142 602.543C595.194 602.902 596.152 603.487 597.016 604.297C597.879 605.098 598.568 606.159 599.08 607.482C599.593 608.804 599.85 610.432 599.85 612.366V613.716H583.872V610.963H596.611C596.611 609.794 596.377 608.75 595.909 607.832C595.45 606.915 594.794 606.191 593.939 605.66C593.093 605.129 592.095 604.864 590.943 604.864C589.675 604.864 588.577 605.179 587.651 605.808C586.733 606.429 586.027 607.239 585.532 608.237C585.037 609.236 584.79 610.306 584.79 611.449V613.284C584.79 614.849 585.06 616.176 585.6 617.265C586.148 618.344 586.909 619.168 587.88 619.734C588.852 620.292 589.981 620.571 591.267 620.571C592.104 620.571 592.86 620.454 593.534 620.22C594.218 619.977 594.807 619.617 595.302 619.141C595.797 618.655 596.179 618.052 596.449 617.332L599.526 618.196C599.202 619.24 598.658 620.157 597.893 620.949C597.128 621.732 596.184 622.343 595.059 622.784C593.935 623.216 592.671 623.432 591.267 623.432ZM607.879 610.531V623H604.694V602.273H607.771V605.511H608.041C608.526 604.459 609.264 603.613 610.254 602.974C611.243 602.327 612.521 602.003 614.086 602.003C615.49 602.003 616.718 602.291 617.77 602.866C618.823 603.433 619.641 604.297 620.226 605.457C620.811 606.609 621.103 608.066 621.103 609.83V623H617.919V610.045C617.919 608.417 617.496 607.149 616.65 606.24C615.804 605.322 614.644 604.864 613.169 604.864C612.152 604.864 611.243 605.084 610.443 605.525C609.651 605.966 609.026 606.609 608.567 607.455C608.108 608.3 607.879 609.326 607.879 610.531ZM635.937 602.273V604.972H625.195V602.273H635.937ZM628.326 597.307H631.511V617.062C631.511 617.962 631.641 618.637 631.902 619.087C632.172 619.527 632.514 619.824 632.928 619.977C633.35 620.121 633.796 620.193 634.263 620.193C634.614 620.193 634.902 620.175 635.127 620.139C635.352 620.094 635.532 620.058 635.667 620.031L636.315 622.892C636.099 622.973 635.797 623.054 635.411 623.135C635.024 623.225 634.533 623.27 633.94 623.27C633.04 623.27 632.158 623.076 631.295 622.69C630.44 622.303 629.729 621.714 629.163 620.922C628.605 620.13 628.326 619.132 628.326 617.926V597.307ZM655.038 606.915L652.177 607.724C651.997 607.248 651.732 606.784 651.381 606.335C651.039 605.876 650.571 605.498 649.978 605.201C649.384 604.904 648.624 604.756 647.697 604.756C646.429 604.756 645.372 605.048 644.526 605.633C643.689 606.209 643.271 606.942 643.271 607.832C643.271 608.624 643.559 609.249 644.135 609.708C644.71 610.167 645.61 610.549 646.833 610.855L649.91 611.611C651.763 612.061 653.144 612.749 654.053 613.675C654.962 614.593 655.416 615.776 655.416 617.224C655.416 618.412 655.074 619.473 654.39 620.409C653.716 621.345 652.771 622.082 651.556 622.622C650.342 623.162 648.93 623.432 647.319 623.432C645.205 623.432 643.455 622.973 642.07 622.055C640.685 621.138 639.807 619.797 639.439 618.034L642.461 617.278C642.749 618.394 643.293 619.231 644.094 619.788C644.904 620.346 645.961 620.625 647.265 620.625C648.75 620.625 649.928 620.31 650.801 619.68C651.682 619.042 652.123 618.277 652.123 617.386C652.123 616.667 651.871 616.064 651.368 615.578C650.864 615.083 650.09 614.714 649.047 614.472L645.592 613.662C643.694 613.212 642.299 612.515 641.409 611.57C640.527 610.617 640.086 609.425 640.086 607.994C640.086 606.825 640.415 605.79 641.071 604.891C641.737 603.991 642.641 603.285 643.784 602.772C644.935 602.259 646.24 602.003 647.697 602.003C649.748 602.003 651.359 602.453 652.528 603.352C653.707 604.252 654.543 605.439 655.038 606.915ZM662.531 623.216C661.865 623.216 661.294 622.978 660.817 622.501C660.34 622.024 660.102 621.453 660.102 620.787C660.102 620.121 660.34 619.55 660.817 619.073C661.294 618.596 661.865 618.358 662.531 618.358C663.196 618.358 663.768 618.596 664.244 619.073C664.721 619.55 664.96 620.121 664.96 620.787C664.96 621.228 664.847 621.633 664.622 622.001C664.406 622.37 664.114 622.667 663.745 622.892C663.385 623.108 662.981 623.216 662.531 623.216Z" fill="#1E3754"/>
<path d="M162.056 346.999C159.686 338.488 157.316 329.978 154.836 320.68C153.996 314.275 153.267 308.658 152.539 303.041C152.713 295.267 152.986 287.494 152.977 279.72C152.975 278.164 151.928 276.596 151.304 275.057C150.189 272.306 149.029 269.574 148.052 266.12C149.205 264.302 150.032 262.491 151.213 262.219C155.513 261.23 155.779 257.895 156.817 254.552C161.689 238.874 166.777 223.262 171.925 207.671C172.738 205.207 173.183 203.415 171.51 200.846C165.77 192.03 171.127 182.383 181.682 181.583C183.373 181.455 185.491 180.144 186.48 178.728C191.143 172.058 195.064 164.838 200.035 158.422C207.253 149.107 215.145 140.315 222.75 131.299C225.459 129.727 226.602 127.747 225.749 124.365C225.332 122.712 226.533 120.65 227.335 118.356C227.917 117.753 228.057 117.507 228.089 117.198C228.975 116.776 229.861 116.353 231.402 115.759C234.629 115.787 237.908 117.105 239.655 116C249.055 110.06 258.086 103.533 267.202 97.1489C267.833 96.7074 268.07 95.7402 268.585 95.0931C278.205 83.013 287.719 70.8452 297.567 58.9543C299.613 56.4838 300.51 54.8303 299.224 51.6097C297.285 46.7529 299.261 41.2853 303.229 38.1721C307.171 35.0797 312.688 34.7699 317.299 37.4238C318.432 38.0761 319.499 38.8449 319.967 39.1504C331.244 32.7757 342.034 26.5641 352.955 20.5942C355.252 19.3388 356.791 18.4667 357.25 15.3869C358.177 9.1727 365.002 6.4108 369.771 10.2694C372.146 12.1906 373.974 11.9545 376.507 11.3519C387.974 8.62406 399.487 6.09226 410.984 3.48984C422.381 3.62296 433.778 3.75607 445.985 3.9697C450.196 4.67987 453.598 5.30957 457 5.93927C458.679 6.4679 460.358 6.99652 462.413 7.58341C464.131 7.08017 465.786 6.84235 466.761 5.90112C470.992 1.81983 475.329 0.666139 479.861 2.76465C484.936 5.11478 486.838 9.19327 486.289 15.5135C486.158 17.0185 486.74 19.2209 487.814 20.1024C516.147 43.3464 526.01 74.7924 527.892 109.809C528.07 113.13 527.936 116.47 527.879 119.801C527.798 124.612 526.449 129.452 532.583 132.522C534.404 133.433 535.13 138.535 534.7 141.474C534.035 146.017 530.36 148.351 526.07 148.545C522.45 160.434 519.395 172.167 515.263 183.508C511.857 192.858 507.02 201.677 503.155 210.873C502.003 213.614 501.531 216.836 501.543 219.835C501.585 230.629 501.967 241.422 502.158 252.94C502.366 254.184 502.636 254.703 502.907 255.221C502.994 255.615 503.08 256.009 503.059 256.997C502.654 257.714 502.346 257.964 502.064 257.938C497.532 257.509 494.239 259.569 494.308 263.104C494.376 266.619 496.593 268.908 499.934 268.75C503.921 268.561 506.199 266.238 505.327 261.748C505.224 261.215 506.46 260.423 507.076 259.752C507.108 259.966 507.141 260.18 507.184 260.954C507.362 261.846 507.633 262.002 508.005 261.981C508.058 262.441 508.11 262.901 507.859 263.804C507.457 264.835 507.359 265.424 507.262 266.012C506.673 270.205 503.559 271.404 500.069 271.487C496.27 271.578 493.26 269.78 492.013 265.977C490.856 262.446 491.573 258.793 494.828 257.192C499.552 254.868 499.78 251.04 499.721 246.881C499.604 238.649 499.338 230.42 499.134 222.189C498.597 222.079 498.06 221.97 497.523 221.86C496.562 223.119 495.498 224.314 494.657 225.648C480.447 248.186 463.356 268.214 443.874 286.436C437.066 292.804 432.386 301.466 426.894 309.195C426.351 309.959 427.05 311.529 426.971 312.712C426.761 315.846 427.514 319.857 425.865 321.853C424.195 323.876 420.121 323.949 417.075 324.785C415.522 325.211 413.324 324.88 412.419 325.837C397.031 342.137 380.124 356.618 361.778 368.571C361.778 371.829 362.36 374.727 361.668 377.28C359.724 384.441 351.115 387.103 344.64 382.521C342.308 380.871 340.599 380.549 337.953 381.662C315.56 391.081 292.453 397.751 268.07 399.444C266.724 399.538 265.073 400.696 264.244 401.848C260.114 407.59 256.935 408.622 249.845 405.886C246.261 400.138 241.202 398.303 234.499 398.956C234.016 398.98 234.146 398.885 234.146 398.885C232.016 398.178 229.886 397.47 226.997 396.867C223.185 395.883 220.132 394.794 216.806 393.482C214.354 392.513 212.175 391.768 209.865 390.924C209.735 390.825 209.411 390.864 209.221 390.499C210.03 389.551 211.177 388.314 211.999 388.501C215.019 389.189 217.93 390.351 221.192 391.548C227.333 392.969 233.164 394.175 239.336 395.533C241.437 395.728 243.195 395.772 245.286 395.752C250.91 386.9 256.198 385.861 263.52 392.585C264.471 395.816 266.247 396.724 269.188 396.261C275.809 395.217 282.467 394.409 289.524 393.474C295.624 391.973 301.312 390.502 307.386 389.031C311.59 387.85 315.408 386.671 319.603 385.425C325.547 383.222 331.1 381.046 336.689 378.967C339.232 378.021 340.439 376.801 340.512 373.621C340.701 365.31 349.009 360.456 356.102 364.527C359.02 366.201 360.841 365.883 363.086 363.995C364.724 362.617 366.491 361.391 368.519 359.999C371.63 357.752 374.425 355.604 377.535 353.312C383.244 348.448 388.638 343.728 394.342 338.888C397.845 335.668 401.038 332.569 404.528 329.295C408.602 325.551 412.721 322.575 411.938 316.042C411.435 311.845 415.121 308.864 419.332 308.923C422.792 308.971 424.398 307.402 425.99 304.991C427.447 302.782 429.002 300.638 430.659 298.242C430.375 297.79 429.946 297.562 429.198 297.469C420.45 302.444 412.021 307.282 403.287 312.129C402.056 312.672 401.13 313.205 399.77 313.746C397.842 316.012 396.348 318.27 394.559 320.73C391.491 322.211 388.717 323.49 385.763 324.654C385.581 324.539 385.154 324.584 384.878 324.418C382.757 323.159 380.913 322.065 378.961 320.638C376.902 320.222 374.951 320.139 372.599 320.023C369.798 320.396 367.398 320.801 364.66 321.158C363.214 321.335 362.105 321.56 360.529 321.742C347.112 322.553 334.321 321.573 322.03 318.236C323.725 317.4 325.11 316.717 326.816 316.32C342.158 319.659 357.188 319.957 372.259 316.889C375.173 316.296 377.093 315.501 378.13 312.082C379.977 305.99 388.2 303.289 392.229 307.867C396.235 312.42 399.313 310.447 403.017 308.81C405.907 307.533 408.973 306.446 411.529 304.658C421.162 297.921 432.275 292.356 439.734 283.686C449.67 272.139 455.006 257.301 459.604 242.601C460.352 240.211 460.141 238.547 457.914 236.594C452.006 231.415 453.637 223.132 460.85 219.963C462.176 219.38 463.57 218.953 464.956 218.445C469.326 190.186 464.284 163.582 452.942 137.925C452.683 137.339 451.747 137.052 451.112 136.273C450.46 134.893 449.823 133.865 449.012 132.624C448.258 131.709 447.678 131.007 447.218 130.001C447.713 128.481 448.09 127.266 448.525 126.41C450.661 128.909 452.589 131.224 454.841 133.16C472.112 148.01 484.82 166.075 492.977 187.302C495.646 194.249 497.827 201.384 500.277 208.566C500.588 208.18 500.925 207.872 501.129 207.492C510.649 189.791 517.44 171.079 521.48 151.408C521.798 149.864 520.5 147.522 519.258 146.207C514.468 141.134 514.922 133.478 520.971 130.543C524.032 129.058 524.857 127.11 524.683 124.355C523.857 111.266 523.996 97.9953 521.763 85.1415C517.578 61.0441 506.767 40.1271 487.731 24.0433C485.398 22.0724 483.655 20.6842 480.051 22.8113C473.66 26.5829 465.653 22.5108 464.397 15.0641C463.84 11.7596 462.413 10.6905 459.6 9.92526C431.234 2.20908 403.522 5.61267 376.184 14.8433C374.825 15.3019 373.495 17.0316 372.942 18.4728C370.908 23.7758 366.499 26.1209 361.452 23.3894C358.226 21.6432 355.807 22.2552 353.146 23.8084C343.81 29.2579 334.467 34.6981 325.216 40.2885C323.994 41.0266 323.286 42.6133 322.34 43.8069C323.885 44.7297 325.325 46.1194 326.994 46.4955C334.765 48.2466 342.878 48.9009 350.352 51.4563C366.483 56.971 381.532 64.7421 394.216 76.7199C393.865 77.3912 393.53 77.7932 392.853 78.0648C380.455 68.9779 367.87 60.7613 353.648 55.8255C343.873 52.433 333.576 50.5464 323.736 48.0437C318.756 59.8961 315.745 61.3102 304.319 58.6606C303.229 58.408 301.382 59.1428 300.635 60.0415C291.734 70.7576 282.974 81.5918 273.981 92.5907C273.742 93.1931 273.701 93.5998 273.659 94.0065C274.249 93.8299 274.838 93.6534 275.774 93.3794C281.639 90.9906 287.077 88.4766 292.69 86.4456C320.088 76.5318 347.845 75.6792 375.454 83.6413C374.302 84.2919 373.587 84.8012 372.449 85.2986C371.041 85.1192 370.046 84.9966 369.073 84.7779C334.904 77.1004 302.62 82.4205 272.025 98.9918C270.109 100.03 268.085 101.758 267.205 103.669C262.965 112.878 259.132 122.274 255.082 131.573C253.903 134.281 254.093 136.205 256.354 138.598C260.486 142.971 259.751 149.281 255.06 152.585C253.105 153.961 250.64 154.613 248.242 155.666C241.682 191.616 241.896 227.396 252.076 262.967C251.244 264.082 250.703 265.028 250.069 265.598C239.212 229.763 238.743 193.803 244.547 157.494C244.819 155.793 243.857 153.404 242.662 152.046C237.326 145.976 239.185 137.458 246.73 135.948C250.161 135.261 251.413 133.652 252.122 130.654C252.616 128.564 253.484 126.548 254.324 124.557C257.125 117.913 259.988 111.295 263.439 103.238C256.093 108.422 249.87 112.568 243.98 117.144C242.525 118.275 241.541 120.76 241.402 122.698C241.006 128.248 237.415 131.359 231.846 131.149C229.764 131.07 226.92 131.955 225.622 133.445C216.552 143.851 207.577 154.357 199.031 165.194C194.633 170.772 191.179 177.095 187.398 182.928C194.423 191.505 194.509 194.737 188.032 204.002C191.124 208.327 193.819 213.257 197.582 217.156C213.175 233.311 229.074 249.171 244.918 265.083C246.387 266.558 248.258 267.633 249.953 269.268C249.54 270.469 249.116 271.296 248.39 272.003C225.723 250.999 202.074 231.334 185.47 205.882C176.959 203.204 174.209 208.231 172.286 214.589C168.053 228.585 163.605 242.519 159.605 256.581C159.08 258.427 160.102 261.314 161.383 262.96C165.128 267.769 164.317 272.976 159.034 276C157.82 276.694 156.242 278.078 156.163 279.236C154.394 305.191 156.835 330.452 169.124 353.989C170.215 356.078 171.146 358.25 172.392 360.894C166.827 360.856 166.955 356.334 164.939 353.646C164.022 351.195 163.039 349.097 162.056 346.999ZM459.324 141.707C458.949 141.568 458.574 141.429 458.199 141.29C458.321 141.991 458.443 142.691 458.704 144.116C467.808 167.471 471.928 191.467 468.225 216.525C468.035 217.81 468.816 219.784 469.823 220.602C473.339 223.454 475.449 226.773 474.544 231.386C473.638 236.005 470.532 238.35 466.06 239.47C464.816 239.781 463.45 241.239 462.916 242.499C458.572 252.747 454.412 263.074 449.778 273.734C449.717 274.111 449.655 274.488 449.594 274.865C450.183 274.707 450.773 274.55 451.946 274.069C469.287 257.5 483.48 238.472 495.552 217.835C496.697 215.878 497.342 212.995 496.878 210.829C491.202 184.338 479.513 161.037 459.324 141.707ZM318.98 42.8732C318.353 42.1011 317.841 41.1847 317.081 40.5814C313.349 37.6207 309.387 37.6575 305.551 40.2479C301.731 42.8283 300.678 47.7636 302.661 52.3046C304.584 56.7098 308.187 57.9185 312.501 57.1153C317.158 56.2482 319.649 53.0582 320.063 48.4355C320.205 46.8519 319.61 45.2023 318.98 42.8732ZM186.758 200.291C189.915 197.396 191.285 193.699 189.071 190.031C187.713 187.782 184.965 185.616 182.449 184.989C178.135 183.915 174.777 186.314 172.879 190.37C171.122 194.127 171.836 197.641 174.77 200.391C178.319 203.719 182.276 203.3 186.758 200.291ZM468.929 18.5281C472.429 21.8408 476.726 22.6284 480.162 19.5193C482.198 17.6761 483.561 13.7234 483.246 10.944C482.671 5.87631 477.36 3.53992 472.489 5.13385C468.353 6.48703 464.697 12.5153 468.929 18.5281ZM349.003 366.034C344.902 367.285 342.664 370.442 343.444 374.284C343.984 376.948 346.282 380.535 348.552 381.227C351.089 382.001 355.255 380.791 357.259 378.903C358.886 377.369 359.334 373.252 358.572 370.825C357.41 367.126 353.992 365.304 349.003 366.034ZM468.256 235.811C472.325 232.322 473.278 228.421 470.595 225.115C467.977 221.888 464.582 220.904 460.861 223.126C457.655 225.039 456.199 227.995 457.773 231.615C459.628 235.882 463.022 237.369 468.256 235.811ZM253.205 139.15C250.427 139.261 247.239 138.592 245.012 139.757C243.502 140.547 242.263 144.268 242.845 146.04C243.584 148.291 246.038 150.936 248.223 151.465C250.13 151.927 253.325 150.243 254.82 148.523C257.286 145.687 256.414 142.365 253.205 139.15ZM527.955 132.186C526.802 132.127 525.245 131.566 524.573 132.106C522.534 133.743 519.539 135.689 519.352 137.737C519.14 140.063 520.987 143.645 523.008 144.783C524.767 145.773 529.079 144.975 530.328 143.416C531.811 141.565 531.487 138.047 531.39 135.27C531.358 134.326 529.637 133.441 527.955 132.186ZM260.339 393.269C255.959 390.22 252.341 390.3 249.921 393.606C247.785 396.523 247.85 399.552 250.246 402.225C252.772 405.045 255.986 405.673 259.156 403.471C262.763 400.965 263.005 397.564 260.339 393.269ZM381.65 311.059C379.411 315.97 380.468 319.606 384.611 321.246C387.966 322.574 392.19 321.008 392.927 317.378C393.369 315.204 392.606 312.015 391.148 310.394C388.605 307.568 385.173 308.303 381.65 311.059ZM414.491 318.947C416.655 320.035 418.765 321.766 421.006 321.957C422.233 322.062 424.391 319.787 424.885 318.197C425.927 314.851 424.374 312.318 420.752 311.586C416.949 310.817 414.688 313.174 414.491 318.947ZM159.125 272.606C161.807 269.641 162.167 266.384 158.558 264.368C156.943 263.466 153.539 263.96 152.071 265.177C150.897 266.149 150.612 269.545 151.373 271.204C152.679 274.05 155.513 274.704 159.125 272.606ZM238.505 121.928C235.928 117.679 232.395 116.535 230.054 119.571C228.966 120.982 228.362 123.805 229.059 125.258C229.757 126.712 232.921 128.45 233.991 127.939C235.955 127.002 237.175 124.505 238.505 121.928ZM360.359 14.2419C360.988 16.4018 361.17 18.8943 362.428 20.5869C363.097 21.4879 366.199 21.7387 367.187 20.9726C368.634 19.8497 369.684 17.611 369.901 15.7321C370.033 14.5819 368.339 12.1981 367.38 12.1525C365.216 12.0495 363 13.0549 360.359 14.2419Z" fill="#00928F"/>
<path d="M249.953 269.268C249.966 268.16 249.99 267.427 250.088 266.334C250.703 265.028 251.244 264.082 252.076 262.967C254.639 267.386 256.911 271.976 259.544 276.758C259.537 278.155 259.167 279.36 258.288 280.558C256.929 279.607 256.079 278.662 255.229 277.717C253.499 276.101 251.769 274.486 249.632 272.932C248.993 272.888 248.848 272.712 248.74 272.293C249.116 271.296 249.54 270.469 249.953 269.268Z" fill="#00928F"/>
<path d="M375.454 83.6412C379.081 84.5927 382.272 85.6855 385.788 86.9549C385.602 87.7251 385.091 88.3188 384.28 88.9749C380.48 87.9178 376.981 86.7982 373.177 85.4945C373.587 84.8011 374.302 84.2918 375.454 83.6412Z" fill="#00928F"/>
<path d="M183.437 295.589C185.565 291.743 188.777 290.485 191.758 292.899C193.39 294.22 194.386 297.844 193.851 299.972C193.031 303.231 189.417 304.524 186.686 302.697C184.862 301.477 184.369 298.266 183.437 295.589Z" fill="#00928F"/>
<path d="M249.257 300.072C249.404 300.576 249.371 300.963 249.338 301.349C248.995 301.173 248.652 300.996 248.336 300.612C248.538 300.153 248.776 300.003 249.257 300.072Z" fill="#00928F"/>
<path d="M484.587 101.656C481.036 103.619 477.819 103.316 476.166 100.065C475.234 98.2329 475.194 94.881 476.313 93.3725C477.433 91.8641 480.646 90.9323 482.68 91.2789C487.183 92.0463 488.041 96.8146 484.587 101.656Z" fill="#00928F"/>
<path d="M291.988 135.111C295.373 132.696 298.58 133.056 300.521 135.981C301.626 137.646 302.007 141.245 300.955 142.521C299.636 144.12 296.382 145.112 294.194 144.792C290.142 144.198 289.224 139.849 291.988 135.111Z" fill="#00928F"/>
<path d="M324.37 107.908C319.778 105.152 318.334 101.809 320.873 99.0895C322.295 97.5672 325.795 96.0256 327.041 96.7521C328.991 97.8887 330.792 100.893 330.904 103.192C331.073 106.629 328.326 108.292 324.37 107.908Z" fill="#00928F"/>
<path d="M283.834 338.063C284.556 339.908 285.277 341.752 286.215 344.256C287.126 346.851 287.82 348.787 288.515 350.724C288.594 351.647 288.674 352.571 288.845 354.56C285.355 349.968 282.468 346.169 279.132 341.939C274.285 338.853 269.887 336.198 265.306 333.407C264.856 333.358 264.588 333.445 264.32 333.532C264.526 333.707 264.731 333.882 264.925 334.422C266.154 337.892 267.395 340.996 268.637 344.101C268.29 348.952 267.943 353.804 267.595 358.655C267.072 358.647 266.548 358.638 266.024 358.629C265.878 356.97 265.731 355.311 265.477 352.918C264.288 349.107 263.205 346.029 262.123 342.952C259.221 340.22 256.318 337.487 252.84 334.442C250.083 332.538 248.064 332.339 246.353 334.813C239.324 339.513 232.295 344.213 224.724 349.264C223.227 350.315 222.271 351.014 221.315 351.713C214.062 356.468 207.038 361.632 199.486 365.852C193.217 369.354 186.327 371.746 179.134 374.72C178.556 374.81 178.102 374.731 178.102 374.731C175.593 370.015 178.739 367.81 182.119 365.733C193.745 358.589 205.512 351.661 216.963 344.245C224.496 339.365 231.567 333.772 238.867 328.53C241.853 326.386 242.461 323.789 241.352 320.255C238.467 311.05 234.227 303.084 223.786 299.645C231.287 298.139 235.405 300.172 242.556 308.42C244.202 300.854 239.545 289.966 231.462 282.484C237.235 282.113 244.288 289.357 248.232 300.225C248.652 300.996 248.995 301.173 249.338 301.349C249.371 300.963 249.404 300.576 249.437 300.19C249.382 291.436 249.327 282.683 249.656 273.4C251.769 274.486 253.499 276.101 255.18 278.177C255.868 283.43 256.605 288.222 257.343 293.015C257.886 292.992 258.429 292.969 258.972 292.947C258.707 288.923 258.442 284.899 258.488 280.719C259.167 279.36 259.537 278.155 259.884 276.423C259.965 271.404 260.128 266.912 260.163 262.419C260.346 238.924 268.905 219.341 287.238 204.314C288.004 203.686 288.893 203.208 290.013 202.471C287.813 219.576 289.702 239.358 294.109 246.066C294.109 239.161 294.062 232.354 294.118 225.547C294.28 205.884 299.519 188.167 313.6 173.665C322.87 164.119 331.768 154.211 341 144.626C345.586 139.864 350.546 135.462 355.967 130.298C356.82 138.949 357.569 146.543 358.319 154.137C359.37 151.284 359.447 148.483 359.358 145.687C358.805 128.32 363.295 112.863 375.802 100.134C378.99 96.8895 381.278 92.7603 384.28 88.9749C385.091 88.3188 385.602 87.7252 386.419 86.9887C388.881 83.9622 391.038 81.0786 393.196 78.1951C393.53 77.7932 393.865 77.3912 394.548 76.6418C408.082 61.1764 421.267 46.0585 435.319 29.9471C438.409 34.5261 441.484 38.3486 443.772 42.595C455.369 64.1204 456.548 87.4245 454.315 111.034C453.829 116.178 450.491 121.052 448.466 126.051C448.09 127.266 447.713 128.481 446.861 129.828C445.397 130.36 444.265 130.569 443.441 131.189C438.233 135.112 433.092 139.126 427.665 143.314C435.666 141.298 443.409 139.214 449.186 132.836C449.823 133.865 450.46 134.893 451.047 136.706C446.494 157.243 438.979 175.806 429.381 193.62C423.795 203.989 415.825 211.67 405.319 216.674C396.187 221.023 386.863 224.97 376.504 229.594C390.401 228.507 402.643 224.8 415.526 220.54C414.635 222.494 414.201 223.712 413.562 224.812C401.379 245.78 386.847 264.931 369.437 281.864C355.18 295.731 338.307 304.409 318.676 307.676C315.354 308.229 312.015 308.681 308.684 309.18C308.747 309.748 308.81 310.316 308.874 310.883C320.093 309.993 331.313 309.102 343.762 308.114C339.981 309.827 337.298 311.03 334.627 312.256C331.911 313.503 329.205 314.773 326.496 316.033C325.11 316.717 323.725 317.4 321.648 318.144C316.255 319.103 311.586 320.295 306.843 320.837C299.299 321.698 291.705 322.126 284.022 322.746C289.741 325.326 295.248 328.008 300.912 330.306C305.79 332.285 310.845 333.827 315.822 335.562C316.4 335.849 316.978 336.135 318.464 336.871C307.897 338.098 298.703 335.446 288.767 333.506C285.252 332.426 282.392 331.523 278.443 330.276C280.738 333.591 282.286 335.827 283.834 338.063ZM405.042 143.596C408.118 136.677 411.195 129.757 414.271 122.837C413.043 123.127 412.528 123.751 412.201 124.462C400.581 149.716 384.748 172.375 368.279 194.546C337.4 236.116 302.332 273.905 263.698 308.396C258.551 312.99 253.776 318.002 248.829 322.821C249.117 323.258 249.404 323.695 249.692 324.132C251.226 323.552 253.02 323.304 254.252 322.339C263.806 314.85 273.549 307.562 282.672 299.571C304.243 280.674 323.693 259.698 342.25 237.849C366.705 209.057 388.413 178.477 405.042 143.596ZM327.712 214.938C328.539 216.564 329.338 218.204 330.2 219.812C330.955 221.219 331.78 222.589 332.574 223.976C333.004 223.733 333.434 223.49 333.863 223.247C331.69 218.688 329.516 214.129 327.342 209.569C326.953 209.734 326.564 209.899 326.175 210.064C326.572 211.479 326.97 212.894 327.712 214.938Z" fill="#13283E"/>
<circle cx="156" cy="269" r="10" fill="#00928F"/>
<circle cx="179" cy="194" r="13" fill="#00928F"/>
<circle cx="249" cy="145" r="11" fill="#00928F"/>
<circle cx="311" cy="48" r="15" fill="#00928F"/>
<circle cx="365" cy="16" r="9" fill="#00928F"/>
<circle cx="475" cy="13" r="13" fill="#00928F"/>
<circle cx="483" cy="97" r="8" fill="#00928F"/>
<circle cx="525" cy="138" r="11" fill="#00928F"/>
<circle cx="500" cy="263" r="11" fill="#00928F"/>
<circle cx="465" cy="230" r="11" fill="#00928F"/>
<circle cx="419" cy="316" r="9" fill="#00928F"/>
<circle cx="387" cy="315" r="12" fill="#00928F"/>
<circle cx="351" cy="374" r="12" fill="#00928F"/>
<circle cx="255" cy="398" r="10" fill="#00928F"/>
<circle cx="233" cy="123" r="9" fill="#00928F"/>
<circle cx="296" cy="141" r="7" fill="#00928F"/>
<circle cx="325" cy="102" r="7" fill="#00928F"/>
<circle cx="189" cy="298" r="8" fill="#00928F"/>
</svg>
